<?xml version="1.0" encoding="UTF-8" standalone="no"?><svg xmlns="http://www.w3.org/2000/svg" xmlns:xlink="http://www.w3.org/1999/xlink" fill="#000000" height="461.2" preserveAspectRatio="xMidYMid meet" version="1" viewBox="0.0 0.0 395.7 461.2" width="395.7" zoomAndPan="magnify"><defs><clipPath id="a"><path d="M 0 0 L 395.738281 0 L 395.738281 461.230469 L 0 461.230469 Z M 0 0"/></clipPath></defs><g><g clip-path="url(#a)" id="change1_1"><path d="M 188.394531 461.230469 C 208.765625 456.289062 221 448.226562 231.964844 431.835938 C 242.554688 416.011719 264.019531 403.023438 276.136719 386.140625 C 281.632812 380.578125 287.207031 374.832031 292.78125 369.035156 C 307.878906 361.1875 319.433594 350.023438 327.851562 337.988281 C 336.632812 325.429688 342.507812 309.703125 347.160156 295.050781 C 358.335938 290.148438 364.023438 284.40625 371.652344 274.507812 C 381.824219 261.3125 388.644531 245.359375 390.535156 235.429688 C 400.144531 207.398438 396.335938 180.203125 380.074219 155.871094 C 384.609375 120.789062 336.089844 23.894531 292.855469 13.085938 C 258.925781 -12.789062 205.3125 6.789062 197.871094 12.046875 C 190.429688 6.789062 136.816406 -12.789062 102.882812 13.085938 C 59.652344 23.894531 11.128906 120.789062 15.667969 155.871094 C -0.59375 180.203125 -4.402344 207.398438 5.203125 235.429688 C 7.09375 245.359375 13.917969 261.3125 24.089844 274.507812 C 31.71875 284.40625 37.40625 290.148438 48.578125 295.050781 C 53.234375 309.703125 59.109375 325.429688 67.890625 337.988281 C 76.308594 350.023438 87.859375 361.1875 102.960938 369.035156 C 108.535156 374.832031 114.109375 380.578125 119.605469 386.140625 C 128.550781 398.605469 152.929688 420.570312 171.304688 432.128906 C 182.609375 439.242188 193.078125 446.265625 188.394531 461.230469" fill="#eeba2b" fill-rule="evenodd"/></g><g id="change2_1"><path d="M 146.007812 87.402344 C 138.238281 96.308594 127.574219 104.15625 122.207031 113.320312 C 117.492188 121.367188 121.796875 124.550781 121.917969 134.84375 C 117.464844 142.375 109.996094 152.964844 115.390625 165.023438 C 121.789062 178.683594 129.65625 186.613281 134.582031 194.359375 C 138.160156 200.304688 143.488281 191.6875 151.582031 190.316406 C 147.292969 199.027344 142.964844 213.210938 141.722656 220.589844 C 150.523438 218.421875 158.433594 217.953125 162.542969 223.023438 C 157.183594 222.347656 149.628906 224.46875 141.679688 226.875 C 142.21875 229.445312 143.386719 231.914062 144.613281 234.542969 C 157.867188 229.3125 172.441406 223.398438 179.121094 230.667969 C 171.070312 230.15625 158.535156 236.167969 146.9375 239.996094 C 147.121094 240.503906 147.289062 241.023438 147.449219 241.554688 C 148.085938 243.664062 148.570312 245.816406 149.273438 247.90625 C 159.085938 242.070312 168.808594 237.628906 175.109375 242.367188 C 168.8125 243.121094 160.523438 248.355469 152.058594 253.410156 C 153.972656 255.957031 156.902344 258.226562 161.761719 259.992188 C 169.835938 261.210938 188.027344 250.671875 193.589844 243.089844 C 195.375 240.660156 194.839844 224.46875 193.941406 220.914062 C 191.300781 220.785156 188.171875 219.390625 187.445312 217.582031 C 186.828125 216.042969 187.800781 214.320312 182.019531 211.5625 C 164.285156 205.40625 156.707031 200.199219 172.171875 188.039062 C 172.847656 190.835938 170.289062 196.921875 173.933594 198.140625 C 175.347656 196.863281 181.828125 193.582031 184.097656 194.535156 C 188.339844 196.316406 193.09375 197.25 197.871094 197.339844 C 202.648438 197.25 207.398438 196.316406 211.644531 194.535156 C 213.910156 193.582031 220.394531 196.863281 221.808594 198.140625 C 225.453125 196.921875 222.894531 190.835938 223.570312 188.039062 C 239.03125 200.199219 231.453125 205.40625 213.722656 211.5625 C 207.941406 214.320312 208.910156 216.042969 208.292969 217.582031 C 207.570312 219.390625 204.4375 220.785156 201.796875 220.914062 C 200.898438 224.46875 200.367188 240.660156 202.148438 243.089844 C 207.714844 250.671875 225.90625 261.210938 233.980469 259.992188 C 238.839844 258.226562 241.769531 255.957031 243.683594 253.410156 C 235.21875 248.355469 226.929688 243.121094 220.628906 242.367188 C 226.933594 237.628906 236.652344 242.070312 246.464844 247.90625 C 247.171875 245.816406 247.65625 243.664062 248.289062 241.554688 C 248.449219 241.023438 248.621094 240.503906 248.800781 239.996094 C 237.203125 236.167969 224.667969 230.15625 216.617188 230.667969 C 223.300781 223.398438 237.871094 229.3125 251.128906 234.542969 C 252.355469 231.914062 253.523438 229.445312 254.0625 226.875 C 246.109375 224.46875 238.558594 222.347656 233.199219 223.023438 C 237.308594 217.953125 245.21875 218.421875 254.019531 220.589844 C 252.777344 213.210938 248.445312 199.027344 244.15625 190.316406 C 252.253906 191.6875 257.578125 200.304688 261.160156 194.359375 C 266.085938 186.613281 273.953125 178.683594 280.351562 165.023438 C 285.746094 152.964844 278.277344 142.375 273.820312 134.84375 C 273.941406 124.550781 278.246094 121.367188 273.535156 113.320312 C 268.167969 104.15625 257.5 96.308594 249.730469 87.402344 C 242.011719 78.546875 228.378906 78.765625 216.894531 80.148438 C 210.539062 80.910156 205.316406 86.679688 202.832031 94.9375 C 198.199219 110.332031 201.652344 128.199219 197.871094 136.773438 C 194.089844 128.199219 197.539062 110.332031 192.910156 94.9375 C 190.421875 86.679688 185.199219 80.910156 178.847656 80.148438 C 167.359375 78.765625 153.726562 78.546875 146.007812 87.402344 Z M 160.875 144.769531 C 150.207031 149.746094 143.582031 139.925781 141.265625 133.609375 C 138.46875 132.960938 135.8125 130.859375 136.386719 126.585938 C 140.253906 127.445312 146.351562 125.085938 152.117188 125.972656 C 160.128906 127.199219 168.222656 132.378906 170.039062 140.296875 C 171.933594 148.5625 168.980469 161.171875 167.230469 153.066406 C 166.808594 151.101562 166.460938 146.5625 165.738281 145.394531 C 164.222656 142.9375 161.859375 144.308594 160.875 144.769531 Z M 234.867188 144.769531 C 245.535156 149.746094 252.160156 139.925781 254.476562 133.609375 C 257.269531 132.960938 259.929688 130.859375 259.355469 126.585938 C 255.488281 127.445312 249.390625 125.085938 243.621094 125.972656 C 235.609375 127.199219 227.519531 132.378906 225.703125 140.296875 C 223.804688 148.5625 226.761719 161.171875 228.511719 153.066406 C 228.933594 151.101562 229.28125 146.5625 230 145.394531 C 231.519531 142.9375 233.882812 144.308594 234.867188 144.769531" fill="#ffffff" fill-rule="evenodd"/></g><g id="change2_2"><path d="M 191.023438 260.625 C 181.410156 265.628906 170.136719 268.839844 163.640625 269.445312 C 166.09375 297.296875 229.644531 297.296875 232.097656 269.445312 C 225.570312 268.835938 212.890625 265.300781 203.25 260.289062 C 202.183594 259.734375 195.5 258.292969 191.023438 260.625" fill="#ffffff" fill-rule="evenodd"/></g><g id="change2_3"><path d="M 150.492188 59.769531 C 147.4375 65.066406 135.191406 66.730469 126.765625 56.269531 C 129.132812 56.070312 134.953125 56.558594 137.535156 57.222656 C 136.632812 48.828125 117.957031 40.3125 105.253906 46.992188 C 110.019531 47.605469 115.914062 52.261719 117.761719 54.507812 C 110.523438 52.644531 105.246094 55.371094 99.933594 55.105469 C 101.464844 61.496094 116.992188 57.515625 122.953125 62.089844 C 116.195312 60.644531 108.605469 66.683594 100.222656 67.929688 C 108.527344 70.660156 125.546875 65.1875 129.15625 72.742188 C 120.898438 67.394531 112.28125 80.167969 102.070312 78.5625 C 115.328125 87.144531 119.390625 74.039062 131.238281 78.449219 C 121.089844 84.167969 112.230469 94.617188 108.449219 100.019531 C 99.46875 96.648438 100.789062 90.148438 97.808594 82.105469 C 94.257812 72.539062 89.898438 70.195312 93.546875 57.5625 C 95.867188 49.539062 101.460938 39.160156 111.871094 36.671875 C 129.304688 32.5 147.320312 51.085938 150.492188 59.769531" fill="#ffffff" fill-rule="evenodd"/></g><g id="change2_4"><path d="M 245.246094 59.769531 C 248.304688 65.066406 260.546875 66.730469 268.976562 56.269531 C 266.609375 56.070312 260.785156 56.558594 258.207031 57.222656 C 259.105469 48.828125 277.78125 40.3125 290.484375 46.992188 C 285.722656 47.605469 279.828125 52.261719 277.980469 54.507812 C 285.21875 52.644531 290.492188 55.371094 295.808594 55.105469 C 294.277344 61.496094 278.746094 57.515625 272.789062 62.089844 C 279.546875 60.644531 287.136719 66.683594 295.515625 67.929688 C 287.210938 70.660156 270.191406 65.1875 266.582031 72.742188 C 274.839844 67.394531 283.460938 80.167969 293.671875 78.5625 C 280.414062 87.144531 276.351562 74.039062 264.503906 78.449219 C 274.648438 84.167969 283.511719 94.617188 287.289062 100.019531 C 296.273438 96.648438 294.949219 90.148438 297.933594 82.105469 C 301.480469 72.539062 305.84375 70.195312 302.191406 57.5625 C 299.875 49.539062 294.28125 39.160156 283.871094 36.671875 C 266.4375 32.5 248.421875 51.085938 245.246094 59.769531" fill="#ffffff" fill-rule="evenodd"/></g><g id="change2_5"><path d="M 198.503906 449.023438 C 224.667969 421.980469 202.765625 337.105469 209.214844 323.335938 C 203.085938 332.546875 199.949219 350.128906 196.789062 372.378906 C 196.632812 373.496094 194.015625 379.324219 191.890625 379.222656 C 184.144531 378.847656 192.140625 326.765625 195.160156 322.203125 C 170.320312 335.160156 172.289062 390.613281 184.808594 408.535156 C 184.902344 404.910156 184.480469 401.109375 184.449219 397.757812 C 184.34375 386.574219 190.714844 387.695312 193.140625 397.675781 C 200.128906 412.964844 200.703125 440.203125 198.503906 449.023438" fill="#ffffff" fill-rule="evenodd"/></g><g id="change2_6"><path d="M 104.777344 137.882812 C 100.324219 145.371094 71.722656 179.574219 64.476562 182.050781 C 66.46875 173.074219 104.039062 128.417969 103.871094 118.976562 C 78.289062 146.035156 30.183594 198.890625 37.730469 239.160156 C 38.738281 204.230469 93.261719 175.066406 104.777344 137.882812" fill="#ffffff" fill-rule="evenodd"/></g><g id="change2_7"><path d="M 159.632812 290.363281 C 139.507812 295.617188 137.214844 326 141.910156 357.816406 C 143.226562 322.308594 155.882812 299.785156 159.632812 290.363281" fill="#ffffff" fill-rule="evenodd"/></g><g id="change2_8"><path d="M 163.21875 342.773438 C 168.238281 327.734375 158.3125 332.78125 155.574219 343.410156 C 151.671875 358.589844 152.644531 375.722656 154.75 403.613281 C 143.617188 358.246094 147.84375 304.601562 175.40625 293.847656 C 166.792969 308.027344 168.613281 317.777344 172.449219 316.203125 C 175.746094 314.851562 178.386719 309.496094 183.105469 306.90625 C 178.40625 328.730469 163.835938 356.023438 164.652344 387.003906 C 165.0625 402.574219 171.5625 415.613281 176.09375 424.230469 C 157.546875 411.074219 157.273438 363.046875 163.21875 342.773438" fill="#ffffff" fill-rule="evenodd"/></g><g id="change2_9"><path d="M 86.070312 282.128906 C 87.027344 265.203125 94.003906 235.960938 114.574219 228.425781 C 94.542969 250.851562 93.738281 297.875 104.347656 276.101562 C 110.257812 263.964844 126.96875 238.535156 137.03125 240.289062 C 121.050781 257.941406 111.292969 306.3125 119.289062 326.796875 C 119.878906 302.90625 128.667969 280.59375 153.46875 270.457031 C 145.390625 285.578125 139.734375 293.832031 137.207031 309.328125 C 133.238281 333.664062 132.597656 368.890625 144.230469 397.042969 C 132.722656 386.09375 130.855469 371.949219 127.648438 356.503906 C 122.78125 333.066406 115.011719 335.246094 115.960938 348.5625 C 116.578125 357.273438 120.199219 368.335938 123.605469 376.652344 C 105.128906 357.835938 98.40625 323.035156 99.761719 297.527344 C 93.074219 315.582031 95.519531 337.714844 104.363281 358.949219 C 87.113281 349.09375 85.992188 299.601562 86.070312 282.128906" fill="#ffffff" fill-rule="evenodd"/></g><g id="change2_10"><path d="M 60.023438 208.671875 C 79.867188 185.710938 100.132812 179.65625 107.027344 174.398438 C 103.417969 184.253906 94.726562 191.558594 89.964844 198.046875 C 88.246094 200.390625 79.90625 213.730469 83.839844 215.324219 C 88.953125 216.535156 108.835938 195.824219 112.039062 189.652344 C 106.851562 215.609375 98.179688 224.578125 90.90625 237.367188 C 81.8125 253.339844 76.03125 284.53125 83.003906 336.058594 C 71.207031 312.671875 64.074219 262.761719 74.105469 238.414062 C 77.824219 229.394531 67.171875 231.265625 64.515625 239.035156 C 57.75 258.824219 58.375 284.695312 63.046875 304.648438 C 47.847656 280.871094 51.886719 246.222656 62.363281 221.640625 C 49.226562 230.136719 44.117188 252.347656 44.242188 269.023438 C 44.277344 273.476562 44.703125 277.949219 45.472656 282.410156 C 24.742188 267.8125 47.332031 223.351562 60.023438 208.671875" fill="#ffffff" fill-rule="evenodd"/></g><g id="change2_11"><path d="M 40.144531 164.558594 C 50.707031 148.605469 27.9375 161.742188 24.179688 167.609375 C 17.722656 146.960938 57.808594 124.757812 69.601562 119.296875 C 68.464844 121.09375 55.128906 130.867188 51.328125 139.058594 C 43.566406 155.769531 54.015625 150.03125 64.871094 138.902344 C 75.523438 127.984375 86.496094 111.863281 88.785156 107.523438 C 95.132812 126.570312 63.441406 148.121094 46.542969 171.09375 C 28.484375 195.65625 18.414062 228.621094 24.859375 258.6875 C 2.933594 221.613281 18.539062 197.210938 40.144531 164.558594" fill="#ffffff" fill-rule="evenodd"/></g><g id="change2_12"><path d="M 290.964844 137.882812 C 295.414062 145.371094 324.015625 179.574219 331.265625 182.050781 C 329.269531 173.074219 292.59375 129.535156 292.761719 120.097656 C 318.347656 147.152344 365.558594 198.890625 358.011719 239.160156 C 357.003906 204.230469 302.480469 175.066406 290.964844 137.882812" fill="#ffffff" fill-rule="evenodd"/></g><g id="change2_13"><path d="M 236.109375 290.363281 C 256.230469 295.617188 258.527344 326 253.832031 357.816406 C 252.515625 322.308594 239.859375 299.785156 236.109375 290.363281" fill="#ffffff" fill-rule="evenodd"/></g><g id="change2_14"><path d="M 232.523438 342.773438 C 227.503906 327.734375 237.429688 332.78125 240.164062 343.410156 C 244.070312 358.589844 243.097656 375.722656 240.992188 403.613281 C 252.125 358.246094 247.894531 304.601562 220.332031 293.847656 C 228.949219 308.027344 227.128906 317.777344 223.292969 316.203125 C 219.996094 314.851562 211.097656 309.496094 206.382812 306.90625 C 211.078125 328.730469 227.429688 355.578125 226.617188 386.554688 C 226.207031 402.125 221.050781 415.613281 216.519531 424.230469 C 235.066406 411.074219 238.46875 363.046875 232.523438 342.773438" fill="#ffffff" fill-rule="evenodd"/></g><g id="change2_15"><path d="M 309.671875 282.128906 C 308.714844 265.203125 301.734375 235.960938 281.167969 228.425781 C 301.195312 250.851562 302.003906 297.875 291.394531 276.101562 C 285.484375 263.964844 268.769531 238.535156 258.710938 240.289062 C 274.691406 257.941406 284.449219 306.3125 276.449219 326.796875 C 275.859375 302.90625 267.074219 280.59375 242.269531 270.457031 C 250.351562 285.578125 256.007812 293.832031 258.535156 309.328125 C 262.5 333.664062 263.144531 368.890625 251.511719 397.042969 C 263.019531 386.09375 264.886719 371.949219 268.09375 356.503906 C 272.957031 333.066406 280.730469 335.246094 279.78125 348.5625 C 279.160156 357.273438 275.539062 368.335938 272.132812 376.652344 C 290.609375 357.835938 297.335938 323.035156 295.976562 297.527344 C 302.667969 315.582031 300.222656 337.714844 291.378906 358.949219 C 308.628906 349.09375 309.746094 299.601562 309.671875 282.128906" fill="#ffffff" fill-rule="evenodd"/></g><g id="change2_16"><path d="M 335.71875 208.671875 C 315.875 185.710938 295.609375 179.65625 288.714844 174.398438 C 292.320312 184.253906 301.015625 191.558594 305.773438 198.046875 C 307.496094 200.390625 315.835938 213.730469 311.902344 215.324219 C 306.789062 216.535156 286.90625 195.824219 283.703125 189.652344 C 288.890625 215.609375 297.558594 224.578125 304.832031 237.367188 C 313.929688 253.339844 319.710938 284.53125 312.734375 336.058594 C 324.535156 312.671875 331.664062 262.761719 321.632812 238.414062 C 317.917969 229.394531 328.566406 231.265625 331.222656 239.035156 C 337.988281 258.824219 337.367188 284.695312 332.695312 304.648438 C 347.894531 280.871094 343.851562 246.222656 333.378906 221.640625 C 346.515625 230.136719 351.621094 252.347656 351.496094 269.023438 C 351.464844 273.476562 351.035156 277.949219 350.265625 282.410156 C 371 267.8125 348.410156 223.351562 335.71875 208.671875" fill="#ffffff" fill-rule="evenodd"/></g><g id="change2_17"><path d="M 355.59375 164.558594 C 345.035156 148.605469 367.804688 161.742188 371.5625 167.609375 C 378.019531 146.960938 337.933594 124.757812 326.136719 119.296875 C 327.273438 121.09375 340.609375 130.867188 344.414062 139.058594 C 350.820312 152.851562 337.871094 148.078125 332.894531 141.722656 C 327.488281 134.8125 317.792969 125.4375 312.542969 119.144531 C 309.550781 133.496094 332.300781 148.121094 349.195312 171.09375 C 367.257812 195.65625 377.328125 228.621094 370.882812 258.6875 C 392.804688 221.613281 377.199219 197.210938 355.59375 164.558594" fill="#ffffff" fill-rule="evenodd"/></g><g id="change2_18"><path d="M 41.785156 95.789062 C 46.53125 85.933594 70.90625 49.945312 85.644531 58.34375 C 81.523438 57.050781 44.605469 100.480469 71.085938 88.445312 C 77.984375 85.304688 83.875 85.453125 86.222656 89.898438 C 74.550781 90.882812 56.152344 111.0625 31.738281 134.570312 C 37.359375 113.359375 55.527344 105.328125 54.433594 96.316406 C 54.105469 93.632812 46.617188 95.109375 41.785156 95.789062" fill="#ffffff" fill-rule="evenodd"/></g><g id="change2_19"><path d="M 177.351562 35.761719 C 182.023438 35.8125 181.863281 21.914062 173.269531 17.742188 C 192.445312 16.878906 201.230469 51.085938 182.574219 59.746094 C 186.902344 42.484375 168.335938 36.625 169.605469 47.804688 C 170.207031 53.113281 172.039062 69.089844 159.335938 69.644531 C 170.40625 58.199219 157.28125 30.722656 150.472656 30.726562 C 154.570312 38.710938 153.460938 45.171875 148.59375 48.714844 C 153.058594 14.304688 97.054688 25.96875 78.972656 42.113281 C 95.070312 9.519531 160.324219 13.289062 177.351562 35.761719" fill="#ffffff" fill-rule="evenodd"/></g><g id="change2_20"><path d="M 218.394531 35.761719 C 213.726562 35.8125 213.878906 21.914062 222.476562 17.742188 C 203.300781 16.878906 194.515625 51.085938 213.167969 59.746094 C 208.84375 42.484375 227.410156 36.625 226.140625 47.804688 C 225.539062 53.113281 223.703125 69.089844 236.414062 69.644531 C 225.339844 58.199219 238.464844 30.722656 245.273438 30.726562 C 241.175781 38.710938 242.285156 45.171875 247.152344 48.714844 C 242.6875 14.304688 298.691406 25.96875 316.773438 42.113281 C 300.675781 9.519531 235.421875 13.289062 218.394531 35.761719" fill="#ffffff" fill-rule="evenodd"/></g><g id="change2_21"><path d="M 353.960938 95.789062 C 349.214844 85.933594 324.839844 49.945312 310.101562 58.34375 C 314.222656 57.050781 351.140625 100.480469 324.65625 88.445312 C 317.761719 85.304688 311.871094 85.453125 309.519531 89.898438 C 321.191406 90.882812 339.59375 111.0625 364.007812 134.570312 C 358.386719 113.359375 340.21875 105.328125 341.3125 96.316406 C 341.640625 93.632812 349.128906 95.109375 353.960938 95.789062" fill="#ffffff" fill-rule="evenodd"/></g></g></svg>