<?xml version="1.0" encoding="UTF-8"?><svg xmlns="http://www.w3.org/2000/svg" xmlns:xlink="http://www.w3.org/1999/xlink" height="180.3" preserveAspectRatio="xMidYMid meet" version="1.0" viewBox="29.9 126.7 365.3 180.3" width="365.3" zoomAndPan="magnify"><g><g id="change1_1"><path d="M 296.769531 255.226562 L 61.933594 255.226562 L 61.933594 164.226562 L 296.769531 164.226562 L 296.769531 255.226562" fill="#f89937"/></g><g id="change2_1"><path d="M 63.433594 253.726562 L 295.269531 253.726562 L 295.269531 165.726562 L 63.433594 165.726562 Z M 298.269531 256.726562 L 60.433594 256.726562 L 60.433594 162.726562 L 298.269531 162.726562 L 298.269531 256.726562" fill="#15191e"/></g><g id="change3_1"><path d="M 31.621094 166.226562 L 31.511719 255.308594 C 31.464844 255.703125 31.433594 256.101562 31.433594 256.5 C 31.433594 256.890625 31.464844 257.273438 31.507812 257.660156 C 33.488281 275.328125 80.699219 289.847656 142.214844 292.667969 C 149.335938 292.996094 156.644531 293.167969 164.101562 293.167969 C 170.878906 293.167969 177.535156 293.027344 184.039062 292.757812 L 381.777344 293.167969 L 381.96875 202.167969 L 164.101562 201.558594 L 31.621094 166.226562" fill="#fab336"/></g><g id="change4_1"><path d="M 31.511719 255.308594 C 31.464844 255.703125 31.433594 256.101562 31.433594 256.5 C 31.433594 256.890625 31.464844 257.273438 31.507812 257.660156 C 33.488281 275.328125 80.699219 289.847656 142.214844 292.667969 C 149.335938 292.996094 156.644531 293.167969 164.101562 293.167969 C 170.878906 293.167969 177.535156 293.027344 184.039062 292.757812 L 381.777344 293.167969 L 381.96875 202.167969 C 123.042969 307.023438 31.511719 255.308594 31.511719 255.308594" fill="#db9d2f"/></g><g id="change2_2"><path d="M 33.121094 168.175781 L 33 255.484375 C 32.957031 255.867188 32.933594 256.203125 32.933594 256.5 C 32.933594 256.832031 32.960938 257.164062 32.996094 257.492188 C 34.839844 273.917969 81.824219 288.394531 142.28125 291.171875 C 156.09375 291.804688 170.3125 291.828125 183.980469 291.257812 L 380.28125 291.664062 L 380.464844 203.664062 L 163.898438 203.058594 Z M 383.273438 294.671875 L 184.035156 294.257812 C 170.421875 294.828125 156.039062 294.804688 142.144531 294.167969 C 78.199219 291.230469 32.089844 276.289062 30.015625 257.824219 C 29.960938 257.328125 29.933594 256.90625 29.933594 256.5 C 29.933594 256.105469 29.960938 255.6875 30.011719 255.222656 L 30.125 164.273438 L 164.296875 200.058594 L 383.472656 200.671875 L 383.273438 294.671875" fill="#15191e"/></g><g id="change3_2"><path d="M 296.769531 164.890625 C 296.769531 185.144531 237.367188 201.558594 164.101562 201.558594 C 90.832031 201.558594 31.433594 185.144531 31.433594 164.890625 C 31.433594 144.640625 90.832031 128.226562 164.101562 128.226562 C 237.367188 128.226562 296.769531 144.640625 296.769531 164.890625" fill="#fab336"/></g><g id="change2_3"><path d="M 164.101562 129.726562 C 93 129.726562 32.933594 145.828125 32.933594 164.890625 C 32.933594 183.953125 93 200.058594 164.101562 200.058594 C 235.199219 200.058594 295.269531 183.953125 295.269531 164.890625 C 295.269531 145.828125 235.199219 129.726562 164.101562 129.726562 Z M 164.101562 203.058594 C 88.863281 203.058594 29.933594 186.292969 29.933594 164.890625 C 29.933594 143.488281 88.863281 126.726562 164.101562 126.726562 C 239.335938 126.726562 298.269531 143.488281 298.269531 164.890625 C 298.269531 186.292969 239.335938 203.058594 164.101562 203.058594" fill="#15191e"/></g><g id="change3_3"><path d="M 264.203125 164.890625 C 264.203125 180.171875 219.386719 192.558594 164.101562 192.558594 C 108.8125 192.558594 63.996094 180.171875 63.996094 164.890625 C 63.996094 149.613281 108.8125 137.226562 164.101562 137.226562 C 219.386719 137.226562 264.203125 149.613281 264.203125 164.890625" fill="#fab336"/></g><g id="change2_4"><path d="M 164.101562 138.726562 C 105.117188 138.726562 65.496094 152.253906 65.496094 164.890625 C 65.496094 177.527344 105.117188 191.058594 164.101562 191.058594 C 223.082031 191.058594 262.703125 177.527344 262.703125 164.890625 C 262.703125 152.253906 223.082031 138.726562 164.101562 138.726562 Z M 164.101562 194.058594 C 107.125 194.058594 62.496094 181.246094 62.496094 164.890625 C 62.496094 148.535156 107.125 135.726562 164.101562 135.726562 C 221.074219 135.726562 265.703125 148.535156 265.703125 164.890625 C 265.703125 181.246094 221.074219 194.058594 164.101562 194.058594" fill="#15191e"/></g><g id="change3_4"><path d="M 228.023438 164.890625 C 228.023438 174.648438 199.402344 182.558594 164.101562 182.558594 C 128.796875 182.558594 100.179688 174.648438 100.179688 164.890625 C 100.179688 155.136719 128.796875 147.226562 164.101562 147.226562 C 199.402344 147.226562 228.023438 155.136719 228.023438 164.890625" fill="#fab336"/></g><g id="change2_5"><path d="M 164.101562 148.726562 C 127.3125 148.726562 101.679688 157.242188 101.679688 164.890625 C 101.679688 172.539062 127.3125 181.058594 164.101562 181.058594 C 200.886719 181.058594 226.523438 172.539062 226.523438 164.890625 C 226.523438 157.242188 200.886719 148.726562 164.101562 148.726562 Z M 164.101562 184.058594 C 132.386719 184.058594 98.675781 177.34375 98.675781 164.890625 C 98.675781 152.441406 132.386719 145.726562 164.101562 145.726562 C 195.8125 145.726562 229.523438 152.441406 229.523438 164.890625 C 229.523438 177.34375 195.8125 184.058594 164.101562 184.058594" fill="#15191e"/></g><g id="change3_5"><path d="M 206.3125 164.890625 C 206.3125 171.335938 187.414062 176.558594 164.101562 176.558594 C 140.785156 176.558594 121.886719 171.335938 121.886719 164.890625 C 121.886719 158.449219 140.785156 153.226562 164.101562 153.226562 C 187.414062 153.226562 206.3125 158.449219 206.3125 164.890625" fill="#fab336"/></g><g id="change2_6"><path d="M 164.101562 154.726562 C 138.875 154.726562 123.386719 160.644531 123.386719 164.890625 C 123.386719 169.136719 138.875 175.058594 164.101562 175.058594 C 189.324219 175.058594 204.8125 169.136719 204.8125 164.890625 C 204.8125 160.644531 189.324219 154.726562 164.101562 154.726562 Z M 164.101562 178.058594 C 142.90625 178.058594 120.386719 173.445312 120.386719 164.890625 C 120.386719 156.339844 142.90625 151.726562 164.101562 151.726562 C 185.289062 151.726562 207.8125 156.339844 207.8125 164.890625 C 207.8125 173.445312 185.289062 178.058594 164.101562 178.058594" fill="#15191e"/></g><g id="change2_7"><path d="M 361.269531 293.125 L 369.269531 293.144531 L 369.269531 272.726562 L 361.269531 272.726562 L 361.269531 293.125" fill="#15191e"/></g><g id="change2_8"><path d="M 344.269531 293.089844 L 352.269531 293.105469 L 352.269531 272.726562 L 344.269531 272.726562 L 344.269531 293.089844" fill="#15191e"/></g><g id="change2_9"><path d="M 327.269531 293.054688 L 335.269531 293.070312 L 335.269531 272.726562 L 327.269531 272.726562 L 327.269531 293.054688" fill="#15191e"/></g><g id="change2_10"><path d="M 310.269531 293.019531 L 318.269531 293.035156 L 318.269531 251.226562 L 310.269531 251.226562 L 310.269531 293.019531" fill="#15191e"/></g><g id="change2_11"><path d="M 292.769531 292.980469 L 300.769531 293 L 300.769531 272.726562 L 292.769531 272.726562 L 292.769531 292.980469" fill="#15191e"/></g><g id="change2_12"><path d="M 275.769531 292.945312 L 283.769531 292.964844 L 283.769531 272.726562 L 275.769531 272.726562 L 275.769531 292.945312" fill="#15191e"/></g><g id="change2_13"><path d="M 258.769531 292.910156 L 266.769531 292.929688 L 266.769531 272.726562 L 258.769531 272.726562 L 258.769531 292.910156" fill="#15191e"/></g><g id="change2_14"><path d="M 241.769531 292.875 L 249.769531 292.894531 L 249.769531 251.226562 L 241.769531 251.226562 L 241.769531 292.875" fill="#15191e"/></g><g id="change2_15"><path d="M 224.269531 292.839844 L 232.269531 292.855469 L 232.269531 272.726562 L 224.269531 272.726562 L 224.269531 292.839844" fill="#15191e"/></g><g id="change2_16"><path d="M 207.269531 292.804688 L 215.269531 292.820312 L 215.269531 272.726562 L 207.269531 272.726562 L 207.269531 292.804688" fill="#15191e"/></g><g id="change2_17"><path d="M 198.269531 292.785156 L 198.269531 272.726562 L 190.269531 272.726562 L 190.269531 292.769531 L 198.269531 292.785156" fill="#15191e"/></g><g id="change2_18"><path d="M 173.269531 293.078125 C 175.957031 293.027344 178.621094 292.949219 181.269531 292.855469 L 181.269531 251.226562 L 173.269531 251.226562 L 173.269531 293.078125" fill="#15191e"/></g><g id="change2_19"><path d="M 155.769531 293.089844 C 158.414062 293.132812 161.078125 293.164062 163.769531 293.164062 L 163.769531 272.726562 L 155.769531 272.726562 L 155.769531 293.089844" fill="#15191e"/></g><g id="change2_20"><path d="M 138.769531 292.496094 C 139.910156 292.558594 141.0625 292.613281 142.214844 292.667969 C 143.722656 292.738281 145.242188 292.796875 146.769531 292.851562 L 146.769531 272.726562 L 138.769531 272.726562 L 138.769531 292.496094" fill="#15191e"/></g><g id="change2_21"><path d="M 121.769531 291.257812 C 124.398438 291.503906 127.066406 291.722656 129.769531 291.921875 L 129.769531 272.726562 L 121.769531 272.726562 L 121.769531 291.257812" fill="#15191e"/></g><g id="change2_22"><path d="M 104.769531 289.300781 C 107.386719 289.664062 110.054688 290.003906 112.769531 290.316406 L 112.769531 251.226562 L 104.769531 251.226562 L 104.769531 289.300781" fill="#15191e"/></g><g id="change2_23"><path d="M 87.269531 286.394531 C 89.863281 286.902344 92.535156 287.390625 95.269531 287.847656 L 95.269531 266.726562 L 87.269531 266.726562 L 87.269531 286.394531" fill="#15191e"/></g><g id="change2_24"><path d="M 70.269531 282.417969 C 72.832031 283.128906 75.503906 283.808594 78.269531 284.457031 L 78.269531 263.226562 L 70.269531 263.226562 L 70.269531 282.417969" fill="#15191e"/></g><g id="change2_25"><path d="M 53.269531 276.652344 C 55.753906 277.695312 58.421875 278.699219 61.269531 279.664062 L 61.269531 258.726562 L 53.269531 258.726562 L 53.269531 276.652344" fill="#15191e"/></g><g id="change2_26"><path d="M 36.269531 266.332031 C 38.328125 268.382812 41.015625 270.359375 44.269531 272.246094 L 44.269531 237.226562 L 36.269531 237.226562 L 36.269531 266.332031" fill="#15191e"/></g><g id="change5_1"><path d="M 387.769531 199.476562 C 384.964844 199.476562 382.617188 201.398438 381.960938 203.992188 L 381.769531 203.976562 C 379.558594 203.976562 377.769531 205.765625 377.769531 207.976562 L 377.769531 288.476562 C 377.769531 290.683594 379.558594 292.476562 381.769531 292.476562 L 381.960938 292.453125 C 382.617188 295.050781 384.964844 296.976562 387.769531 296.976562 C 391.078125 296.976562 393.769531 294.289062 393.769531 290.976562 L 393.769531 205.476562 C 393.769531 202.160156 391.078125 199.476562 387.769531 199.476562" fill="#aeacac"/></g><g id="change2_27"><path d="M 383.105469 290.882812 L 383.410156 292.085938 C 383.921875 294.082031 385.710938 295.476562 387.769531 295.476562 C 390.246094 295.476562 392.269531 293.457031 392.269531 290.976562 L 392.269531 205.476562 C 392.269531 202.992188 390.246094 200.976562 387.769531 200.976562 C 385.710938 200.976562 383.921875 202.367188 383.410156 204.363281 L 383.109375 205.550781 L 381.707031 205.476562 C 380.355469 205.507812 379.269531 206.617188 379.269531 207.976562 L 379.269531 288.476562 C 379.269531 289.835938 380.355469 290.941406 381.710938 290.976562 Z M 387.769531 298.476562 C 384.722656 298.476562 382.023438 296.640625 380.867188 293.898438 C 378.261719 293.46875 376.269531 291.199219 376.269531 288.476562 L 376.269531 207.976562 C 376.269531 205.246094 378.261719 202.980469 380.867188 202.550781 C 382.023438 199.808594 384.722656 197.976562 387.769531 197.976562 C 391.902344 197.976562 395.269531 201.339844 395.269531 205.476562 L 395.269531 290.976562 C 395.269531 295.109375 391.902344 298.476562 387.769531 298.476562" fill="#15191e"/></g></g></svg>