<?xml version="1.0" encoding="UTF-8"?><svg xmlns="http://www.w3.org/2000/svg" xmlns:xlink="http://www.w3.org/1999/xlink" height="694.7" preserveAspectRatio="xMidYMid meet" version="1.0" viewBox="-1.3 -1.3 616.6 694.7" width="616.6" zoomAndPan="magnify"><defs><clipPath id="a"><path d="M 45 91 L 540 91 L 540 330 L 45 330 Z M 45 91"/></clipPath><clipPath id="b"><path d="M 478.765625 438.195312 C 478.765625 438.195312 553.640625 268.199219 573.226562 196.886719 C 575.054688 190.230469 572.421875 183.167969 566.652344 179.300781 C 526.238281 152.210938 362.046875 45.773438 211.945312 0.6875 C 205.203125 -1.339844 197.921875 1.183594 193.921875 6.929688 C 162.601562 51.902344 30.628906 244.453125 0.765625 338.011719 C -1.25 344.324219 0.789062 351.214844 5.96875 355.402344 C 47.460938 388.960938 234.339844 537.101562 315.753906 550.476562 L 478.765625 438.195312"/></clipPath><clipPath id="c"><path d="M 151 38 L 189 38 L 189 77 L 151 77 Z M 151 38"/></clipPath><clipPath id="d"><path d="M 478.765625 438.195312 C 478.765625 438.195312 553.640625 268.199219 573.226562 196.886719 C 575.054688 190.230469 572.421875 183.167969 566.652344 179.300781 C 526.238281 152.210938 362.046875 45.773438 211.945312 0.6875 C 205.203125 -1.339844 197.921875 1.183594 193.921875 6.929688 C 162.601562 51.902344 30.628906 244.453125 0.765625 338.011719 C -1.25 344.324219 0.789062 351.214844 5.96875 355.402344 C 47.460938 388.960938 234.339844 537.101562 315.753906 550.476562 L 478.765625 438.195312"/></clipPath><clipPath id="e"><path d="M 222 0 L 260 0 L 260 23 L 222 23 Z M 222 0"/></clipPath><clipPath id="f"><path d="M 478.765625 438.195312 C 478.765625 438.195312 553.640625 268.199219 573.226562 196.886719 C 575.054688 190.230469 572.421875 183.167969 566.652344 179.300781 C 526.238281 152.210938 362.046875 45.773438 211.945312 0.6875 C 205.203125 -1.339844 197.921875 1.183594 193.921875 6.929688 C 162.601562 51.902344 30.628906 244.453125 0.765625 338.011719 C -1.25 344.324219 0.789062 351.214844 5.96875 355.402344 C 47.460938 388.960938 234.339844 537.101562 315.753906 550.476562 L 478.765625 438.195312"/></clipPath><clipPath id="g"><path d="M 112 223 L 150 223 L 150 261 L 112 261 Z M 112 223"/></clipPath><clipPath id="h"><path d="M 478.765625 438.195312 C 478.765625 438.195312 553.640625 268.199219 573.226562 196.886719 C 575.054688 190.230469 572.421875 183.167969 566.652344 179.300781 C 526.238281 152.210938 362.046875 45.773438 211.945312 0.6875 C 205.203125 -1.339844 197.921875 1.183594 193.921875 6.929688 C 162.601562 51.902344 30.628906 244.453125 0.765625 338.011719 C -1.25 344.324219 0.789062 351.214844 5.96875 355.402344 C 47.460938 388.960938 234.339844 537.101562 315.753906 550.476562 L 478.765625 438.195312"/></clipPath><clipPath id="i"><path d="M 459 104 L 498 104 L 498 143 L 459 143 Z M 459 104"/></clipPath><clipPath id="j"><path d="M 478.765625 438.195312 C 478.765625 438.195312 553.640625 268.199219 573.226562 196.886719 C 575.054688 190.230469 572.421875 183.167969 566.652344 179.300781 C 526.238281 152.210938 362.046875 45.773438 211.945312 0.6875 C 205.203125 -1.339844 197.921875 1.183594 193.921875 6.929688 C 162.601562 51.902344 30.628906 244.453125 0.765625 338.011719 C -1.25 344.324219 0.789062 351.214844 5.96875 355.402344 C 47.460938 388.960938 234.339844 537.101562 315.753906 550.476562 L 478.765625 438.195312"/></clipPath><clipPath id="k"><path d="M 555 171 L 574 171 L 574 210 L 555 210 Z M 555 171"/></clipPath><clipPath id="l"><path d="M 478.765625 438.195312 C 478.765625 438.195312 553.640625 268.199219 573.226562 196.886719 C 575.054688 190.230469 572.421875 183.167969 566.652344 179.300781 C 526.238281 152.210938 362.046875 45.773438 211.945312 0.6875 C 205.203125 -1.339844 197.921875 1.183594 193.921875 6.929688 C 162.601562 51.902344 30.628906 244.453125 0.765625 338.011719 C -1.25 344.324219 0.789062 351.214844 5.96875 355.402344 C 47.460938 388.960938 234.339844 537.101562 315.753906 550.476562 L 478.765625 438.195312"/></clipPath><clipPath id="m"><path d="M 14 250 L 53 250 L 53 289 L 14 289 Z M 14 250"/></clipPath><clipPath id="n"><path d="M 478.765625 438.195312 C 478.765625 438.195312 553.640625 268.199219 573.226562 196.886719 C 575.054688 190.230469 572.421875 183.167969 566.652344 179.300781 C 526.238281 152.210938 362.046875 45.773438 211.945312 0.6875 C 205.203125 -1.339844 197.921875 1.183594 193.921875 6.929688 C 162.601562 51.902344 30.628906 244.453125 0.765625 338.011719 C -1.25 344.324219 0.789062 351.214844 5.96875 355.402344 C 47.460938 388.960938 234.339844 537.101562 315.753906 550.476562 L 478.765625 438.195312"/></clipPath><clipPath id="o"><path d="M 486 207 L 524 207 L 524 245 L 486 245 Z M 486 207"/></clipPath><clipPath id="p"><path d="M 478.765625 438.195312 C 478.765625 438.195312 553.640625 268.199219 573.226562 196.886719 C 575.054688 190.230469 572.421875 183.167969 566.652344 179.300781 C 526.238281 152.210938 362.046875 45.773438 211.945312 0.6875 C 205.203125 -1.339844 197.921875 1.183594 193.921875 6.929688 C 162.601562 51.902344 30.628906 244.453125 0.765625 338.011719 C -1.25 344.324219 0.789062 351.214844 5.96875 355.402344 C 47.460938 388.960938 234.339844 537.101562 315.753906 550.476562 L 478.765625 438.195312"/></clipPath><clipPath id="q"><path d="M 175 147 L 213 147 L 213 186 L 175 186 Z M 175 147"/></clipPath><clipPath id="r"><path d="M 478.765625 438.195312 C 478.765625 438.195312 553.640625 268.199219 573.226562 196.886719 C 575.054688 190.230469 572.421875 183.167969 566.652344 179.300781 C 526.238281 152.210938 362.046875 45.773438 211.945312 0.6875 C 205.203125 -1.339844 197.921875 1.183594 193.921875 6.929688 C 162.601562 51.902344 30.628906 244.453125 0.765625 338.011719 C -1.25 344.324219 0.789062 351.214844 5.96875 355.402344 C 47.460938 388.960938 234.339844 537.101562 315.753906 550.476562 L 478.765625 438.195312"/></clipPath><clipPath id="s"><path d="M 304 31 L 343 31 L 343 70 L 304 70 Z M 304 31"/></clipPath><clipPath id="t"><path d="M 478.765625 438.195312 C 478.765625 438.195312 553.640625 268.199219 573.226562 196.886719 C 575.054688 190.230469 572.421875 183.167969 566.652344 179.300781 C 526.238281 152.210938 362.046875 45.773438 211.945312 0.6875 C 205.203125 -1.339844 197.921875 1.183594 193.921875 6.929688 C 162.601562 51.902344 30.628906 244.453125 0.765625 338.011719 C -1.25 344.324219 0.789062 351.214844 5.96875 355.402344 C 47.460938 388.960938 234.339844 537.101562 315.753906 550.476562 L 478.765625 438.195312"/></clipPath><clipPath id="u"><path d="M 247 95 L 286 95 L 286 134 L 247 134 Z M 247 95"/></clipPath><clipPath id="v"><path d="M 478.765625 438.195312 C 478.765625 438.195312 553.640625 268.199219 573.226562 196.886719 C 575.054688 190.230469 572.421875 183.167969 566.652344 179.300781 C 526.238281 152.210938 362.046875 45.773438 211.945312 0.6875 C 205.203125 -1.339844 197.921875 1.183594 193.921875 6.929688 C 162.601562 51.902344 30.628906 244.453125 0.765625 338.011719 C -1.25 344.324219 0.789062 351.214844 5.96875 355.402344 C 47.460938 388.960938 234.339844 537.101562 315.753906 550.476562 L 478.765625 438.195312"/></clipPath><clipPath id="w"><path d="M 75 138 L 113 138 L 113 177 L 75 177 Z M 75 138"/></clipPath><clipPath id="x"><path d="M 478.765625 438.195312 C 478.765625 438.195312 553.640625 268.199219 573.226562 196.886719 C 575.054688 190.230469 572.421875 183.167969 566.652344 179.300781 C 526.238281 152.210938 362.046875 45.773438 211.945312 0.6875 C 205.203125 -1.339844 197.921875 1.183594 193.921875 6.929688 C 162.601562 51.902344 30.628906 244.453125 0.765625 338.011719 C -1.25 344.324219 0.789062 351.214844 5.96875 355.402344 C 47.460938 388.960938 234.339844 537.101562 315.753906 550.476562 L 478.765625 438.195312"/></clipPath><clipPath id="y"><path d="M 4 348 L 42 348 L 42 387 L 4 387 Z M 4 348"/></clipPath><clipPath id="z"><path d="M 478.765625 438.195312 C 478.765625 438.195312 553.640625 268.199219 573.226562 196.886719 C 575.054688 190.230469 572.421875 183.167969 566.652344 179.300781 C 526.238281 152.210938 362.046875 45.773438 211.945312 0.6875 C 205.203125 -1.339844 197.921875 1.183594 193.921875 6.929688 C 162.601562 51.902344 30.628906 244.453125 0.765625 338.011719 C -1.25 344.324219 0.789062 351.214844 5.96875 355.402344 C 47.460938 388.960938 234.339844 537.101562 315.753906 550.476562 L 478.765625 438.195312"/></clipPath><clipPath id="A"><path d="M 262 487 L 615.378906 487 L 615.378906 692 L 262 692 Z M 262 487"/></clipPath><clipPath id="B"><path d="M 49 109 L 612 109 L 612 693.390625 L 49 693.390625 Z M 49 109"/></clipPath><clipPath id="C"><path d="M 69 109 L 589 109 L 589 693.390625 L 69 693.390625 Z M 69 109"/></clipPath><clipPath id="D"><path d="M 393.355469 110.128906 C 353.566406 132.789062 135.210938 258.152344 52.230469 326.953125 C 49.417969 329.285156 48.492188 333.175781 49.929688 336.53125 C 66.171875 374.367188 162.472656 593.273438 257.210938 690.886719 C 259.925781 693.679688 264.214844 694.195312 267.515625 692.125 C 304.730469 668.734375 517.953125 535.355469 606.738281 493.355469 C 610.664062 491.496094 612.464844 486.929688 610.867188 482.894531 C 596.035156 445.390625 523.113281 269.0625 404.003906 112.296875 C 401.503906 109.007812 396.945312 108.085938 393.355469 110.128906"/></clipPath></defs><g><g id="change1_1"><path d="M 478.765625 438.195312 C 478.765625 438.195312 553.640625 268.199219 573.226562 196.886719 C 575.054688 190.230469 572.421875 183.167969 566.652344 179.300781 C 526.238281 152.210938 362.046875 45.773438 211.945312 0.6875 C 205.203125 -1.339844 197.921875 1.183594 193.921875 6.929688 C 162.601562 51.902344 30.628906 244.453125 0.765625 338.011719 C -1.25 344.324219 0.789062 351.214844 5.96875 355.402344 C 47.460938 388.960938 234.339844 537.101562 315.753906 550.476562 L 478.765625 438.195312" fill="#ffe275"/></g><g clip-path="url(#a)"><g clip-path="url(#b)" id="change2_1"><path d="M 50.339844 329.203125 C 48.71875 325.582031 47.390625 322.578125 46.367188 320.25 C 44.878906 316.863281 45.824219 312.941406 48.710938 310.59375 C 133.898438 241.382812 358.1875 115.421875 399.058594 92.652344 C 400.371094 91.921875 401.808594 91.570312 403.234375 91.570312 C 405.816406 91.570312 408.355469 92.722656 410.015625 94.863281 C 461.773438 161.597656 505.113281 231.824219 539.078125 293.574219 C 536.515625 300.101562 533.914062 306.65625 531.300781 313.175781 C 498.078125 251.03125 455.328125 179.851562 404.003906 112.296875 C 402.398438 110.183594 399.941406 109.046875 397.4375 109.046875 C 396.046875 109.046875 394.640625 109.398438 393.355469 110.128906 C 353.566406 132.789062 135.210938 258.152344 52.230469 326.953125 C 51.453125 327.597656 50.820312 328.363281 50.339844 329.203125" fill="#ffd162"/></g></g><g clip-path="url(#c)"><g clip-path="url(#d)" id="change3_3"><path d="M 188.507812 59.640625 C 189.625 49.335938 182.179688 40.078125 171.875 38.960938 C 161.574219 37.84375 152.316406 45.289062 151.195312 55.59375 C 150.078125 65.894531 157.523438 75.152344 167.828125 76.273438 C 178.132812 77.390625 187.390625 69.945312 188.507812 59.640625" fill="#ffd450"/></g></g><g clip-path="url(#e)"><g clip-path="url(#f)" id="change3_4"><path d="M 259.578125 5.578125 C 260.699219 -4.726562 253.25 -13.984375 242.949219 -15.101562 C 232.644531 -16.21875 223.386719 -8.773438 222.269531 1.527344 C 221.148438 11.832031 228.597656 21.089844 238.898438 22.210938 C 249.203125 23.328125 258.460938 15.882812 259.578125 5.578125" fill="#ffd450"/></g></g><g clip-path="url(#g)"><g clip-path="url(#h)" id="change3_2"><path d="M 132.980469 223.492188 C 122.675781 222.375 113.417969 229.820312 112.300781 240.125 C 111.179688 250.429688 118.628906 259.6875 128.929688 260.804688 C 139.234375 261.921875 148.492188 254.476562 149.609375 244.175781 C 150.730469 233.871094 143.28125 224.613281 132.980469 223.492188" fill="#ffd450"/></g></g><g clip-path="url(#i)"><g clip-path="url(#j)" id="change3_10"><path d="M 497.070312 125.722656 C 498.191406 115.417969 490.742188 106.160156 480.441406 105.042969 C 470.136719 103.925781 460.878906 111.371094 459.761719 121.675781 C 458.640625 131.976562 466.089844 141.234375 476.390625 142.355469 C 486.695312 143.472656 495.953125 136.023438 497.070312 125.722656" fill="#ffd450"/></g></g><g clip-path="url(#k)"><g clip-path="url(#l)" id="change3_5"><path d="M 576.125 172.050781 C 565.824219 170.933594 556.5625 178.378906 555.445312 188.683594 C 554.328125 198.984375 561.773438 208.242188 572.078125 209.363281 C 582.382812 210.480469 591.640625 203.03125 592.757812 192.730469 C 593.875 182.425781 586.429688 173.167969 576.125 172.050781" fill="#ffd450"/></g></g><g clip-path="url(#m)"><g clip-path="url(#n)" id="change3_6"><path d="M 35.652344 250.683594 C 25.347656 249.566406 16.089844 257.011719 14.972656 267.316406 C 13.855469 277.621094 21.300781 286.878906 31.605469 287.996094 C 41.90625 289.113281 51.164062 281.667969 52.285156 271.363281 C 53.402344 261.0625 45.957031 251.804688 35.652344 250.683594" fill="#ffd450"/></g></g><g clip-path="url(#o)"><g clip-path="url(#p)" id="change3_7"><path d="M 507.078125 207.457031 C 496.773438 206.339844 487.515625 213.785156 486.398438 224.089844 C 485.28125 234.390625 492.726562 243.652344 503.03125 244.769531 C 513.335938 245.886719 522.59375 238.441406 523.710938 228.136719 C 524.828125 217.835938 517.382812 208.574219 507.078125 207.457031" fill="#ffd450"/></g></g><g clip-path="url(#q)"><g clip-path="url(#r)" id="change3_1"><path d="M 196.082031 147.976562 C 185.78125 146.855469 176.519531 154.304688 175.402344 164.605469 C 174.285156 174.910156 181.730469 184.167969 192.035156 185.285156 C 202.339844 186.40625 211.597656 178.957031 212.714844 168.65625 C 213.832031 158.351562 206.386719 149.09375 196.082031 147.976562" fill="#ffd450"/></g></g><g clip-path="url(#s)"><g clip-path="url(#t)" id="change3_8"><path d="M 325.394531 31.59375 C 315.089844 30.476562 305.832031 37.921875 304.714844 48.226562 C 303.597656 58.527344 311.042969 67.785156 321.347656 68.90625 C 331.648438 70.023438 340.90625 62.578125 342.027344 52.273438 C 343.144531 41.96875 335.699219 32.710938 325.394531 31.59375" fill="#ffd450"/></g></g><g clip-path="url(#u)"><g clip-path="url(#v)" id="change3_9"><path d="M 268.667969 95.792969 C 258.363281 94.675781 249.105469 102.121094 247.984375 112.425781 C 246.867188 122.726562 254.316406 131.984375 264.617188 133.105469 C 274.921875 134.222656 284.179688 126.777344 285.296875 116.472656 C 286.414062 106.167969 278.96875 96.910156 268.667969 95.792969" fill="#ffd450"/></g></g><g clip-path="url(#w)"><g clip-path="url(#x)" id="change3_11"><path d="M 95.835938 138.816406 C 85.53125 137.695312 76.273438 145.144531 75.15625 155.445312 C 74.039062 165.75 81.484375 175.007812 91.789062 176.125 C 102.089844 177.242188 111.351562 169.796875 112.46875 159.492188 C 113.585938 149.191406 106.140625 139.933594 95.835938 138.816406" fill="#ffd450"/></g></g><g clip-path="url(#y)"><g clip-path="url(#z)" id="change3_12"><path d="M 24.980469 349.050781 C 14.675781 347.933594 5.417969 355.378906 4.300781 365.683594 C 3.179688 375.984375 10.628906 385.246094 20.929688 386.363281 C 31.234375 387.480469 40.492188 380.035156 41.609375 369.730469 C 42.730469 359.429688 35.28125 350.167969 24.980469 349.050781" fill="#ffd450"/></g></g><g clip-path="url(#A)" id="change4_1"><path d="M 262.660156 688.855469 C 265.386719 710.15625 511.121094 599.664062 604.179688 565.070312 C 610.78125 562.617188 615.609375 556.902344 615.378906 549.867188 C 614.9375 536.480469 610.269531 513.554688 588.242188 487.382812 L 388.398438 573.804688 L 291.148438 631.890625 L 269.957031 669.058594 L 262.660156 688.855469" fill="#afd898"/></g><g clip-path="url(#B)" id="change5_1"><path d="M 393.355469 110.128906 C 353.566406 132.789062 135.210938 258.152344 52.230469 326.953125 C 49.417969 329.285156 48.492188 333.175781 49.929688 336.53125 C 66.171875 374.367188 162.472656 593.273438 257.210938 690.886719 C 259.925781 693.679688 264.214844 694.195312 267.515625 692.125 C 304.730469 668.734375 517.953125 535.355469 606.738281 493.355469 C 610.664062 491.496094 612.464844 486.929688 610.867188 482.894531 C 596.035156 445.390625 523.113281 269.0625 404.003906 112.296875 C 401.503906 109.007812 396.945312 108.085938 393.355469 110.128906" fill="#ceedbc"/></g><g clip-path="url(#C)"><g clip-path="url(#D)" id="change6_1"><path d="M 263.128906 693.390625 C 260.960938 693.390625 258.8125 692.53125 257.210938 690.886719 C 256.941406 690.605469 256.671875 690.328125 256.402344 690.046875 C 266.210938 674.339844 276.019531 658.632812 285.828125 642.925781 C 285.667969 642.832031 285.507812 642.742188 285.347656 642.648438 C 261.066406 628.671875 236.78125 614.691406 212.5 600.710938 C 208.523438 607.078125 204.550781 613.441406 200.574219 619.804688 C 198.585938 616.90625 196.601562 613.976562 194.628906 611.023438 C 197.78125 605.972656 200.9375 600.921875 204.089844 595.871094 C 198.394531 592.59375 192.695312 589.3125 186.996094 586.03125 C 182.554688 583.472656 178.117188 580.917969 173.675781 578.363281 C 170.164062 572.671875 166.691406 566.933594 163.257812 561.164062 C 176.78125 568.949219 190.308594 576.734375 203.832031 584.523438 C 205.632812 585.558594 207.433594 586.597656 209.238281 587.632812 C 221.671875 567.722656 234.109375 547.808594 246.546875 527.898438 C 249.390625 523.34375 252.234375 518.789062 255.078125 514.234375 C 244.238281 507.992188 233.398438 501.753906 222.554688 495.511719 C 208.050781 487.160156 193.546875 478.8125 179.039062 470.460938 C 178.289062 471.660156 177.542969 472.859375 176.792969 474.058594 C 165.742188 491.753906 154.691406 509.445312 143.640625 527.140625 C 141.832031 523.910156 140.035156 520.671875 138.261719 517.449219 C 149.050781 500.175781 159.839844 482.898438 170.632812 465.621094 C 154.992188 456.617188 139.355469 447.617188 123.71875 438.613281 C 114.421875 433.261719 105.121094 427.90625 95.824219 422.554688 C 94.648438 424.570312 93.472656 426.585938 92.304688 428.601562 C 90.558594 425.027344 88.859375 421.511719 87.199219 418.0625 C 87.269531 417.945312 87.335938 417.828125 87.40625 417.710938 C 87.230469 417.609375 87.058594 417.507812 86.882812 417.40625 C 84.328125 412.097656 81.875 406.9375 79.53125 401.972656 C 83.792969 404.429688 88.058594 406.882812 92.324219 409.339844 C 97.097656 401.226562 101.898438 393.128906 106.761719 385.070312 C 114.367188 372.449219 122.09375 359.898438 129.910156 347.402344 C 109.933594 335.90625 89.960938 324.40625 69.984375 312.90625 C 72.714844 310.828125 75.535156 308.714844 78.433594 306.570312 C 97.3125 317.4375 116.1875 328.304688 135.0625 339.171875 C 148.46875 317.90625 162.175781 296.835938 176.171875 275.953125 C 166.476562 270.375 156.785156 264.796875 147.09375 259.214844 C 150.109375 257.238281 153.152344 255.25 156.214844 253.265625 C 164.679688 258.136719 173.144531 263.011719 181.609375 267.886719 C 182.820312 266.09375 184.019531 264.296875 185.234375 262.507812 C 196.480469 245.945312 207.921875 229.511719 219.539062 213.199219 C 226.65625 208.796875 233.757812 204.4375 240.796875 200.132812 C 240.160156 201.015625 239.523438 201.894531 238.886719 202.773438 C 249.351562 208.683594 259.816406 214.59375 270.277344 220.503906 C 283.445312 227.941406 296.613281 235.378906 309.785156 242.816406 C 321.203125 224.535156 332.621094 206.253906 344.039062 187.96875 C 346.925781 183.34375 349.816406 178.722656 352.703125 174.097656 C 347.789062 171.320312 342.875 168.546875 337.960938 165.769531 C 331.117188 161.90625 324.273438 158.042969 317.429688 154.175781 C 320.722656 152.234375 323.941406 150.34375 327.097656 148.488281 C 336.09375 153.566406 345.089844 158.648438 354.082031 163.726562 C 355.339844 164.4375 356.59375 165.148438 357.851562 165.855469 C 369.320312 147.488281 380.796875 129.117188 392.265625 110.75 C 392.644531 110.535156 393.007812 110.328125 393.355469 110.128906 C 394.640625 109.398438 396.046875 109.046875 397.4375 109.046875 C 399.582031 109.046875 401.691406 109.882812 403.261719 111.449219 C 402.773438 112.234375 402.28125 113.019531 401.789062 113.804688 C 389.960938 132.746094 378.132812 151.6875 366.300781 170.628906 C 391.773438 185.015625 417.25 199.402344 442.722656 213.789062 C 447.84375 205.585938 452.96875 197.382812 458.09375 189.179688 C 460.050781 192.179688 461.988281 195.167969 463.914062 198.160156 C 459.667969 204.960938 455.421875 211.761719 451.171875 218.5625 C 464.207031 225.921875 477.238281 233.28125 490.269531 240.644531 C 493.628906 246.253906 496.925781 251.832031 500.152344 257.375 C 482.109375 247.183594 464.066406 236.992188 446.023438 226.804688 C 436.371094 242.257812 426.722656 257.714844 417.066406 273.167969 C 412.414062 280.621094 407.761719 288.070312 403.105469 295.523438 C 420.539062 305.367188 437.972656 315.214844 455.40625 325.0625 C 462.539062 329.089844 469.671875 333.117188 476.804688 337.148438 C 478.324219 334.714844 479.84375 332.28125 481.363281 329.847656 C 491.847656 313.0625 502.335938 296.273438 512.816406 279.484375 C 514.640625 282.722656 516.441406 285.945312 518.214844 289.148438 C 507.230469 306.738281 496.242188 324.328125 485.257812 341.921875 C 506.160156 353.726562 527.066406 365.53125 547.96875 377.339844 C 552.902344 380.125 557.839844 382.910156 562.773438 385.699219 C 563.761719 384.117188 564.75 382.535156 565.738281 380.953125 C 569.765625 389.304688 573.554688 397.320312 577.09375 404.9375 C 573.421875 402.863281 569.746094 400.785156 566.074219 398.714844 C 552.21875 420.902344 538.359375 443.089844 524.503906 465.277344 C 545.90625 477.601562 567.3125 489.925781 588.71875 502.246094 C 585.40625 503.9375 581.992188 505.703125 578.472656 507.550781 C 558.765625 496.203125 539.058594 484.859375 519.355469 473.519531 C 519.058594 473.992188 518.761719 474.472656 518.464844 474.945312 C 505.457031 495.773438 492.449219 516.597656 479.445312 537.421875 C 486.847656 541.683594 494.253906 545.949219 501.65625 550.210938 C 498.445312 552.0625 495.203125 553.941406 491.953125 555.824219 C 486.070312 552.4375 480.183594 549.050781 474.296875 545.660156 C 470.226562 552.183594 466.152344 558.707031 462.078125 565.230469 C 459.40625 569.507812 456.734375 573.785156 454.0625 578.0625 C 447.988281 581.660156 441.921875 585.269531 435.875 588.882812 C 444.152344 575.625 452.433594 562.367188 460.710938 549.113281 C 462.4375 546.347656 464.164062 543.585938 465.890625 540.820312 C 461.648438 538.378906 457.40625 535.9375 453.164062 533.496094 C 431.695312 521.136719 410.230469 508.777344 388.761719 496.421875 C 382.585938 506.3125 376.40625 516.203125 370.230469 526.09375 C 363.609375 536.691406 356.992188 547.292969 350.371094 557.890625 C 373.699219 571.320312 397.023438 584.75 420.351562 598.179688 C 417.167969 600.089844 413.996094 602 410.839844 603.902344 C 388.96875 591.3125 367.097656 578.71875 345.226562 566.128906 C 334.855469 582.734375 324.488281 599.335938 314.117188 615.9375 C 309.207031 623.800781 304.296875 631.664062 299.382812 639.527344 C 300.316406 640.066406 301.25 640.605469 302.183594 641.140625 C 310.359375 645.847656 318.539062 650.554688 326.714844 655.261719 C 323.496094 657.25 320.371094 659.183594 317.335938 661.0625 C 309.636719 656.632812 301.9375 652.199219 294.238281 647.765625 C 284.855469 662.789062 275.472656 677.816406 266.089844 692.839844 C 265.132812 693.207031 264.128906 693.390625 263.128906 693.390625 M 263.488281 519.074219 C 258.386719 527.242188 253.285156 535.410156 248.183594 543.578125 C 238.003906 559.878906 227.824219 576.175781 217.644531 592.472656 C 242.089844 606.546875 266.53125 620.617188 290.976562 634.6875 C 298.144531 623.210938 305.3125 611.734375 312.480469 600.257812 C 320.59375 587.269531 328.703125 574.277344 336.816406 561.289062 C 331.515625 558.234375 326.210938 555.183594 320.90625 552.132812 C 301.769531 541.113281 282.628906 530.09375 263.488281 519.074219 M 307.023438 449.363281 C 306.113281 450.820312 305.203125 452.277344 304.296875 453.734375 C 292.40625 472.769531 280.519531 491.800781 268.632812 510.835938 C 291.671875 524.097656 314.707031 537.359375 337.742188 550.621094 C 339.152344 551.429688 340.558594 552.242188 341.964844 553.050781 C 350.929688 538.691406 359.898438 524.335938 368.863281 509.976562 C 372.695312 503.84375 376.523438 497.710938 380.355469 491.578125 C 371.839844 486.679688 363.328125 481.777344 354.8125 476.875 C 338.882812 467.707031 322.953125 458.535156 307.023438 449.363281 M 433.820312 424.277344 C 431.417969 428.121094 429.019531 431.964844 426.617188 435.8125 C 415.714844 453.269531 404.8125 470.726562 393.90625 488.183594 C 419.433594 502.875 444.960938 517.570312 470.484375 532.265625 C 470.667969 532.371094 470.851562 532.476562 471.035156 532.582031 C 484.339844 511.28125 497.644531 489.980469 510.949219 468.675781 C 509.023438 467.570312 507.097656 466.460938 505.171875 465.351562 C 481.386719 451.660156 457.605469 437.96875 433.820312 424.277344 M 222.578125 400.75 C 209.78125 421.242188 196.984375 441.730469 184.183594 462.222656 C 202.589844 472.816406 220.988281 483.410156 239.390625 494.003906 C 246.335938 498 253.28125 501.996094 260.222656 505.996094 C 273.019531 485.503906 285.820312 465.015625 298.617188 444.523438 C 284.5625 436.4375 270.511719 428.347656 256.460938 420.257812 C 245.164062 413.753906 233.871094 407.253906 222.578125 400.75 M 352.082031 377.222656 C 338.777344 398.523438 325.472656 419.824219 312.167969 441.128906 C 331.996094 452.539062 351.820312 463.953125 371.648438 475.367188 C 376.265625 478.027344 380.882812 480.683594 385.5 483.339844 C 398.75 462.125 412 440.910156 425.253906 419.691406 L 425.410156 419.4375 C 419.214844 415.867188 413.019531 412.300781 406.820312 408.734375 C 388.574219 398.230469 370.328125 387.726562 352.082031 377.222656 M 480.109375 350.160156 C 466.394531 372.121094 452.679688 394.078125 438.964844 416.039062 C 464.675781 430.839844 490.382812 445.636719 516.09375 460.4375 C 516.429688 459.902344 516.761719 459.363281 517.097656 458.828125 C 530.605469 437.199219 544.117188 415.570312 557.625 393.941406 C 549.03125 389.089844 540.4375 384.234375 531.847656 379.382812 C 514.601562 369.640625 497.355469 359.902344 480.109375 350.160156 M 138.308594 352.238281 C 125.503906 372.714844 112.972656 393.363281 100.722656 414.175781 C 114.160156 421.910156 127.601562 429.648438 141.039062 437.382812 C 152.617188 444.050781 164.199219 450.714844 175.777344 457.382812 C 188.574219 436.890625 201.371094 416.402344 214.167969 395.910156 C 195.320312 385.058594 176.472656 374.210938 157.625 363.359375 C 151.1875 359.652344 144.746094 355.945312 138.308594 352.238281 M 267.636719 328.605469 C 256.058594 347.144531 244.480469 365.679688 232.90625 384.214844 C 231.179688 386.980469 229.449219 389.746094 227.722656 392.511719 C 242.914062 401.257812 258.105469 410.003906 273.296875 418.746094 C 283.449219 424.59375 293.605469 430.441406 303.761719 436.285156 C 317.066406 414.984375 330.367188 393.683594 343.671875 372.382812 C 331.9375 365.625 320.203125 358.871094 308.46875 352.113281 C 294.855469 344.277344 281.246094 336.441406 267.636719 328.605469 M 397.960938 303.765625 C 385.53125 323.660156 373.109375 343.554688 360.683594 363.449219 C 359.53125 365.296875 358.378906 367.140625 357.226562 368.984375 C 379.371094 381.730469 401.511719 394.476562 423.65625 407.226562 C 425.957031 408.550781 428.257812 409.871094 430.558594 411.199219 C 444.257812 389.261719 457.957031 367.324219 471.660156 345.390625 C 460.867188 339.292969 450.074219 333.199219 439.28125 327.105469 C 425.507812 319.324219 411.734375 311.546875 397.960938 303.765625 M 184.582031 280.796875 C 172.390625 298.992188 160.40625 317.328125 148.65625 335.816406 C 146.921875 338.542969 145.207031 341.285156 143.484375 344.019531 C 153.96875 350.054688 164.457031 356.09375 174.945312 362.128906 C 189.734375 370.644531 204.523438 379.15625 219.3125 387.671875 C 223.390625 381.144531 227.464844 374.621094 231.539062 368.097656 C 240.769531 353.320312 249.996094 338.542969 259.226562 323.765625 C 242.695312 314.25 226.164062 304.734375 209.632812 295.214844 C 201.28125 290.410156 192.933594 285.601562 184.582031 280.796875 M 313.085938 255.832031 C 305.15625 268.53125 297.222656 281.230469 289.292969 293.933594 C 283.789062 302.742188 278.285156 311.554688 272.78125 320.367188 C 290.289062 330.449219 307.796875 340.527344 325.304688 350.605469 C 333.144531 355.117188 340.980469 359.628906 348.820312 364.140625 C 352.316406 358.539062 355.816406 352.9375 359.316406 347.332031 C 369.382812 331.21875 379.445312 315.105469 389.507812 298.992188 C 375.246094 290.9375 360.980469 282.882812 346.71875 274.824219 C 335.507812 268.496094 324.296875 262.164062 313.085938 255.832031 M 233.183594 210.703125 C 232.046875 212.285156 230.898438 213.863281 229.765625 215.449219 C 216.265625 234.367188 203.015625 253.460938 190.011719 272.71875 C 202.324219 279.808594 214.636719 286.898438 226.953125 293.988281 C 239.425781 301.167969 251.898438 308.347656 264.371094 315.527344 C 272.222656 302.957031 280.074219 290.386719 287.925781 277.8125 C 293.496094 268.894531 299.066406 259.976562 304.636719 251.058594 C 287.808594 241.554688 270.984375 232.050781 254.15625 222.550781 C 247.164062 218.601562 240.171875 214.652344 233.183594 210.703125 M 361.152344 178.871094 C 355.996094 187.128906 350.835938 195.390625 345.679688 203.648438 C 336.53125 218.296875 327.382812 232.941406 318.234375 247.589844 C 333.105469 255.988281 347.972656 264.386719 362.84375 272.78125 C 373.445312 278.773438 384.050781 284.761719 394.65625 290.75 C 401.582031 279.664062 408.503906 268.574219 415.429688 257.488281 C 422.8125 245.671875 430.191406 233.851562 437.574219 222.03125 C 435.222656 220.703125 432.875 219.378906 430.523438 218.050781 C 407.402344 204.988281 384.277344 191.929688 361.152344 178.871094" fill="#b8dea3"/></g></g></g></svg>