<?xml version="1.0" encoding="UTF-8" standalone="no"?><svg xmlns="http://www.w3.org/2000/svg" xmlns:xlink="http://www.w3.org/1999/xlink" fill="#ffffff" height="479.4" preserveAspectRatio="xMidYMid meet" version="1" viewBox="0.1 -0.1 240.1 479.4" width="240.1" zoomAndPan="magnify"><g><path d="M107.5,87.1c0,0.1,0.1,0,0.2-0.1C107.6,87,107.6,87,107.5,87.1z" fill="none"/><path d="M106.8,72.4c0,4.4,0,8.7,0,13.1c0.2,0.2,0.3,0.4,0.5,0.7c0.1,0.3,0.4,0.6,0.4,0.7c0.2-0.2,0.4-0.6,0.6-0.9 c0,0.1,0,0.1,0.1,0.2c0.5-4.6,0.9-9.2,1.4-13.9C109.1,73.1,107.7,73.2,106.8,72.4z" fill="none"/><path d="M106.8,88.2c0,4.7,0,9.3,0,14c0.4-3.6,0.7-7.3,1.1-10.9c0.1-1,0.2-2.1,0.3-3.1 C107.9,88.4,107.4,88.5,106.8,88.2z" fill="none"/><path d="M106.6,57c0,4.2,0.1,8.5,0.1,12.8c1,1.2,1.8,2.2,3.2,1.3c0.5-4.5,0.9-9,1.4-13.5C110,59.3,107.8,58.8,106.6,57 z" fill="none"/><path d="M106.2,268.2c0.2,0,0.5,0,0.7,0.1c0.4,0.1,0.7,0.2,1.1,0.3c0.2,0.1,0.3,0.1,0.5,0.2c0.2,0,0.4,0.1,0.7,0.1 c-0.2-0.1-0.4-0.2-0.5-0.4c-0.2-0.1-0.1-0.4,0.2-0.4c0.5,0.1,1,0.3,1.4,0.4c0.3,0.1,0.5,0.2,0.8,0.3c0.4-0.1,0.9-0.2,1.3-0.2 c0.3,0,0.5,0,0.8,0.1c0.2,0,0.6,0.1,0.7,0.3c0,0,0.1,0,0.1,0.1c0.2,0.1,0.1,0.4-0.1,0.4c0,0-0.1,0-0.1,0c-0.1,0.1-0.3,0.1-0.5,0.1 c0.1,0,0.3,0.1,0.4,0.1c0.1-0.1,0.3-0.1,0.4-0.1c0.3-0.1,0.7-0.1,1.1-0.1c0.3,0,0.7,0.1,1,0.1c0.3,0.1,0.6,0.2,0.9,0.3 c0.2,0.1,0.1,0.4-0.1,0.5c-0.1,0-0.2,0-0.3,0c0.7,0.2,1.5,0.5,2.2,0.8c0.2,0,0.4,0,0.7,0c0.3,0,0.7,0.1,1,0.1 c0.6,0.1,1.3,0.3,1.9,0.6c0.1,0.1,0.1,0.3-0.1,0.3c-0.5,0-1,0-1.5,0.1c0.2,0.2,0.5,0.3,0.7,0.5c0,0,0.1-0.1,0.1-0.1 c0.2-0.1,0.5,0,0.7,0c0.2,0,0.3,0.1,0.5,0.1c0.3,0.1,0.6,0.2,0.9,0.3c0.6,0.2,1.2,0.4,1.8,0.7c0.3,0.1,0.1,0.7-0.2,0.6 c-0.6-0.2-1.2-0.3-1.7-0.4c-0.1,0-0.2,0-0.3,0c0.5,0.4,0.9,0.7,1.4,1.1c0.1,0,0.2,0.1,0.3,0.1c0.5,0.2,1.1,0.4,1.6,0.6 c0.5,0.2,1,0.3,1.5,0.6c0.5,0.2,1,0.5,1.4,0.9c0.1,0.1,0.1,0.4-0.1,0.3c-0.5-0.2-1-0.4-1.5-0.5c-0.3-0.1-0.7-0.2-1-0.2 c0.1,0,0.1,0.1,0.2,0.1c0.1,0.1,0.2,0.1,0.3,0.2c0.2,0,0.3,0,0.5,0.1c0.1,0,0.2,0.1,0.3,0.1c0.2,0.1,0.4,0.2,0.6,0.2 c0.4,0.2,0.8,0.4,1.2,0.6c0.4,0.2,0.8,0.4,1.2,0.7c0.4,0.3,0.8,0.5,1.2,0.7c0.2,0.1,0,0.3-0.1,0.3c-0.2-0.1-0.4-0.2-0.6-0.3 c-0.2-0.1-0.4-0.1-0.7-0.2c-0.3-0.1-0.5-0.1-0.8-0.2c0.4,0.3,0.7,0.6,1.1,1c0.2,0.1,0.4,0.2,0.5,0.3c0.3,0.2,0.5,0.3,0.7,0.5 c0.3,0.2,0.5,0.4,0.7,0.6c0.2,0.2,0.4,0.4,0.6,0.6c0.2,0.2,0,0.4-0.2,0.3c-0.2-0.1-0.4-0.2-0.6-0.3c1.5,2,2.6,4.1,3.5,6.4 c0-0.5,0-0.9,0-1.4c0-2.2,0.2-4.4,0.3-6.6c0.1-3.6,0.2-7.1,0.4-10.7c0-0.3-0.1-0.6-0.2-0.8c-0.2-0.1-0.3-0.3-0.4-0.5 c-2.6-6.4-4.7-13.1-7.2-19.6c-2.7-7-5.5-13.9-8.4-20.8c-2.6-6-5.6-11.9-7.3-18.1c-1.6-5.6-2.6-11.1-6.7-15.3 C106.8,219.9,106.8,246.5,106.2,268.2z" fill="none"/><path d="M113.2,42.2c0.5-4.3,1.1-8.6,1.7-12.9c-2.2,3.2-5.9,5.3-8.8,2.4c0.1,3.1,0.2,6.4,0.2,9.7 C109,44.6,110.7,45.6,113.2,42.2z" fill="none"/><path d="M81.2,277.9c-0.4,1.3-1.2,2.6-2.2,3.4c-0.5,1-0.6,2.4-0.8,3.4c-0.3,1.4-0.5,2.8-0.7,4.3 c-0.5,2.9-0.9,5.8-1.4,8.8c-0.5,2.7-1,5.6-1.8,8.2c-0.2,0.6-0.6,1.2-1.1,1.6c0.1,0.1,0.3,0.2,0.4,0.4c0.4,0.4,0.7,0.7,1.1,1.1 c0.7,0.8,1.4,1.5,2.1,2.3c0,0,0.1,0.1,0.1,0.1c-1.6-6-0.2-13,1.3-18.8c1.1-4.6,2.5-8.7,5.1-12.1c-0.1,0-0.1,0.1-0.2,0.1 c-0.1,0-0.1,0-0.2,0.1c-0.1,0.1-0.3,0.1-0.3-0.1c0-0.1,0-0.3,0-0.4c0-0.2,0.1-0.3,0.2-0.4c0.1-0.1,0.3-0.2,0.4-0.3c-0.1,0,0,0,0,0 c0,0,0.1-0.1,0.2-0.1c0.1,0,0.1-0.1,0.2-0.1c0.4-0.2,0.7-0.3,1.1-0.4c0,0,0.1,0,0.1,0c0.2-0.2,0.4-0.4,0.6-0.6c0,0,0,0-0.1,0 c-0.3,0.1-0.6-0.3-0.3-0.5c0.2-0.2,0.5-0.3,0.7-0.5c0.2-0.2,0.5-0.3,0.7-0.4c0.1,0,0.1,0,0.2-0.1c0,0,0,0,0,0c0,0,0.1,0,0.1-0.1 c0.1-0.1,0.2-0.1,0.3-0.2c0.1,0,0.2-0.1,0.3-0.1c0.1-0.1,0.2-0.1,0.3-0.2c-0.3,0-0.4-0.4-0.2-0.5c0.3-0.2,0.5-0.3,0.8-0.4 c0.3-0.1,0.5-0.2,0.8-0.3c0.2,0,0.3-0.1,0.5-0.1c0.2-0.1,0.4-0.3,0.6-0.4c-0.2,0-0.3-0.1-0.5,0c-0.1,0-0.2-0.1-0.1-0.2 c0.2-0.1,0.3-0.2,0.4-0.3c0.1-0.1,0.3-0.2,0.5-0.2c0.4-0.1,0.7-0.2,1.1-0.2c0.1,0,0.2,0,0.3,0c0.7-0.4,1.4-0.8,2.1-1.1 c0,0-0.1,0-0.1,0c-0.3,0-0.6,0.1-1,0.2c0,0,0,0,0,0c0,0,0,0,0,0c-0.1,0-0.1-0.1-0.1-0.1c0,0-0.1,0-0.1-0.1c0,0,0,0,0,0 c0,0,0-0.1,0-0.1c0.3-0.2,0.6-0.3,0.9-0.5c0.3-0.2,0.6-0.3,1-0.4c0.3-0.1,0.6-0.2,1-0.3c0.2-0.1,0.3-0.1,0.5-0.2 c0.2-0.1,0.4-0.1,0.6-0.1c0,0,0,0,0,0c-0.1,0-0.2-0.2-0.1-0.2c0.2-0.2,0.5-0.4,0.8-0.5c0.3-0.1,0.6-0.2,0.9-0.2 c0.3-0.1,0.6-0.1,1-0.1c0.2,0,0.5,0.1,0.7,0.1c0.4-0.1,0.9-0.3,1.3-0.4c-0.1,0-0.3,0-0.4,0c-0.1,0-0.3-0.1-0.4-0.1 c-0.1,0-0.1-0.2,0-0.3c0.1,0,0.3-0.1,0.4-0.1c0.1,0,0.3,0,0.4,0c0.1,0,0.2-0.1,0.4-0.1c0.1,0,0.3,0,0.5,0.1c0.1,0,0.2,0,0.3,0 c0.1,0,0.3,0,0.4,0c0.1,0,0.2,0,0.3,0c0.3-0.1,0.6-0.1,0.9-0.2c0.5-0.1,0.9-0.1,1.4-0.2c-0.2,0-0.5-0.1-0.7-0.1 c-0.2,0-0.3-0.4-0.1-0.5c0.3-0.1,0.6-0.1,0.9-0.1c-0.5-16.9-0.6-37-0.6-56.9c-2.6,5.7-5.5,11.2-8.2,16.8 c-2.8,5.9-4.2,12.3-6.2,18.5c-0.4,1.3-0.9,2.7-1.4,4c0.6-1.4,1.2-2.9,1.8-4.3c0-0.1,0.1,0,0.1,0c-2.2,7.1-4.4,14.3-6.7,21.4 C83.3,271.1,82.3,274.6,81.2,277.9z" fill="none"/><path d="M107.3,45c-0.3-0.3-0.6-0.6-0.8-0.9c0.1,3.5,0.1,7.1,0.2,10.8c0.9,0.9,1.6,1.8,2.4,2.1 c0.9,0.4,1.7-0.2,2.6-0.8c0.4-3.9,0.9-7.8,1.4-11.7C111.6,46.1,109.5,46.9,107.3,45z" fill="none"/><path d="M105.3,40C105.4,40,105.4,40.1,105.3,40c0.1-2.6,0.2-5.2,0.2-7.7c-1.4,2-3.5,3.6-5,1.4c1,3.3,1.8,6.6,2.4,10 C105.1,44.6,105.1,41.8,105.3,40z" fill="none"/><path d="M105.3,44.2c-0.7,0.5-1.5,0.6-2.3,0c1.1,6.2,1.6,12.6,2.1,18.9C105.1,56.7,105.2,50.3,105.3,44.2z" fill="none"/><g id="change1_1"><path d="M96.8,271c0.1,0,0.1,0.1,0.2,0.1c0.1,0,0.2-0.1,0.3-0.1C97.2,271,97,271,96.8,271z" fill="#ad2727"/></g><g id="change2_1"><path d="M230.9,405.1c-4.2-6.5-8.6-12.8-13.2-19.1c-4.8-6.6-9.7-13-14.6-19.5c-4-5.3-7.8-11.5-12.6-16.3c-2.3-4.6-7.2-7.2-11.6-9.6 c-2.9-1.6-5.7-3.3-8.5-5c-1.8-1.1-4.1-2.1-6.2-2c-3.7-0.9-7.4-1.6-11.2-2.1c-2.3-0.3-4.5-0.6-6.8-0.9c-0.8-0.1-1.6-0.2-2.5-0.4 c1.2-0.2,2.4-0.4,3.5-0.6c2.2-0.3,4.3-0.6,6.5-0.9c2.2-0.3,6.7-0.8,7.4-3.4c0.1-0.1,0.2-0.1,0.2-0.2c1.9-3.3,2.2-7,2.5-10.7 c0.3-4.6,0.6-9.1,0.9-13.7c0.4-6.9,1.6-15.2-1.9-21.5c-6.4-11.7-12.2-23.6-19-35.1c-3.4-5.7-7-11.3-9.9-17.3 c-3.9-8-7.5-16-12.4-23.5c-0.1-0.2-0.4,0-0.3,0.2c4.1,8.1,7.3,16.8,11.2,25c2.8,5.9,6.2,11.3,9.4,16.9c2.9,5,5.8,10.1,8.5,15.3 c3.6,7,6.5,14.3,10.8,20.9c0,0,0,0,0.1,0.1c0.2,1,0.4,2,0.5,3c-0.2,2.8-0.9,5.5-1.5,8.1c-0.9,3.6-2,7.1-3.2,10.7 c-1.1,3.5-2.3,7.1-3.3,10.6c-0.5,1.7-1.5,4-1,5.9c-1.5-0.2-3.2,0.5-4.6,1c-2,0.8-3.8,1.9-5.7,3c-2.2,1.2-4.8,2-7.2,2.9 c-1.1,0.4-2.2,0.8-3.3,1.3c-0.1,0-0.2,0.1-0.3,0.1c0.1-0.2,0.3-0.3,0.4-0.5c1.2-1.3,2.2-2.7,3.3-4.1c2.1-2.9,4-6,5.7-9.2 c1.7-3.2,2.6-6.6,2.4-10.3c-0.1-1.4-0.2-2.7-0.4-4.1c0-0.1,0-0.1,0-0.2c-0.6-6.8-1.5-13.6-2.4-20.4c-0.4-3-0.7-6-1.1-9 c-0.3-2.1-0.9-4.1-2.1-5.8c-1.9-6.1-4.4-12.1-6.6-18c-2.6-6.7-5.4-13.4-8.2-20c-3-7-5.9-13.8-8.1-21.1c-1.4-4.4-3.4-9.2-7.6-11.6 c0-15.6-0.1-30.5,0-43.1c0-10.3,0-22.3,0-35c0.4-8.2,1-16.5,1.8-24.7c3.2-30.5,8.2-60.8,11.4-91.3c-1.8,8.9-3.4,18.2-4.7,27.7 c-2.5,2.7-6,5.6-8.6,1.8c0,0-0.2-0.3-0.5-0.6c-0.1-1.9-0.1-3.9-0.2-5.7c-0.1,1.7-0.1,3.5-0.2,5.2c0-0.1-0.1-0.1-0.1-0.1 c-0.9,2-2.2,7.5-5.1,5.3c-0.7-2.4-1.6-4.8-2.6-7.2c7,22.6,5.8,47.7,6.9,71.5c0.1,2.2,0.1,4.3,0.1,6.5c0,16.9,0.1,33.2,0,46.7 c0.1,16.8,0,38,0,59.4c-3.3,5.5-6.4,11.2-9.3,16.9c-2.8,5.4-4.2,11.2-6,16.9c-2.1,6.5-4.5,12.8-7.3,19c-2.3,5.2-5.3,10.1-7.5,15.3 c-2.5,1-3.5,4.5-4.3,6.8c-1.2,3.5-2.5,7.1-3.6,10.7c-0.6,1.9-1.1,3.8-1.7,5.7c-0.3,0.9-0.6,1.8-0.8,2.7c-0.3,0.8-0.7,1.7-0.8,2.6 c0,0.2,0,0.4,0,0.6c-0.2,0.4-0.3,0.8-0.3,1.2c0,0.7,0.2,1.5,0.5,2.2c0.2,0.6,0.6,1.1,0.9,1.7c-0.4-0.5-0.8-0.9-1.2-1.3 c-2-2.1-4.3-4-6.5-5.9c-4.7-4.2-9.3-8.6-13.5-13.4c0-0.1,0.1-0.1,0.1-0.2c2.5-11.1,6.8-21.3,11.2-31.8c2.9-6.9,5.6-13.8,7.7-20.9 c1.8-6,3-12.1,4.3-18.2c0.1-0.3-0.3-0.4-0.4-0.1c-3.4,12.5-7.8,24.8-12.8,36.7c-0.1,0-0.3,0-0.4,0.2c-0.4,1.3-0.8,2.5-1.3,3.8 c-2.3,5.3-4.7,10.7-6.7,16.2c-0.2,0.4-0.3,0.7-0.5,1.1c-1.6,3.1-2.8,6.4-3.8,9.7c-0.4,1.3-0.7,2.7-0.3,3.9c0,0,0,0,0,0 c1.8,6.3,5.3,11.5,9.1,16.8c1.9,2.7,3.8,5.3,5.4,8.1c1.5,2.5,3,5.1,5.6,6.6c0.3,0.2,0.7,0.2,0.9,0.1c0.5,0.5,1.2,1,1.8,1.3 c1.3,0.8,2.6,1.5,3.9,2.2c1.3,0.7,2.7,1.4,4,2.1c0.6,0.3,1.3,0.6,1.9,0.9c-1.3-0.2-2.6-0.4-3.9-0.5c-2.1-0.2-4.2-0.2-6.3-0.2 c-2,0-4,0.1-6,0.4c-1.4,0.2-2.9,0.5-4.1,1.3c-0.7,0.1-1.3,0.2-1.9,0.4c-3.2,1-6.3,2.7-9.1,4.5c-3.2,1.9-6.2,4-9.2,6.1 c-0.9,0.7-2,1.4-2.9,2.3c-0.3,0-0.6,0.2-0.8,0.6c-5.6,9.9-10.7,20.2-15.7,30.5c-4.9,10-9.4,20.3-13.4,30.7c0,0.1,0.2,0.2,0.2,0.1 c4.9-10.2,9.9-20.3,15.2-30.3c3-5.7,6.1-11.3,9.1-17c0.8-1.2,1.7-2.3,2.5-3.5c1.3-1.8,2.7-3.6,4-5.5c0.3-0.4,0.6-0.9,0.9-1.4 c2.2-1.1,4.2-2.4,6.4-3.4c2.9-1.3,6-2.4,9.1-3.3c2.9-0.8,5.9-1.3,8.9-1.8c0.4,0.1,0.8,0.2,1.2,0.2c1.2,0.1,2.4,0.2,3.6,0.2 c1.6,0.1,3.2,0.1,4.8,0.1c-1,0.5-1.9,1.1-2.9,1.7c-2.1,1.3-4,2.9-5.8,4.6c-1.6,1.5-3.3,3.3-3.1,5.6c0,0.2,0.2,0.4,0.4,0.5 c-1.4,2.8-1.3,6.4-1.4,9.4c-0.1,3.6-0.1,7.2,0.1,10.8c0.2,3.4,0.6,6.8,1.1,10.2c0.3,1.9,0.7,3.8,1.1,5.7c0.2,0.9,0.4,1.8,0.6,2.6 c-0.5,1.4,0,2.5,0.8,3.6c1.1,1.5,2.4,2.8,3.5,4.3c2.1,2.9,4,5.9,5.7,9c1.8,3.2,3.5,6.5,5.5,9.6c0.3,0.4,0.6,0.9,0.9,1.3 c2,4.3,4.1,8.6,6.3,12.9c7.8,15.5,16,30.8,24.6,45.9c0.3,0.5,0.9,0.1,0.7-0.4c-7.9-15.8-16.1-31.3-23.8-47.2 c-3.7-7.7-7.2-15.4-10.8-23.2c-1.7-3.6-3.5-7.3-5.5-10.7c-1-1.6-2-3.3-3.2-4.8c0.4-1.5,0-3.2-0.1-4.7c-0.1-1.6-0.3-3.1-0.4-4.7 c-0.2-3.3-0.3-6.7,0-10.1c0.5-4.5,2.6-9.7,1.1-14.2c1.1-0.8,2-1.9,3-2.9c1.1-1,2.3-2,3.4-2.9c2.5-2,5.1-3.9,7.7-5.6 c2.6-1.8,5.3-3.5,8.1-5.2c1.3-0.8,2.6-1.6,3.9-2.4c0.9-0.6,1.8-1,2.8-1.4c-1.2,1.9-1.7,4.3-2,6.5c-0.4,3.1,0.3,6.3,1.2,9.2 c1,3.3,2.4,6.5,3.9,9.5c1.2,2.4,3,4,5.1,5.4c0.3,0.4,0.6,0.7,0.9,1.1c-0.1,0.4,0,0.8,0.1,1.1c0.3,0.7,0.6,1.4,1.3,1.7 c0.1,0.1,0.2,0.2,0.3,0.3c0.1,0.1,0.3,0.2,0.4,0.3c0.3,0.2,0.6,0.3,0.9,0.3c0.2,0,0.3-0.2,0.2-0.3c-0.3-0.2-0.5-0.5-0.7-0.8 c-0.1-0.1-0.2-0.3-0.3-0.4c0,0,0,0,0,0c0,0,0-0.1,0-0.1c0,0-0.1-0.2-0.1-0.3c-0.1-0.2-0.1-0.4-0.2-0.5c0,0,0,0,0,0c0,0,0,0,0,0 c0,0,0-0.1-0.1-0.1c1.8,0.8,3.9,0.9,5.8,0.9c1.7,0,3.7,0.1,5.3-0.5c1.2-0.5,2.1-1.2,3-2c0,0.1,0,0.2,0,0.3c0,0.1,0,0.2,0,0.3 c0,0,0,0,0,0c0,0,0,0,0,0c0,0.1,0,0.1,0,0.2c0,0.2-0.1,0.3-0.1,0.5c0,0,0,0.1,0,0.1c0,0,0,0,0,0c0,0.2-0.1,0.4-0.1,0.6 c0,0,0,0.1,0,0.1c0,0,0,0.1,0,0.1c0,0-0.1,0.1-0.1,0.2c-0.2,0.3-0.4,0.6-0.6,0.9c-0.1,0.1,0,0.2,0.1,0.2c0.4,0,0.8-0.1,1.2-0.4 c0.1-0.1,0.2-0.2,0.3-0.2c0,0,0.1-0.1,0.1-0.1c0,0,0.1-0.1,0,0c0.2-0.2,0.4-0.4,0.6-0.6c0.3-0.5,0.5-1.1,0.5-1.8 c0.1-0.4,0.1-0.8,0-1.3c2.1-1.1,4.2-3,5.7-4.5c2.4-2.4,4.2-5.1,5.5-8.2c1-2.5,1.7-5.4,1.6-8.2c2.4,2.4,4.3,5.3,6.2,8 c2.2,3.1,4.5,6.1,7.3,8.6c-0.4,0.8-0.7,1.8-0.9,2.7c-0.8,3.5-1.2,7.1-2.1,10.7c-1,3.7-2.2,7.2-3.5,10.8c-0.9,2.3-1.7,5-1.8,7.6 c-1.2,2.9-2,5.9-2.9,8.8c-1.3,4-2.6,8-3.9,11.9c-1.5,4.6-3.2,9.1-4.8,13.7c-0.5,1.1-1,2.1-1.4,3.2c-5.6,12.9-10.8,25.8-16.2,38.8 c-0.1,0.3,0.3,0.4,0.5,0.2c6.2-13.6,12.5-27.1,18.6-40.7c3.1-6.9,6.2-13.9,9.2-20.8c1.9-4.3,4.1-8.8,4.8-13.5 c2.7-5.4,5.3-10.9,7.5-16.5c1.3-3.4,2.7-6.7,3.9-10.2c0.6-1.8,1-3.6,1.1-5.4c0.8-2.9,0.6-5.9-0.7-8.7c-1.4-3.3-4.1-5.7-6.8-8 c-2.9-2.6-5.7-5.2-8.6-7.9c-1.5-1.4-3-2.8-4.5-4.1c-1.1-0.9-2.2-1.7-3.4-2.5c5.9,1.3,11.7,2.4,17.6,3.6c6.2,1.2,12.4,2.8,18.6,3.7 c0.1,0,0.2,0.1,0.3,0.1c1.5,0.7,3.1,1.2,4.6,1.9c3.5,1.4,7,2.8,10.5,4.2c3.4,1.3,6.7,3,10.3,3.9c0.1,0,0.1,0,0.2,0 c3.4,5.8,8.3,11,12.2,16.3c4.3,5.7,8.7,11.4,12.9,17.2c4.2,5.7,8.2,11.4,12.3,17.2c2.2,3.1,4.3,6.1,6.5,9.2 c2.3,3.3,5.9,6.7,6.2,10.8c0,0.3,0.4,0.3,0.4,0C239.8,416.4,234.2,410.2,230.9,405.1z M96.8,271c0.2,0,0.4,0,0.6,0 c-0.1,0-0.2,0.1-0.3,0.1C96.9,271.1,96.9,271,96.8,271z M113.6,210.2c1.8,6.3,4.8,12.2,7.3,18.1c2.9,6.9,5.8,13.8,8.4,20.8 c2.5,6.5,4.5,13.2,7.2,19.6c0.1,0.2,0.2,0.4,0.4,0.5c0.1,0.3,0.1,0.6,0.2,0.8c-0.2,3.6-0.2,7.1-0.4,10.7c-0.1,2.2-0.2,4.4-0.3,6.6 c0,0.4,0,0.9,0,1.4c-0.9-2.3-2-4.5-3.5-6.4c0.2,0.1,0.4,0.2,0.6,0.3c0.2,0.1,0.4-0.2,0.2-0.3c-0.2-0.2-0.4-0.4-0.6-0.6 c-0.2-0.2-0.4-0.4-0.7-0.6c-0.2-0.2-0.5-0.3-0.7-0.5c-0.2-0.1-0.4-0.2-0.5-0.3c-0.4-0.3-0.7-0.7-1.1-1c0.3,0.1,0.5,0.1,0.8,0.2 c0.2,0,0.4,0.1,0.7,0.2c0.2,0.1,0.4,0.2,0.6,0.3c0.2,0.1,0.3-0.2,0.1-0.3c-0.4-0.2-0.8-0.5-1.2-0.7c-0.4-0.3-0.8-0.5-1.2-0.7 c-0.4-0.2-0.8-0.4-1.2-0.6c-0.2-0.1-0.4-0.2-0.6-0.2c-0.1,0-0.2-0.1-0.3-0.1c-0.2-0.1-0.3-0.1-0.5-0.1c-0.1-0.1-0.2-0.1-0.3-0.2 c-0.1,0-0.1-0.1-0.2-0.1c0.3,0.1,0.7,0.2,1,0.2c0.5,0.1,1,0.3,1.5,0.5c0.2,0.1,0.2-0.2,0.1-0.3c-0.5-0.3-0.9-0.6-1.4-0.9 c-0.5-0.2-1-0.4-1.5-0.6c-0.5-0.2-1.1-0.4-1.6-0.6c-0.1,0-0.2-0.1-0.3-0.1c-0.5-0.4-0.9-0.7-1.4-1.1c0.1,0,0.2,0,0.3,0 c0.6,0.1,1.2,0.2,1.7,0.4c0.3,0.1,0.6-0.4,0.2-0.6c-0.6-0.3-1.2-0.5-1.8-0.7c-0.3-0.1-0.6-0.2-0.9-0.3c-0.2,0-0.3-0.1-0.5-0.1 c-0.2,0-0.5-0.1-0.7,0c0,0-0.1,0-0.1,0.1c-0.2-0.2-0.5-0.3-0.7-0.5c0.5-0.1,1-0.1,1.5-0.1c0.1,0,0.2-0.2,0.1-0.3 c-0.6-0.3-1.2-0.5-1.9-0.6c-0.3-0.1-0.7-0.1-1-0.1c-0.2,0-0.4,0-0.7,0c-0.7-0.3-1.4-0.6-2.2-0.8c0.1,0,0.2,0,0.3,0 c0.2,0,0.4-0.3,0.1-0.5c-0.3-0.1-0.6-0.3-0.9-0.3c-0.3-0.1-0.7-0.1-1-0.1c-0.4,0-0.7,0-1.1,0.1c-0.2,0-0.3,0.1-0.4,0.1 c-0.1,0-0.3-0.1-0.4-0.1c0.2,0,0.4,0,0.5-0.1c0,0,0.1,0,0.1,0c0.2,0,0.2-0.3,0.1-0.4c0,0-0.1,0-0.1-0.1c-0.2-0.2-0.5-0.2-0.7-0.3 c-0.3,0-0.5-0.1-0.8-0.1c-0.5,0-0.9,0.1-1.3,0.2c-0.2-0.1-0.5-0.2-0.8-0.3c-0.5-0.1-1-0.3-1.4-0.4c-0.2-0.1-0.3,0.2-0.2,0.4 c0.2,0.1,0.4,0.2,0.5,0.4c-0.2,0-0.4-0.1-0.7-0.1c-0.2-0.1-0.3-0.1-0.5-0.2c-0.3-0.1-0.7-0.2-1.1-0.3c-0.2-0.1-0.5-0.1-0.7-0.1 c0.6-21.6,0.6-48.3,0.6-73.2C111,199.1,112,204.7,113.6,210.2z M107.9,91.3c-0.4,3.6-0.7,7.3-1.1,10.9c0-4.6,0-9.3,0-14 c0.5,0.3,1.1,0.2,1.4-0.1C108.1,89.2,108,90.2,107.9,91.3z M107.5,87.1c0.1,0,0.1-0.1,0.2-0.1C107.6,87.1,107.5,87.1,107.5,87.1z M108.4,86.3c0-0.1,0-0.1-0.1-0.2c-0.2,0.3-0.4,0.6-0.6,0.9c0-0.1-0.3-0.4-0.4-0.7c-0.2-0.2-0.3-0.4-0.5-0.7c0-4.4,0-8.8,0-13.1 c1,0.8,2.3,0.7,3.1-0.1C109.3,77,108.9,81.7,108.4,86.3z M110,71.1c-1.4,0.9-2.2-0.1-3.2-1.3c0-4.3-0.1-8.6-0.1-12.8 c1.2,1.8,3.4,2.3,4.7,0.6C110.9,62.2,110.4,66.7,110,71.1z M111.6,56.1c-0.8,0.6-1.7,1.1-2.6,0.8c-0.7-0.3-1.5-1.2-2.4-2.1 c0-3.7-0.1-7.3-0.2-10.8c0.3,0.3,0.5,0.6,0.8,0.9c2.2,2,4.3,1.2,5.6-0.5C112.5,48.3,112,52.2,111.6,56.1z M114.9,29.3 c-0.6,4.3-1.2,8.6-1.7,12.9c-2.5,3.5-4.2,2.4-6.8-0.8c-0.1-3.3-0.1-6.6-0.2-9.7C109.1,34.6,112.8,32.4,114.9,29.3z M100.5,33.7 c1.5,2.2,3.7,0.5,5-1.4c-0.1,2.5-0.1,5.1-0.2,7.8c0,0,0,0,0-0.1c-0.2,1.8-0.3,4.6-2.4,3.7C102.3,40.3,101.5,37,100.5,33.7z M103,44.3c0.8,0.6,1.6,0.5,2.3,0c-0.1,6.1-0.2,12.4-0.2,18.9C104.6,56.8,104,50.5,103,44.3z M90.9,246.3c-0.6,1.4-1.2,2.9-1.8,4.3 c0.5-1.3,1-2.7,1.4-4c2-6.2,3.5-12.6,6.2-18.5c2.6-5.7,5.6-11.1,8.2-16.8c0,19.9,0.1,40,0.6,56.9c-0.3,0-0.6,0.1-0.9,0.1 c-0.3,0.1-0.2,0.4,0.1,0.5c0.2,0,0.5,0.1,0.7,0.1c-0.5,0-0.9,0.1-1.4,0.2c-0.3,0.1-0.6,0.1-0.9,0.2c-0.1,0-0.2,0-0.3,0 c-0.1,0-0.3,0-0.4,0c-0.1,0-0.2,0-0.3,0c-0.1,0-0.3-0.1-0.5-0.1c-0.1,0-0.2,0.1-0.4,0.1c-0.1,0-0.3,0-0.4,0c-0.1,0-0.3,0.1-0.4,0.1 c-0.1,0-0.1,0.2,0,0.3c0.1,0,0.3,0.1,0.4,0.1c0.1,0,0.3,0,0.4,0c-0.4,0.1-0.9,0.3-1.3,0.4c-0.2-0.1-0.4-0.1-0.7-0.1 c-0.3,0-0.6,0-1,0.1c-0.3,0.1-0.6,0.1-0.9,0.2c-0.3,0.1-0.5,0.3-0.8,0.5c-0.1,0.1,0,0.2,0.1,0.2c0,0,0,0,0,0c-0.2,0-0.4,0-0.6,0.1 c-0.2,0-0.3,0.1-0.5,0.2c-0.3,0.1-0.6,0.2-1,0.3c-0.3,0.1-0.7,0.2-1,0.4c-0.3,0.2-0.6,0.3-0.9,0.5c-0.1,0,0,0.1,0,0.1c0,0,0,0,0,0 c0,0,0,0,0.1,0.1c0,0,0,0.1,0.1,0.1c0,0,0,0,0,0c0,0,0,0,0,0c0.3-0.1,0.6-0.2,1-0.2c0,0,0.1,0,0.1,0c-0.7,0.4-1.4,0.7-2.1,1.1 c-0.1,0-0.2,0-0.3,0c-0.4,0.1-0.7,0.1-1.1,0.2c-0.2,0.1-0.4,0.1-0.5,0.2c-0.2,0.1-0.3,0.2-0.4,0.3c-0.1,0.1,0,0.2,0.1,0.2 c0.2,0,0.3,0,0.5,0c-0.2,0.1-0.4,0.3-0.6,0.4c-0.2,0-0.3,0.1-0.5,0.1c-0.3,0.1-0.5,0.2-0.8,0.3c-0.3,0.1-0.5,0.3-0.8,0.4 c-0.3,0.2-0.1,0.5,0.2,0.5c-0.1,0.1-0.2,0.1-0.3,0.2c-0.1,0-0.2,0.1-0.3,0.1c-0.1,0.1-0.2,0.1-0.3,0.2c0,0-0.1,0-0.1,0.1 c-0.1,0-0.1,0,0,0c-0.1,0-0.1,0.1-0.2,0.1c-0.3,0.1-0.5,0.2-0.7,0.4c-0.2,0.1-0.5,0.3-0.7,0.5c-0.3,0.2,0,0.6,0.3,0.5 c0,0,0,0,0.1,0c-0.2,0.2-0.4,0.4-0.6,0.6c0,0-0.1,0-0.1,0c-0.4,0.1-0.8,0.3-1.1,0.4c-0.1,0-0.1,0.1-0.2,0.1c-0.1,0-0.1,0.1-0.2,0.1 c0,0-0.1,0.1,0,0c-0.1,0.1-0.3,0.2-0.4,0.3c-0.1,0.1-0.2,0.3-0.2,0.4c0,0.1,0,0.3,0,0.4c0,0.2,0.2,0.2,0.3,0.1 c0.1-0.1,0.1-0.1,0.2-0.1c0.1,0,0.1-0.1,0.2-0.1c-2.7,3.4-4,7.6-5.1,12.1c-1.4,5.8-2.8,12.8-1.3,18.8c0,0-0.1-0.1-0.1-0.1 c-0.7-0.8-1.4-1.5-2.1-2.3c-0.4-0.4-0.7-0.8-1.1-1.1c-0.1-0.1-0.3-0.2-0.4-0.4c0.5-0.4,0.9-1,1.1-1.6c0.9-2.7,1.4-5.5,1.8-8.2 c0.5-2.9,1-5.8,1.4-8.8c0.2-1.4,0.5-2.8,0.7-4.3c0.2-1.1,0.3-2.4,0.8-3.4c1.1-0.7,1.8-2,2.2-3.4c1.1-3.4,2.1-6.8,3.2-10.2 c2.2-7.1,4.5-14.2,6.7-21.4C91.1,246.3,91,246.2,90.9,246.3z"/></g></g></svg>