<?xml version="1.0" encoding="UTF-8" standalone="no"?><svg xmlns="http://www.w3.org/2000/svg" xmlns:xlink="http://www.w3.org/1999/xlink" fill="#ffffff" height="499.1" preserveAspectRatio="xMidYMid meet" version="1" viewBox="-0.1 -0.1 500.2 499.1" width="500.2" zoomAndPan="magnify"><g id="change1_1"><path d="M500,180.5c-0.1-0.3-0.3-0.4-0.6-0.3l-28.9,7.7L408.7,89l23.8-23.8c0,0,0,0,0,0c0.2-0.2,0.2-0.5,0-0.7c0,0,0,0,0,0 c-0.2-0.2-0.5-0.2-0.7,0l-18.6,18.6c0,0-0.1,0-0.1,0.1l-5.3,5.3c-0.8,0.7-1.8,1.1-2.9,1c-18.5-0.1-87.8-70.4-92.4-75.1l3.7-13.8 c0.1-0.3-0.1-0.6-0.4-0.6c-0.3-0.1-0.6,0.1-0.6,0.4l-3.7,13.7L185.5,7.5l-1.9-7.2C183.5,0.1,183.3,0,183,0c-0.3,0.1-0.4,0.4-0.3,0.6 l7.1,26.6L82.5,80.1L66.9,64.5c0,0,0,0,0,0c-0.2-0.2-0.5-0.2-0.7,0c0,0,0,0,0,0c-0.2,0.2-0.2,0.5,0,0.7l15.6,15.6L37,190.2 l-36.4-9.8c-0.3-0.1-0.5,0.1-0.6,0.3c0,0,0,0,0,0c-0.1,0.3,0.1,0.5,0.4,0.6l36.4,9.8L25.6,307.1l-25.3,6.8c-0.3,0.1-0.4,0.4-0.3,0.6 c0.1,0.2,0.3,0.4,0.5,0.4l0.1,0l25.2-6.8l51.4,111l-10.4,10.4c0,0,0,0,0,0c-0.2,0.2-0.2,0.5,0,0.7c0.1,0.1,0.2,0.1,0.3,0.1 c0.1,0,0.3-0.1,0.3-0.2l10.4-10.4l107.8,63.8l-4,14.9c-0.1,0.3,0.1,0.5,0.3,0.6h0.1c0.2,0,0.4-0.2,0.5-0.4l4-14.9l122-12.8l7.4,27.7 c0.1,0.2,0.3,0.4,0.5,0.4l0.1,0c0.3-0.1,0.4-0.3,0.4-0.6l-7.4-27.7l102.5-59.5l20.1,20.1c0.1,0.1,0.2,0.1,0.3,0.1 c0.1,0,0.2-0.1,0.3-0.1c0.2-0.2,0.2-0.5,0-0.7l-20.1-20.1l57.7-103l27.1,7.3h0.1c0.2,0,0.4-0.2,0.5-0.4c0,0,0,0,0,0 c0.1-0.3-0.1-0.5-0.4-0.6l-27.1-7.2V188.8l28.9-7.7C499.9,181,500.1,180.7,500,180.5z M408,89.7l61.5,98.4l-16,4.3l-80.6-67.6 L408,89.7z M162.3,271.5l8.6,53.9l-11.8,11.8l-7.8-62.8L162.3,271.5z M151.4,273.4l10.8-44.8v41.9L151.4,273.4z M300.8,260.9 l-7.1-24.7l11.1-3l11,31.7L300.8,260.9z M316,266l-6.7,40.9l-8.4-8.4V262L316,266z M240.9,238.6h5.4l2,7.4L240.9,238.6z M247.7,246.7l-12.2-3.3l4.2-4.7L247.7,246.7z M247.7,239.6l2.7,2.4l-0.2,0.7l-0.8,3.2L247.7,239.6z M247.2,237.8L243,222h12.7 l-5.1,18.9L247.2,237.8z M250.6,245l5.5-20.4l1.2,14.5l-6.8,6.8L250.6,245z M272.8,224.9l9,13.5l-30.8,8.3L272.8,224.9z M258.2,238.1l-1.3-16.4l4.6-17.1l10.8,19.4L258.2,238.1z M256,221h-13.3l-7-26l24.9,8.7L256,221z M246.1,237.5h-6.2l-21.7-21.7 l23.7,6.1L246.1,237.5z M239,238l-4.6,5.1l-36.9-9.9l19-17.7L239,238z M234.9,244.3l12.5,3.3l-15.9,4.3L234.9,244.3z M247.7,248.6 l-14.6,14.6l-1.9-10.2L247.7,248.6z M248.4,249.3l-7,26l-8-11L248.4,249.3z M249.4,249.6l7,26l-14,0.2L249.4,249.6z M250.3,249.3 l16.3,16.3l-9.4,9.5L250.3,249.3z M251,248.6l32.8,8.8l-16.4,7.6L251,248.6z M251.2,247.6l31-8.3l2.5,17.3L251.2,247.6z M283.2,239.1l9.6-2.6l6.9,24.1l-13.9-3.7L283.2,239.1z M282.8,238.1l-9.3-14l13.3-13.3l5.8,24.7L282.8,238.1z M273,223.3l-11.2-20 l3.3-12.4l21.2,19.1L273,223.3z M260.9,202.6l-25.5-8.9l-4.9-18.1l33.7,14.6L260.9,202.6z M241.6,220.8l-24.8-6.4l-12.3-12.3 l30.2-7.3L241.6,220.8z M215.8,214.8l-19.5,18.1l-4-1.1l11.3-29.2L215.8,214.8z M233.9,244l-3.7,8.2l-26.4,7.1l-6.6-25.1L233.9,244z M203.9,260.3l26.3-7.1l2,10.8l-33,33L203.9,260.3z M232.7,265l8.4,11.5l-11.5,42.9l-30.3-21L232.7,265z M242.1,276.8l14.5-0.2 l9,33.7l-35,9.1L242.1,276.8z M257.5,276.3l9.8-9.9l32.1,32.1L266.6,310L257.5,276.3z M268.2,265.8l17.1-8l14.6,3.9v35.8 L268.2,265.8z M293.5,235.3l-5.9-25.2l13.4-13.4l3.6,35.7L293.5,235.3z M287.1,209.2l-21.7-19.4l7.1-26.6l28.2,32.4L287.1,209.2z M264.5,189.2l-34.3-14.9l-5.8-21.6l47.2,9.8L264.5,189.2z M234.4,193.8l-30.7,7.5l-15.4-15.4l41.2-10.4L234.4,193.8z M202.9,201.9 l-11.6,29.7l-27.9-7.5l23.9-37.8L202.9,201.9z M192,232.8l4.1,1.1l6.8,25.7l-22.7,6.1L192,232.8z M202.9,260.6l-4.8,37.6l-9.6,9.6 l-8.5-41.1L202.9,260.6z M187.6,308.7l-15.9,15.9l-8.5-53.3L179,267L187.6,308.7z M188.1,309.5l35.2,33.1l-7.2,26.8l-44.1-43.9 L188.1,309.5z M188.9,308.8l9.7-9.7l30.8,21.3l-5.7,21.2L188.9,308.8z M230.3,320.6l35.5-9.3l6.3,23.6l-47.6,6.9L230.3,320.6z M266.8,311l33.4-11.7l8.7,8.7l-35.8,26.6L266.8,311z M309.6,308.6l11.3,11.3L275.4,334L309.6,308.6z M310.2,307.8l6.8-41.5 l23.4,6.3l-18.7,46.7L310.2,307.8z M317,265.3L305.8,233l34.6-9.3v47.8L317,265.3z M305.6,232l-3.7-36.3l14.6-14.6l23.7,41.6 L305.6,232z M301.4,194.9L272.8,162l7.6-28.5l35.4,46.8L301.4,194.9z M271.9,161.5l-47.8-9.8l-6.2-23.1l61.7,4.3L271.9,161.5z M229.2,174.4L187.4,185l-18.9-18.9l54.8-13.4L229.2,174.4z M186.6,185.6l-23.3,36.8L168,167L186.6,185.6z M191,232.5L179,266 l-15.8,4.2v-45.1L191,232.5z M171.4,326.3l44.5,44.3l-2.4,8.9l-54.1-41.2L171.4,326.3z M216.9,370.8l54-14.2l-56.3,22.9L216.9,370.8 z M217.2,369.7l7.2-26.8l48.1-7l4.8,18L217.2,369.7z M273.5,335.7l48.3-14.9l15.5,15.5l-59,17.4L273.5,335.7z M322.5,320.1 l18.9-47.2l12.2,3.3L338,335.6L322.5,320.1z M341.4,271.8v-48.3l20.8-5.6l-8.4,57.2L341.4,271.8z M362,216.9l-20.9,5.6l-23.9-42 l17.5-17.5L362,216.9z M341.8,174.9l24.5,40.9l-3.3,0.9L341.8,174.9z M316.6,179.7L282,133.9l51.9,28.4L316.6,179.7z M280.8,132.2 l6.8-25.4l45.2,53.8L280.8,132.2z M279.8,131.9l-62.2-4.4l-6.8-25.3l75.8,3.9L279.8,131.9z M223.1,151.7l-55.4,13.6l-13.8-13.8 l63-22.9L223.1,151.7z M167,166l-4.9,57.7l-32.8-8.8l23.9-62.8L167,166z M162,224.8l-11.8,48.9l-31.7,8.5l10.6-66.2L162,224.8z M150.2,274.7l7.9,63.4l-11.4,11.4l-28.2-66.3L150.2,274.7z M158.7,339l54.5,41.6l-3.7,13.7l-62.2-43.9L158.7,339z M214.2,380.7 l63.3-25.8l7.4,27.8l-74.5,11.7L214.2,380.7z M278.5,354.6l59.6-17.5l5.1,5.1l-57.3,40.1L278.5,354.6z M338.8,336.4l15.7-60l7.5,2 l-18.2,63L338.8,336.4z M354.7,275.4l8.5-57.7l3.3-0.9l-4.4,60.6L354.7,275.4z M335.6,162.8l-0.3-0.5l12.2-12.2l49.7,57.3l-30,8 L335.6,162.8z M334.8,161.5l-46.9-55.8l4.6-17.2l54.4,60.9L334.8,161.5z M287,105.2l-76.3-4l-5.7-21.4l86.7,7.9L287,105.2z M216.7,127.7l-63.5,23.1L136.4,134l73.6-31.6L216.7,127.7z M152.5,151.5l-24.1,63.3l-21.5-5.8l28.8-74.3L152.5,151.5z M128.2,215.7 l-10.7,66.8l-7.9,2.1l-2.9-74.6L128.2,215.7z M117.6,283.5l28.4,66.8l-13.1,13.1l-23.2-77.8L117.6,283.5z M146.6,351.1l62.7,44.2 l-4.7,17.5l-71.2-48.5L146.6,351.1z M210.3,395.5l75-11.8l1.8,6.8l-81.5,22.4L210.3,395.5z M286.2,383.3l57.7-40.4l15.8,15.8 L288,390.1L286.2,383.3z M344.6,342.2l18.4-63.6l25.9,6.9l-28.3,72.5L344.6,342.2z M363.1,277.6l4.4-61.1l30.1-8.1l-8.6,76.2 L363.1,277.6z M348.3,149.4l9.8-9.8l67.2,60.3l-27,7.2L348.3,149.4z M347.6,148.7l-54.8-61.4L298,68l59.4,70.9L347.6,148.7z M291.9,86.8l-87.3-7.9l-7.8-29.1l100.3,17.5L291.9,86.8z M209.6,101.5l-74.1,31.7L120,117.6l83.9-37.5L209.6,101.5z M134.9,133.9 l-29,74.8L85,203.1l34.3-84.8L134.9,133.9z M105.8,209.7l2.9,75.1l-23.5,6.3l-0.4-87L105.8,209.7z M108.8,285.8l23.3,78.3 l-16.1,16.1l-30.7-88.1L108.8,285.8z M132.7,364.9l71.6,48.8l-4.1,15.3L116.6,381L132.7,364.9z M205.3,413.9l82-22.5l6,22.3 l-92.1,15.6L205.3,413.9z M288.3,391.1l72.3-31.5l18.3,18.3l-84.6,35.5L288.3,391.1z M361.3,358.9l28.5-73.1l14.4,3.9l-24.6,87.5 L361.3,358.9z M390,284.8l8.6-76.7l27-7.2l-21.3,87.8L390,284.8z M358.8,138.9l13.5-13.5l80.1,67.3l-25.9,6.9L358.8,138.9z M358.1,138.2l-59.8-71.4l6-22.5l67.1,80.5L358.1,138.2z M297.4,66.3L196.6,48.7L191,28.1l112.5,15.4L297.4,66.3z M203.6,79.1 l-84.4,37.8l-11-11l87.6-55.9L203.6,79.1z M118.5,117.6l-34.5,85.3l-25.1-6.7l48.6-89.6L118.5,117.6z M83.9,203.8l0.4,87.5L59.3,298 l-0.6-101L83.9,203.8z M84.4,292.4l30.8,88.7l-17.5,17.5L59.5,299L84.4,292.4z M115.9,381.8l84.1,48.3l-5.8,21.6l-95.8-52.4 L115.9,381.8z M200.9,430.3l92.6-15.7l8.1,30.2l-106.5,7L200.9,430.3z M294.6,414.4l85.2-35.7l21.3,21.3l-98.4,44.5L294.6,414.4z M380.3,378l24.8-88l26.3,7.1l-29.8,102.3L380.3,378z M405.4,289l21.3-88.3l26-7l-21,102.4L405.4,289z M312.1,15.6 c7.8,8,74,74.8,92.7,75c0.3,0,0.7,0,1-0.1l-33.6,33.6l-67.5-81L312.1,15.6z M185.8,8.6L311.2,15l-7.4,27.5l-113-15.5L185.8,8.6z M190,28.3l5.5,20.7l-88.1,56.2L83.2,80.9L190,28.3z M82.6,81.6l24.2,24.2l-48.9,90l-19.9-5.3L82.6,81.6z M37.8,191.5l19.9,5.3 l0.7,101.5l-31.7,8.5L37.8,191.5z M26.8,307.8l31.8-8.5l38.4,100l-19,19L26.8,307.8z M185.9,482.6L78.6,419.1l19-19l96.3,52.6 L185.9,482.6z M186.9,482.7l8-29.9l107-7.1l6.5,24.2L186.9,482.7z M309.4,469.6l-6.4-24.1l98.9-44.8l9.6,9.6L309.4,469.6z M412.1,409.7l-9.6-9.6l30-102.8l37.1,9.9L412.1,409.7z M469.8,306.2l-37.1-9.9l21.1-102.9l16-4.3V306.2z"/></g></svg>