<?xml version="1.0" encoding="UTF-8" standalone="no"?><svg xmlns="http://www.w3.org/2000/svg" xmlns:xlink="http://www.w3.org/1999/xlink" fill="#000000" height="588.9" preserveAspectRatio="xMidYMid meet" version="1" viewBox="-34.1 -46.3 552.0 588.9" width="552" zoomAndPan="magnify"><g fill="#ffffff" id="change1_1"><path d="M 142.59375 202.917969 L 141.921875 202.628906 C 141.683594 202.527344 117.957031 192.148438 90.332031 167.527344 C 64.84375 144.816406 30.699219 104.976562 12.796875 44.167969 C 11.28125 39.011719 -4.007812 -17.183594 -5.191406 -22.179688 L -3.949219 -22.476562 C -2.765625 -17.484375 12.503906 38.65625 14.019531 43.808594 C 31.839844 104.324219 65.816406 143.972656 91.179688 166.574219 C 116.070312 188.753906 137.726562 199.289062 141.757812 201.152344 C 180.546875 60.382812 158.367188 -44.964844 158.140625 -46.015625 L 159.386719 -46.285156 C 159.617188 -45.230469 181.9375 60.777344 142.789062 202.210938 L 142.59375 202.917969" fill="inherit"/><path d="M 139.570312 203.160156 L 141.796875 201.527344 C 142.136719 201.277344 176.371094 176.011719 217.019531 133.3125 C 254.519531 93.921875 305.300781 31.210938 334.261719 -43.828125 L 335.453125 -43.367188 C 306.410156 31.875 255.511719 94.730469 217.921875 134.214844 C 183.027344 170.867188 152.839844 194.703125 144.703125 200.933594 C 278.265625 176.265625 372.089844 116.546875 427.398438 70.632812 C 487.730469 20.550781 516.511719 -24.351562 516.792969 -24.800781 L 517.871094 -24.117188 C 517.585938 -23.664062 488.726562 21.371094 428.257812 71.578125 C 392.75 101.058594 353.441406 126.539062 311.433594 147.304688 C 258.921875 173.261719 202.015625 191.890625 142.285156 202.671875 L 139.570312 203.160156" fill="inherit"/><path d="M -30.660156 391.675781 L -31.226562 390.53125 C -30.738281 390.289062 17.871094 366.113281 19.710938 364.964844 C 39.363281 352.722656 137.234375 287.589844 141.484375 203.121094 C 131.636719 208.167969 50.507812 247.628906 -34.085938 224.988281 L -33.757812 223.757812 C 55.566406 247.65625 141.015625 201.945312 141.867188 201.480469 L 142.855469 200.941406 L 142.8125 202.066406 C 139.339844 287.714844 40.21875 353.691406 20.386719 366.050781 C 18.492188 367.226562 -28.652344 390.679688 -30.660156 391.675781" fill="inherit"/><path d="M 28.957031 542.640625 L 28.253906 541.578125 C 28.644531 541.316406 67.796875 514.984375 101.148438 460.214844 C 131.316406 410.667969 162.65625 327.246094 142.808594 209.316406 C 142.453125 220.792969 140.425781 244.988281 130.667969 276.347656 C 118.007812 317.027344 89.382812 378.46875 24.890625 440.144531 C 18.632812 446.128906 -14.460938 475.203125 -21.59375 481.335938 L -22.425781 480.367188 C -15.296875 474.238281 17.765625 445.195312 24.007812 439.222656 C 88.277344 377.757812 116.808594 316.554688 129.429688 276.03125 C 143.101562 232.128906 141.554688 202.375 141.535156 202.078125 L 142.800781 201.925781 C 152.710938 255.851562 152.898438 307.316406 143.355469 354.894531 C 135.722656 392.964844 121.875 428.640625 102.203125 460.933594 C 68.703125 515.925781 29.351562 542.382812 28.957031 542.640625" fill="inherit"/><path d="M 69.789062 86.261719 C 56.152344 86.261719 41.601562 84.511719 26.515625 80.152344 L 26.867188 78.929688 C 102.261719 100.707031 164.152344 56.820312 164.769531 56.375 L 165.515625 57.40625 C 165.019531 57.769531 124.839844 86.261719 69.789062 86.261719" fill="inherit"/><path d="M 88.082031 120.453125 C 74.988281 120.453125 60.371094 118.507812 44.367188 113.539062 L 44.746094 112.320312 C 117.519531 134.90625 161.398438 94.480469 161.832031 94.070312 L 162.710938 94.996094 C 162.367188 95.324219 135.121094 120.453125 88.082031 120.453125" fill="inherit"/><path d="M 85.308594 149.144531 C 80.773438 149.144531 76.03125 148.925781 71.078125 148.445312 L 71.203125 147.175781 C 129.542969 152.820312 158.644531 122.164062 158.933594 121.855469 L 159.867188 122.722656 C 159.601562 123.011719 134.800781 149.144531 85.308594 149.144531" fill="inherit"/><path d="M 110.136719 172.71875 C 105.023438 172.71875 99.652344 172.050781 94.144531 170.433594 L 94.5 169.210938 C 125.699219 178.359375 152.347656 156.476562 152.609375 156.253906 L 153.429688 157.230469 C 153.207031 157.417969 134.589844 172.71875 110.136719 172.71875" fill="inherit"/><path d="M 117.054688 185.398438 C 115.726562 185.398438 114.371094 185.347656 112.988281 185.238281 L 113.085938 183.964844 C 134.0625 185.628906 148.636719 173.601562 148.78125 173.480469 L 149.601562 174.457031 C 149.464844 174.574219 136.34375 185.398438 117.054688 185.398438" fill="inherit"/><path d="M 130.324219 194.039062 C 128.832031 194.039062 127.230469 193.949219 125.511719 193.742188 L 125.660156 192.476562 C 139.4375 194.121094 145.484375 188.050781 145.542969 187.988281 L 146.460938 188.875 C 146.230469 189.113281 141.324219 194.039062 130.324219 194.039062" fill="inherit"/><path d="M 130.140625 208.59375 L 129.324219 207.613281 C 134.609375 203.207031 132.28125 197.746094 132.179688 197.515625 L 133.347656 196.996094 C 133.375 197.0625 136.183594 203.558594 130.140625 208.59375" fill="inherit"/><path d="M 113.945312 214.898438 L 112.980469 214.066406 C 120.992188 204.769531 122.144531 198.566406 121.699219 194.996094 C 121.226562 191.195312 118.9375 189.554688 118.839844 189.484375 L 119.566406 188.4375 C 119.683594 188.515625 122.394531 190.429688 122.960938 194.789062 C 123.679688 200.359375 120.644531 207.125 113.945312 214.898438" fill="inherit"/><path d="M 97.492188 220.351562 L 96.574219 219.460938 C 96.738281 219.292969 112.914062 202.230469 103.300781 178.355469 L 104.484375 177.878906 C 114.414062 202.542969 97.660156 220.175781 97.492188 220.351562" fill="inherit"/><path d="M 75.714844 225.679688 L 74.648438 224.980469 C 74.855469 224.660156 95.550781 192.503906 84.3125 162.226562 L 85.507812 161.785156 C 96.972656 192.671875 75.929688 225.351562 75.714844 225.679688" fill="inherit"/><path d="M 50.144531 229.730469 L 49.175781 228.902344 C 49.515625 228.507812 82.847656 188.898438 65.011719 141.335938 L 66.207031 140.886719 C 84.316406 189.171875 50.488281 229.332031 50.144531 229.730469" fill="inherit"/><path d="M 21.304688 231.449219 L 20.273438 230.695312 C 20.71875 230.09375 64.277344 169.957031 51.121094 124.21875 L 52.347656 123.867188 C 65.675781 170.207031 21.75 230.84375 21.304688 231.449219" fill="inherit"/><path d="M -6.300781 229.703125 L -7.3125 228.929688 C -6.835938 228.304688 40.289062 165.738281 32.117188 92.210938 L 33.386719 92.070312 C 41.613281 166.117188 -5.820312 229.078125 -6.300781 229.703125" fill="inherit"/><path d="M -28.722656 225.816406 L -29.546875 224.84375 C -29.421875 224.738281 -16.996094 214.042969 -5.308594 187.644531 C 5.484375 163.265625 17.832031 120.132812 15.367188 53.085938 L 16.640625 53.039062 C 19.117188 120.394531 6.679688 163.753906 -4.1875 188.265625 C -15.992188 214.886719 -28.597656 225.710938 -28.722656 225.816406" fill="inherit"/><path d="M 140.734375 219.816406 L 139.464844 219.675781 C 139.476562 219.589844 140.351562 210.980469 134.34375 206.371094 L 135.117188 205.359375 C 141.710938 210.410156 140.777344 219.4375 140.734375 219.816406" fill="inherit"/><path d="M 136.472656 236.066406 L 135.433594 235.328125 C 135.464844 235.285156 138.488281 230.898438 137.109375 225.117188 C 135.804688 219.636719 131.109375 214.710938 123.15625 210.46875 L 123.757812 209.34375 C 132.058594 213.769531 136.972656 218.984375 138.355469 224.847656 C 139.859375 231.191406 136.613281 235.871094 136.472656 236.066406" fill="inherit"/><path d="M 129.636719 249.375 C 129.597656 249.171875 125.425781 228.839844 107.777344 216.382812 L 108.515625 215.339844 C 126.589844 228.101562 130.847656 248.917969 130.890625 249.128906 L 129.636719 249.375" fill="inherit"/><path d="M 120.261719 269.761719 L 119 269.574219 C 119.03125 269.351562 121.949219 246.828125 91.992188 221.238281 L 92.824219 220.269531 C 123.363281 246.355469 120.296875 269.53125 120.261719 269.761719" fill="inherit"/><path d="M 109.847656 285.652344 L 108.570312 285.585938 C 108.585938 285.308594 109.644531 257.582031 78.125 224.8125 L 79.042969 223.925781 C 110.980469 257.132812 109.859375 285.371094 109.847656 285.652344" fill="inherit"/><path d="M 94.449219 304.328125 L 93.238281 303.921875 C 93.347656 303.589844 103.796875 270.191406 54.992188 229.105469 L 55.8125 228.128906 C 105.339844 269.824219 94.5625 303.988281 94.449219 304.328125" fill="inherit"/><path d="M 73.222656 325.609375 L 72.03125 325.152344 C 72.195312 324.730469 87.542969 282.183594 30.945312 231.429688 L 31.796875 230.480469 C 89.09375 281.855469 73.390625 325.179688 73.222656 325.609375" fill="inherit"/><path d="M 51.976562 343.316406 L 51.171875 342.324219 C 51.441406 342.105469 77.542969 318.957031 6.628906 231.355469 L 7.621094 230.550781 C 45.070312 276.8125 55.195312 304.894531 57.097656 320.304688 C 59.191406 337.265625 52.273438 343.078125 51.976562 343.316406" fill="inherit"/><path d="M 24.210938 363.34375 L 23.003906 362.933594 C 23.179688 362.410156 39.929688 309.808594 -19.125 228.347656 L -18.09375 227.597656 C 12.96875 270.441406 22.824219 305.027344 25.621094 326.496094 C 28.664062 349.824219 24.257812 363.210938 24.210938 363.34375" fill="inherit"/><path d="M 60.210938 399.988281 C 57.289062 399.988281 52.042969 399.300781 46.867188 395.171875 C 38.398438 388.410156 33.722656 375.460938 32.964844 356.679688 L 34.238281 356.625 C 34.980469 375.023438 39.496094 387.65625 47.664062 394.175781 C 54.808594 399.871094 62.230469 398.574219 62.304688 398.5625 L 62.535156 399.816406 C 62.433594 399.839844 61.574219 399.988281 60.210938 399.988281" fill="inherit"/><path d="M 80.957031 372.324219 C 76.75 372.324219 65.339844 371.566406 58.433594 363.84375 C 53.5625 358.390625 52.007812 350.605469 53.816406 340.695312 L 55.074219 340.925781 C 53.335938 350.425781 54.789062 357.851562 59.386719 362.996094 C 67.378906 371.9375 82.324219 371.019531 82.472656 371.007812 L 82.5625 372.28125 C 82.449219 372.289062 81.871094 372.324219 80.957031 372.324219" fill="inherit"/><path d="M 92.644531 349.140625 C 88.097656 349.140625 81.363281 348.28125 76.445312 343.929688 C 72.058594 340.054688 70.023438 334.164062 70.398438 326.425781 L 71.671875 326.488281 C 71.316406 333.816406 73.207031 339.359375 77.285156 342.972656 C 84.773438 349.597656 97.28125 347.542969 97.402344 347.519531 L 97.621094 348.777344 C 97.414062 348.8125 95.445312 349.140625 92.644531 349.140625" fill="inherit"/><path d="M 102.738281 325.5625 C 98.117188 325.5625 92.550781 324.785156 89.082031 321.601562 C 86.527344 319.253906 85.464844 315.925781 85.925781 311.707031 L 87.195312 311.847656 C 86.78125 315.640625 87.707031 318.605469 89.945312 320.660156 C 96.128906 326.335938 110.324219 323.628906 110.46875 323.597656 L 110.714844 324.851562 C 110.421875 324.90625 106.980469 325.5625 102.738281 325.5625" fill="inherit"/><path d="M 113.484375 302.125 C 110.335938 302.125 106.875 301.65625 104.3125 300.050781 C 102.410156 298.859375 101.203125 297.164062 100.71875 295.015625 L 101.960938 294.734375 C 102.371094 296.539062 103.390625 297.964844 104.988281 298.96875 C 110.523438 302.441406 121.1875 300.019531 121.292969 299.996094 L 121.582031 301.238281 C 121.320312 301.300781 117.675781 302.125 113.484375 302.125" fill="inherit"/><path d="M 120.574219 282.199219 C 119.691406 282.199219 118.84375 282.050781 118.082031 281.6875 C 116.324219 280.851562 115.308594 279.046875 115.0625 276.320312 L 116.332031 276.207031 C 116.535156 278.449219 117.308594 279.90625 118.632812 280.535156 C 122.222656 282.246094 128.777344 277.90625 128.847656 277.859375 L 129.554688 278.921875 C 129.316406 279.085938 124.601562 282.199219 120.574219 282.199219" fill="inherit"/><path d="M 130.128906 261.328125 C 129.605469 261.328125 129.082031 261.253906 128.585938 261.066406 C 127.277344 260.578125 126.382812 259.449219 125.925781 257.714844 L 127.160156 257.386719 C 127.511719 258.71875 128.121094 259.53125 129.03125 259.871094 C 130.859375 260.550781 133.582031 259.121094 134.476562 258.511719 L 135.195312 259.566406 C 135.070312 259.652344 132.578125 261.328125 130.128906 261.328125" fill="inherit"/><path d="M 137.609375 242.683594 C 137.363281 242.683594 137.105469 242.648438 136.835938 242.566406 C 135.648438 242.203125 134.71875 241.03125 134.070312 239.089844 L 135.28125 238.6875 C 135.785156 240.195312 136.453125 241.113281 137.207031 241.347656 C 137.941406 241.574219 138.589844 241.097656 138.597656 241.09375 L 139.371094 242.105469 C 139.332031 242.136719 138.601562 242.683594 137.609375 242.683594" fill="inherit"/><path d="M 143.292969 235.550781 C 141.984375 235.550781 140.929688 234.1875 139.972656 231.269531 L 141.183594 230.871094 C 142.222656 234.042969 143.082031 234.324219 143.300781 234.273438 C 144.265625 234.261719 145.5 231.582031 146.027344 229.773438 L 147.253906 230.132812 C 146.988281 231.03125 145.566406 235.515625 143.324219 235.550781 C 143.3125 235.550781 143.300781 235.550781 143.292969 235.550781" fill="inherit"/><path d="M 143.5625 252.964844 C 141.5625 252.964844 139.507812 250.632812 137.289062 245.855469 L 138.445312 245.316406 C 141.136719 251.105469 142.921875 251.785156 143.734375 251.679688 C 145.574219 251.433594 146.988281 247.0625 147.445312 244.363281 L 148.703125 244.578125 C 148.566406 245.386719 147.265625 252.492188 143.90625 252.941406 C 143.789062 252.957031 143.675781 252.964844 143.5625 252.964844" fill="inherit"/><path d="M 155.453125 352.40625 C 152.199219 352.40625 147.949219 339.222656 146.238281 333.441406 L 147.464844 333.078125 C 150.390625 342.980469 154.15625 351.464844 155.429688 351.132812 C 156.675781 350.867188 159.847656 343.460938 149.109375 259.875 C 148.238281 262.253906 146.644531 265.246094 144.09375 265.660156 C 141.246094 266.121094 138.199219 263.417969 134.761719 257.386719 L 135.871094 256.757812 C 138.925781 262.113281 141.695312 264.761719 143.890625 264.402344 C 146.675781 263.949219 148.324219 258.636719 148.726562 256.628906 L 149.484375 252.816406 L 149.984375 256.671875 C 162.210938 351.003906 157.476562 352.003906 155.695312 352.378906 C 155.613281 352.398438 155.53125 352.40625 155.453125 352.40625" fill="inherit"/><path d="M 141.335938 282.132812 C 137.726562 282.132812 134.21875 278.625 130.910156 271.703125 L 132.0625 271.152344 C 135.140625 277.59375 138.257812 280.859375 141.335938 280.859375 C 141.367188 280.859375 141.402344 280.855469 141.433594 280.855469 C 146.019531 280.753906 149.210938 273.328125 149.242188 273.253906 L 150.417969 273.75 C 150.277344 274.085938 146.875 282.007812 141.46875 282.132812 C 141.421875 282.132812 141.378906 282.132812 141.335938 282.132812" fill="inherit"/><path d="M 138.683594 301.097656 C 134.011719 301.097656 129.527344 297.285156 125.347656 289.761719 L 126.460938 289.140625 C 130.398438 296.230469 134.511719 299.824219 138.683594 299.824219 C 138.691406 299.824219 138.699219 299.824219 138.707031 299.824219 C 144.773438 299.804688 149.066406 292.09375 149.109375 292.015625 L 150.230469 292.628906 C 150.042969 292.972656 145.523438 301.078125 138.710938 301.097656 C 138.699219 301.097656 138.691406 301.097656 138.683594 301.097656" fill="inherit"/><path d="M 137.332031 326.761719 C 131.535156 326.761719 124.9375 320.554688 117.699219 308.277344 L 118.796875 307.628906 C 126.109375 320.027344 132.84375 326.175781 138.253906 325.425781 C 144.957031 324.488281 147.90625 313.484375 147.9375 313.375 L 149.171875 313.695312 C 149.042969 314.183594 145.96875 325.636719 138.433594 326.6875 C 138.066406 326.738281 137.699219 326.761719 137.332031 326.761719" fill="inherit"/><path d="M 135.5 367.605469 C 128.597656 367.605469 119.300781 355.609375 107.148438 331.046875 L 108.292969 330.480469 C 123.808594 361.839844 132.203125 367.226562 136.511719 366.214844 C 144.632812 364.316406 144.726562 339.625 144.726562 339.378906 L 146.003906 339.378906 C 146.003906 340.4375 145.898438 365.332031 136.800781 367.460938 C 136.378906 367.558594 135.941406 367.605469 135.5 367.605469" fill="inherit"/><path d="M 132.519531 393.179688 C 125.027344 393.179688 112.445312 379.136719 95.058594 351.359375 L 96.140625 350.683594 C 119.132812 387.410156 129.332031 393.242188 133.839844 391.6875 C 139.179688 389.835938 138.90625 376.261719 138.347656 371.1875 L 139.617188 371.050781 C 139.703125 371.835938 141.644531 390.328125 134.261719 392.894531 C 133.714844 393.082031 133.132812 393.179688 132.519531 393.179688" fill="inherit"/><path d="M 120.296875 406.972656 C 110.726562 406.972656 98.542969 394.660156 84.042969 370.328125 L 85.140625 369.675781 C 103.757812 400.917969 115.226562 406.472656 121.5625 405.609375 C 128.695312 404.652344 131.324219 395.445312 131.351562 395.351562 L 132.582031 395.691406 C 132.464844 396.105469 129.691406 405.808594 121.730469 406.875 C 121.261719 406.941406 120.78125 406.972656 120.296875 406.972656" fill="inherit"/><path d="M 117.488281 443.851562 C 108.980469 443.851562 93.03125 425.324219 70.015625 388.683594 L 71.09375 388.007812 C 101.472656 436.367188 113.824219 444.242188 118.839844 442.34375 C 124.359375 440.242188 123.054688 424.722656 122.085938 418.914062 L 123.34375 418.707031 C 123.492188 419.601562 126.914062 440.636719 119.292969 443.535156 C 118.734375 443.746094 118.132812 443.851562 117.488281 443.851562" fill="inherit"/><path d="M 99.089844 452.265625 C 87.050781 452.265625 71.652344 437.714844 53.269531 408.945312 L 54.34375 408.257812 C 78.367188 445.855469 93.078125 452.160156 101.203125 450.820312 C 111.15625 449.183594 114.566406 435.859375 114.597656 435.726562 L 115.835938 436.03125 C 115.691406 436.613281 112.183594 450.308594 101.410156 452.078125 C 100.652344 452.203125 99.878906 452.265625 99.089844 452.265625" fill="inherit"/><path d="M 174.316406 282.414062 C 160.589844 282.414062 145.800781 226.519531 145.171875 224.109375 L 146.40625 223.785156 C 150.679688 240.117188 164.109375 282.296875 174.714844 281.117188 C 181.019531 280.445312 189.203125 264.105469 192.367188 190.105469 L 193.640625 190.160156 C 191.035156 251.144531 184.886719 281.3125 174.851562 282.390625 C 174.675781 282.40625 174.496094 282.414062 174.316406 282.414062" fill="inherit"/><path d="M 133.90625 427.722656 C 128.714844 427.722656 123.863281 417.292969 123.300781 416.039062 L 124.464844 415.519531 C 125.960938 418.839844 130.671875 427.28125 134.484375 426.378906 C 138.273438 425.492188 144.28125 414.648438 141.960938 352 L 143.238281 351.953125 C 145.03125 400.429688 142.1875 425.886719 134.777344 427.621094 C 134.484375 427.6875 134.195312 427.722656 133.90625 427.722656" fill="inherit"/><path d="M 83.597656 487.496094 C 71.898438 487.496094 57.921875 465.601562 42.042969 422.382812 L 43.242188 421.9375 C 63.144531 476.117188 76.511719 486.78125 84.210938 486.195312 C 94.839844 485.378906 99.394531 463.410156 99.4375 463.1875 L 100.6875 463.4375 C 100.5 464.382812 95.890625 486.582031 84.308594 487.46875 C 84.074219 487.484375 83.835938 487.496094 83.597656 487.496094" fill="inherit"/><path d="M 45.125 52.089844 C 35.949219 52.089844 26.082031 51.699219 15.472656 50.828125 L 15.578125 49.554688 C 79.597656 54.808594 116.441406 42.644531 136.082031 31.519531 C 157.320312 19.484375 163.542969 6.039062 163.605469 5.90625 L 164.769531 6.429688 C 164.515625 6.988281 158.375 20.316406 136.828125 32.5625 C 120.289062 41.960938 91.660156 52.089844 45.125 52.089844" fill="inherit"/><path d="M 155.859375 190.699219 C 153.886719 190.699219 150.089844 189.828125 146.117188 184.226562 L 147.160156 183.488281 C 152.253906 190.679688 156.820312 189.324219 156.867188 189.308594 L 157.253906 190.523438 C 157.191406 190.546875 156.683594 190.699219 155.859375 190.699219" fill="inherit"/><path d="M 166.472656 180.828125 C 162.410156 180.828125 154.820312 179.160156 150.195312 167.828125 L 151.378906 167.347656 C 157.457031 182.238281 168.441406 179.433594 168.910156 179.308594 L 169.246094 180.535156 C 169.210938 180.546875 168.136719 180.828125 166.472656 180.828125" fill="inherit"/><path d="M 180.027344 165.546875 C 173.109375 165.546875 162.601562 162.90625 153.140625 149.777344 L 154.175781 149.03125 C 169.3125 170.039062 186.511719 163.457031 187.234375 163.167969 L 187.710938 164.351562 C 187.636719 164.382812 184.625 165.546875 180.027344 165.546875" fill="inherit"/><path d="M 199.113281 145.820312 C 189.332031 145.820312 172.328125 143.136719 157.65625 127.1875 L 158.59375 126.324219 C 180.105469 149.703125 206.628906 143.949219 206.898438 143.886719 L 207.183594 145.128906 C 207.09375 145.152344 204.003906 145.820312 199.113281 145.820312" fill="inherit"/><path d="M 216.707031 135.5625 C 205.960938 135.5625 187.449219 123.789062 161.523438 100.433594 L 162.378906 99.484375 C 199.589844 133.007812 214.753906 136.4375 220.925781 133.410156 C 225.65625 131.085938 225.230469 124.632812 225.226562 124.566406 L 226.496094 124.472656 C 226.519531 124.769531 226.988281 131.855469 221.488281 134.554688 C 220.117188 135.226562 218.519531 135.5625 216.707031 135.5625" fill="inherit"/><path d="M 239.261719 115.734375 C 226.03125 115.734375 200.601562 99.269531 163.445312 66.621094 L 164.289062 65.664062 C 217.769531 112.65625 237.28125 117.480469 244.234375 113.246094 C 250 109.738281 247.492188 99.367188 247.46875 99.261719 L 248.703125 98.953125 C 248.820312 99.414062 251.453125 110.34375 244.898438 114.335938 C 243.367188 115.269531 241.484375 115.734375 239.261719 115.734375" fill="inherit"/><path d="M 253.617188 72.640625 C 237.082031 72.640625 209.535156 64.15625 165.707031 29.960938 L 166.492188 28.953125 C 216.617188 68.058594 245.125 73.320312 260.203125 70.855469 C 271.019531 69.082031 274.949219 63.296875 274.988281 63.238281 L 276.054688 63.941406 C 275.882812 64.199219 271.769531 70.253906 260.410156 72.113281 C 258.386719 72.441406 256.128906 72.640625 253.617188 72.640625" fill="inherit"/><path d="M 263.105469 33.800781 C 241.417969 33.800781 207.765625 26.289062 163.488281 -6.078125 L 164.242188 -7.109375 C 211.878906 27.71875 247.054688 33.589844 268.175781 32.382812 C 290.960938 31.078125 302.644531 21.511719 302.761719 21.417969 L 303.578125 22.394531 C 303.09375 22.800781 291.453125 32.328125 268.246094 33.65625 C 266.617188 33.746094 264.898438 33.800781 263.105469 33.800781" fill="inherit"/><path d="M 168.351562 197.246094 C 167.613281 197.246094 166.726562 197.097656 165.800781 196.605469 C 163.277344 195.261719 161.554688 191.972656 160.683594 186.835938 L 161.945312 186.621094 C 162.734375 191.285156 164.273438 194.347656 166.402344 195.480469 C 168.171875 196.421875 169.753906 195.726562 169.773438 195.71875 L 170.296875 196.882812 C 170.242188 196.90625 169.46875 197.246094 168.351562 197.246094" fill="inherit"/><path d="M 155.203125 200.320312 C 155.117188 200.296875 152.992188 199.75 152 197.976562 C 151.425781 196.949219 151.351562 195.75 151.773438 194.40625 L 152.988281 194.789062 C 152.675781 195.785156 152.71875 196.644531 153.113281 197.355469 C 153.828125 198.632812 155.496094 199.078125 155.515625 199.082031 L 155.203125 200.320312" fill="inherit"/><path d="M 183.398438 199.035156 C 183.332031 199.035156 183.269531 199.035156 183.203125 199.027344 C 181.128906 198.835938 178.078125 196.058594 175.566406 174.253906 L 176.835938 174.109375 C 179.257812 195.136719 182.175781 197.652344 183.320312 197.757812 C 184.742188 197.867188 186.507812 194.386719 187.289062 191.855469 L 188.507812 192.234375 C 188.289062 192.941406 186.324219 199.035156 183.398438 199.035156" fill="inherit"/><path d="M 201.71875 190.613281 C 201.101562 190.613281 200.472656 190.511719 199.84375 190.269531 C 194.582031 188.28125 191.957031 177.714844 192.046875 158.867188 L 193.320312 158.871094 C 193.214844 181.609375 197.054688 187.847656 200.289062 189.078125 C 203.777344 190.398438 207.585938 186.140625 207.621094 186.097656 L 208.582031 186.9375 C 208.429688 187.109375 205.316406 190.613281 201.71875 190.613281" fill="inherit"/><path d="M 224.199219 189.160156 C 223.9375 189.160156 223.671875 189.140625 223.402344 189.097656 C 216.550781 187.972656 211.617188 172.101562 208.742188 141.914062 L 210.015625 141.792969 C 213.519531 178.578125 219.339844 187.136719 223.609375 187.835938 C 228.808594 188.683594 233.632812 178.070312 233.679688 177.960938 L 234.84375 178.480469 C 234.640625 178.9375 230.007812 189.160156 224.199219 189.160156" fill="inherit"/><path d="M 247.054688 175.328125 C 246.28125 175.328125 245.460938 175.199219 244.617188 174.882812 C 236.238281 171.742188 231.394531 152.910156 230.222656 118.90625 L 231.496094 118.863281 C 232.933594 160.511719 239.667969 171.664062 245.0625 173.6875 C 249.03125 175.175781 252.476562 171.550781 252.511719 171.511719 L 253.441406 172.382812 C 253.308594 172.527344 250.644531 175.328125 247.054688 175.328125" fill="inherit"/><path d="M 270.695312 169.472656 C 270.628906 169.472656 270.5625 169.46875 270.492188 169.460938 C 264.425781 168.953125 258.605469 143.230469 253.191406 93.007812 L 254.464844 92.871094 C 261.71875 160.238281 268.164062 167.988281 270.597656 168.191406 C 272.304688 168.347656 273.691406 164.667969 274.054688 163.375 L 275.285156 163.71875 C 275.117188 164.320312 273.582031 169.472656 270.695312 169.472656" fill="inherit"/><path d="M 301.917969 151.175781 C 301.035156 150.46875 280.28125 132.941406 276.796875 60.75 L 278.070312 60.6875 C 281.519531 132.171875 302.507812 150.011719 302.71875 150.183594 L 301.917969 151.175781" fill="inherit"/><path d="M 348.761719 152.214844 C 335.769531 152.214844 316.621094 114.652344 291.824219 40.503906 L 293.035156 40.101562 C 324.359375 133.765625 341.019531 152.035156 349.480469 150.890625 C 359.9375 149.457031 361.640625 118.105469 361.652344 117.789062 L 362.929688 117.855469 C 362.863281 119.191406 361.152344 150.578125 349.652344 152.152344 C 349.359375 152.195312 349.0625 152.214844 348.761719 152.214844" fill="inherit"/><path d="M 390.78125 99.644531 C 389.058594 99.644531 379.160156 99.136719 365.328125 88.339844 C 351.65625 77.664062 331.40625 54.394531 312.566406 4.160156 L 313.761719 3.710938 C 349.550781 99.148438 390.550781 98.378906 390.976562 98.363281 L 391.03125 99.636719 C 391 99.640625 390.914062 99.644531 390.78125 99.644531" fill="inherit"/><path d="M 276.90625 178.8125 C 271.003906 178.8125 265.238281 175.726562 259.734375 169.609375 L 260.683594 168.757812 C 266.71875 175.460938 273.019531 178.347656 279.410156 177.339844 C 295.445312 174.796875 307.253906 148.667969 307.371094 148.402344 L 308.535156 148.921875 C 308.046875 150.023438 296.332031 175.949219 279.609375 178.597656 C 278.703125 178.742188 277.804688 178.8125 276.90625 178.8125" fill="inherit"/></g></svg>