<?xml version="1.0" encoding="UTF-8"?><svg xmlns="http://www.w3.org/2000/svg" xmlns:xlink="http://www.w3.org/1999/xlink" height="500.2" preserveAspectRatio="xMidYMid meet" version="1.0" viewBox="-0.2 -0.2 498.4 500.2" width="498.4" zoomAndPan="magnify"><g id="change1_1"><path d="M481.919,324.765c-5.912-7.312-12.026-14.873-14.094-21.372c-2.688-8.448,1.311-12.549,4.526-15.845 c1.159-1.189,2.317-2.404,2.907-3.72c9.538,1.937,16.514,3.33,19.869,3.997c0.158,0.031,0.313,0.045,0.469,0.045 c1.113,0,2.109-0.785,2.335-1.918c0.256-1.291-0.582-2.546-1.873-2.804c-7.322-1.456-15.009-3.003-22.954-4.62 c-35.863-27.698-17.213-83.306-11.229-95.557c15.914-4.187,26.473-7.072,28.22-7.55c1.269-0.348,2.017-1.659,1.668-2.928 c-0.346-1.269-1.653-2.02-2.928-1.668c-0.448,0.123-11.228,3.067-28.142,7.504c-43.082-28.305-30.915-61.097-25.095-74.148 c9.201-7.234,15.931-13.283,19.016-17.499c0.777-1.063,0.546-2.554-0.517-3.332c-1.061-0.781-2.554-0.548-3.332,0.517 c-3.212,4.39-10.728,10.97-21.08,18.921c-29.96,16.32-47.799,13.807-57.578,8.558c-11.245-6.03-16.145-17.501-17.125-26.222 l11.756-15.43c0.798-1.047,0.596-2.543-0.452-3.341c-1.047-0.799-2.545-0.596-3.341,0.452l-12.188,15.997 c-8.753,3.531-17.316,3.335-25.474-0.693c-21.317-10.525-34.056-43.061-37.015-53.001l1.955-9.404 c0.268-1.289-0.56-2.551-1.848-2.82c-1.297-0.268-2.553,0.557-2.82,1.848l-0.905,4.354c-0.366-1.013-0.619-1.824-0.62-2.166 c-0.003-0.875-0.714-1.586-1.589-1.586c-0.002,0-0.002,0-0.003,0c-0.877,0.002-1.586,0.709-1.586,1.586 c0,1.26,0.81,3.394,2.348,7.193c-13.411,12.679-26.817,17.851-39.849,15.324c-17.825-3.45-30.427-20.31-35.795-30.891l-1.984-10.603 c-0.242-1.294-1.499-2.145-2.781-1.904c-1.294,0.242-2.148,1.488-1.906,2.781l1.489,7.957 c-21.291,30.834-55.912,20.317-66.125,16.306c-3.1-6.949-4.903-11.104-5.016-11.365c-0.521-1.21-1.926-1.769-3.133-1.243 c-1.209,0.523-1.764,1.926-1.243,3.133c0.47,1.088,2.571,5.931,5.924,13.454c4.218,33.216-1.956,60.826-18.43,82.065 c-17.125,22.081-40.233,30.243-47.496,31.877c-10.222-5.337-16.563-8.72-16.873-8.886c-1.153-0.618-2.604-0.185-3.226,0.979 c-0.621,1.161-0.182,2.605,0.979,3.226c1.212,0.648,7.561,4.036,17.311,9.135c1.847,3.352,1.939,6.423,0.267,9.339 c-5.494,9.584-29.735,15.815-48.392,15.427c-8.558-2.08-13.656-3.338-13.967-3.415c-1.28-0.318-2.571,0.466-2.886,1.741 c-0.317,1.279,0.464,2.571,1.741,2.886c1.054,0.261,5.2,1.284,11.687,2.867c47.951,35.056,43.451,75.963,37.288,89.95 c-3.539,0.706-6.852,1.363-9.875,1.956c-1.291,0.253-2.134,1.507-1.879,2.798c0.223,1.137,1.22,1.924,2.335,1.924 c0.152,0,0.307-0.014,0.462-0.045c0.991-0.195,4.75-0.935,10.595-2.105c17.151,8.362,26.493,19.664,27.729,33.633 c1.778,20.095-13.639,40.908-22.705,50.193l-26.979,18.86c-1.078,0.754-1.342,2.241-0.588,3.319c0.757,1.08,2.242,1.342,3.319,0.588 l21.562-15.073c21.642,6.381,35.39,17.028,40.831,31.686c6.865,18.493-0.869,39.509-7.391,52.358 c-14.85,22.2-25.885,39.659-29.922,48.257c-0.56,1.192-0.048,2.612,1.144,3.17c0.327,0.154,0.672,0.227,1.012,0.227 c0.895,0,1.753-0.506,2.158-1.37c3.414-7.271,11.99-21.091,23.726-38.865c42.342-33.396,69.13-35.926,84.218-32.056 c11.44,2.935,17.791,9.857,20.299,14.419c-2.012,7.119-3.226,11.323-3.301,11.582c-0.366,1.265,0.362,2.587,1.625,2.953 c0.222,0.065,0.445,0.095,0.666,0.095c1.033,0,1.986-0.678,2.287-1.719c0.079-0.273,1.434-4.964,3.654-12.831 c13.399-16.623,26.971-24.714,40.504-24.006c13.562,0.715,23.448,10.353,27.357,15.584l4.182,43.291 c0.119,1.232,1.156,2.154,2.37,2.154c0.078,0,0.154-0.003,0.233-0.011c1.31-0.127,2.269-1.291,2.143-2.602l-4.117-42.618 c7.582-11.099,18.121-17.621,31.419-19.292c24.646-3.087,51.098,11.023,58.754,16.533c10.502,19.54,14.612,28.519,15.5,31.909 c0.281,1.071,1.248,1.78,2.304,1.78c0.2,0,0.403-0.025,0.605-0.078c1.274-0.334,2.036-1.637,1.702-2.91 c-1.115-4.255-6.346-15.092-15.604-32.361c0.623-15.365,6.175-27.045,16.623-34.653c12.284-8.947,27.748-9.843,35.459-9.155 l16.782,15.853c0.461,0.434,1.049,0.65,1.637,0.65c0.633,0,1.263-0.25,1.733-0.746c0.903-0.957,0.86-2.466-0.096-3.37 l-13.785-13.022l-0.342-0.832c-5.18-12.596-5.636-23.793-1.355-33.283c5.411-11.992,17.037-18.013,21.311-19.885 c14.197,8.573,25.239,16.704,30.829,23.91c0.47,0.605,1.175,0.922,1.885,0.922c0.511,0,1.026-0.163,1.46-0.5 c1.04-0.807,1.229-2.304,0.422-3.346c-10.062-12.967-35.225-27.972-65.729-43.553c-2.475-7.938-2.071-14.549,1.285-19.637 c5.774-8.751,18.951-11.609,28.005-12.525c12.429,2.597,23.601,4.892,32.755,6.756c-0.391,0.549-1.016,1.229-1.927,2.163 c-3.403,3.49-8.544,8.763-5.279,19.026c2.25,7.071,8.555,14.867,14.652,22.407c7.051,8.719,14.341,17.735,14.558,24.746 c0.298,9.639-1.018,11.858-1.325,12.242c-0.618,0.219-1.06,0.807-1.06,1.499c0,0.878,0.711,1.589,1.589,1.589 c0.273,0,0.985-0.079,1.701-0.818c1.775-1.831,2.518-6.61,2.272-14.611C496.932,343.33,489.639,334.313,481.919,324.765z M466.684,277.218c-8-1.638-16.226-3.34-24.585-5.088c-11.34-11.292-16.525-23.867-15.289-37.428 c2.263-24.811,24.596-45.337,30.878-50.63c0.081-0.021,0.162-0.042,0.242-0.063C451.189,199.915,437.074,249.002,466.684,277.218z M395.851,360.934l-24.617-23.254c-7.304-14.927,1.431-26.312,4.424-29.564c3.632-3.943,7.391-5.931,9.802-6.379 c5.509,2.679,10.953,5.364,16.282,8.045c-3.808,0.722-7.975,2.429-10.723,6.766C385.831,324.737,387.42,339.317,395.851,360.934z M288.004,43.053c0,2.379-2.32,6.753-4.893,10.864l3.514-16.901C287.425,39.394,288.004,41.583,288.004,43.053z M373.879,257.419 c-9.451-2.107-18.728-4.207-27.684-6.275c-1.943-2.317-3.06-5.192-3.29-8.62c-0.792-11.793,8.628-26.885,16.24-34.111 c10.069-2.306,20.149-4.685,30-7.062c-16.51,13.439-19.832,27.986-20.211,36.104C368.579,245.025,370.454,252.23,373.879,257.419z M296.393,363.262c-12.799,2.521-23.736,10.05-32.633,22.287l-2.096-21.699c7.904-14.89,19.578-19.856,29.646-20.949 c3.308,2.604,5.081,5.308,5.248,8.051c0.236,3.892-2.883,6.739-2.91,6.764c-0.658,0.58-0.72,1.584-0.138,2.242 c0.582,0.659,1.586,0.722,2.242,0.138c0.175-0.154,4.287-3.853,3.98-9.295c-0.162-2.855-1.514-5.582-3.98-8.153 c6.263-0.045,11.444,1.184,13.996,1.931c0.6,1.037,1.189,2.059,1.779,3.079c-1.504,5.707-2.152,10.609-2.235,14.844 C305.313,362.223,300.948,362.368,296.393,363.262z M127.225,204.98c10.272,6.886,12.784,15.904,13.014,22.462 c0.362,10.279-4.479,19.863-8.663,23.947c-3.862,0.842-7.718,1.677-11.551,2.501c7.252-16.61,8.647-30.561,4-41.444 c-1.777-4.161-4.203-7.308-6.646-9.681C120.653,203.506,123.937,204.245,127.225,204.98z M208.113,93.549 c0.143,0.143,0.577,0.577,0.25,1.893c-0.866,3.484-5.644,8.223-8.446,9.084c-0.839,0.258-1.31,1.147-1.052,1.986 c0.258,0.836,1.147,1.307,1.986,1.052c3.71-1.142,9.444-6.716,10.597-11.356c0.628-2.529-0.245-4.064-1.024-4.838 c-2.303-2.591,0.087-6.708,3.45-11.823c0.368-0.56,0.722-1.103,1.064-1.639l2.844,15.199c-0.708,6.587-2.68,14.516-9.144,18.996 c-6.742,4.678-17.446,4.917-31.746,0.821c-4.951-9.82-9.714-19.523-14.177-28.789c10.262,4.643,24.216,5.805,35.714,2.539 c3.85-1.096,7.228-2.615,10.085-4.522C206.364,86.041,205.108,90.171,208.113,93.549z M279.582,108.329 c-2.197-3.998-3.778-8.825-4.793-14.385l0.424-2.041c1.243,1.715,2.576,3.637,3.766,6.003 C280.582,101.091,280.726,104.599,279.582,108.329z M270.307,122.105c0.248,0.312,0.698,0.683,1.418,0.683 c0.503,0,1.137-0.18,1.929-0.689c1.487-0.954,4.234-3.608,6.462-7.228c2.264,2.823,4.909,5.148,7.938,6.953 c10.104,6.021,22.135,5.04,30.625,3.084l-17.527,23.004c-18.03,4.039-26.714-3.345-34.852-13.139l6.962-33.487 c1.233,4.062,2.841,7.655,4.834,10.753c-2.154,4.036-5.183,6.885-6.327,7.499c-0.407-0.062-0.858,0.045-1.215,0.334 C269.867,120.42,269.757,121.421,270.307,122.105z M348.817,178.631c6.371,10.255,23.493,16.35,36.754,18.613 c-9.188,2.207-18.554,4.41-27.902,6.55c-15.863-3.373-18.996-14.388-21.744-24.176c-0.624-2.221-1.266-4.293-1.989-6.254 c4.304-2.735,8.646-5.507,12.999-8.302C345.575,169.843,346.182,174.389,348.817,178.631z M339.735,242.738 c0.185,2.76,0.893,5.199,2.009,7.375c-8.978-2.087-17.601-4.134-25.719-6.115c-5.663-7.72-3.496-15.024-1.201-22.755 c0.34-1.144,0.644-2.289,0.958-3.433c12.168-2.457,24.93-5.219,37.793-8.129C346.251,218.156,338.982,231.546,339.735,242.738z M316.818,333.573c-1.29-4.267-5.11-6.266-8.866-8.208c-2.059-1.064-4.146-2.163-5.931-3.612c-1.317-2.265-2.641-4.539-3.992-6.858 c-0.686-5.624,1.01-10.683,4.892-14.435c4.31-4.166,10.664-5.894,16.931-4.762l29.056,27.448 C332.666,320.854,322.558,327.373,316.818,333.573z M292.431,339.772c-0.193-0.141-0.365-0.285-0.565-0.426l-0.29-0.161 c-2.146-0.909-4.606-1.806-7.219-2.756c-9.925-3.611-22.054-8.046-27.021-17.371l-2.862-29.625c1.166-1.583,2.933-3.137,5.254-4.556 c4.67-2.857,9.925-4.233,12.702-4.285c13.315,22.67,24.962,42.64,35.136,60.216C303.894,340.036,298.488,339.304,292.431,339.772z M133.046,255.962c5.336,1.168,8.782,3.558,10.246,7.128c3.967,9.661-6.132,26.698-14.656,38.849 c7.593-23.199,1.379-36.211-7.122-43.48C125.316,257.641,129.169,256.807,133.046,255.962z M166.181,248.561 c9.016,3.285,14.691,13.713,14.274,22.059l-50.995,35.648c9.389-12.977,21.646-32.51,16.771-44.387 c-1.3-3.166-3.717-5.575-7.181-7.234C148.1,252.659,157.228,250.615,166.181,248.561z M173.9,219.434 c-0.422-1.771-1.112-3.353-2.014-4.759c5.472,1.144,10.829,2.244,16.031,3.289c1.27,1.195,2.104,2.741,2.453,4.646 c0.958,5.217-1.673,11.942-5.016,16.563c-5.279,1.262-10.732,2.54-16.3,3.824C172.999,236.173,175.625,226.663,173.9,219.434z M178.815,116.729c13.889,3.539,24.544,2.903,31.633-2.013c4.808-3.334,7.438-8.171,8.921-13.124l5.181,27.691 c-3.066,4.539-7.9,6.536-11.599,7.389c-9.392,2.165-20.528-0.548-26.154-4.46C184.102,127.064,181.435,121.889,178.815,116.729z M303.931,154.298c3.347,7.679,7.44,16.98,21.339,18.864c-8.019,5.074-15.837,9.98-23.275,14.619 c-5.856-0.061-8.784-5.029-11.14-18.489l12.463-16.357C303.521,153.393,303.726,153.828,303.931,154.298z M329.571,275.192 c-4.239,1.833-7.471,4.591-9.141,7.956c-0.836,1.685-1.218,3.492-1.247,5.361l-15.572-14.71c-0.73-2.177-0.688-4.435,0.169-6.433 c0.621-1.447,1.601-2.559,2.778-3.235C313.87,267.713,321.586,271.405,329.571,275.192z M286.032,294.361 c-0.829-4.461,0.228-8.937,3.053-12.189c2.917-3.357,7.195-4.856,11.931-4.266l15.113,14.277 c-5.796-0.001-11.368,2.078-15.417,5.992c-3.203,3.095-5.161,7.039-5.754,11.457C292.054,304.655,289.087,299.578,286.032,294.361z M254.063,285.172l-1.722-17.83c1.986-1.295,5.698-1.466,11.949-0.594c2.16,3.669,4.281,7.275,6.361,10.814 c-3.769,0.483-8.593,2.166-12.579,4.603C256.767,282.963,255.358,283.978,254.063,285.172z M193.497,222.036 c-0.212-1.152-0.602-2.193-1.08-3.174c3.092,0.613,6.12,1.203,9.075,1.769c1.126,5.683-0.172,11.718-1.614,15 c-3.258,0.812-6.621,1.637-10.066,2.469C192.552,233.29,194.453,227.255,193.497,222.036z M281.563,213.441 c1.187,1.976,3.101,3.592,5.695,4.854c-3.61,0.621-7.096,1.189-10.457,1.706c-5.318-3.136-6.301-4.74-6.394-7.075 c3.031-1.853,6.284-3.846,9.73-5.965C279.988,209.404,280.445,211.581,281.563,213.441z M288.546,249.653 c-4.442-2.33-8.647-4.608-12.566-6.824c0.145-0.835,0.49-1.962,1.134-3.002c0.252-0.407,0.493-0.695,0.721-0.928 c4.358,1.253,9.068,2.55,14.083,3.883c-0.793,0.782-1.493,1.691-2.053,2.737C289.156,246.842,288.734,248.263,288.546,249.653z M274.721,200.495c0.764,1.005,1.745,1.788,2.893,2.39c-3.556,2.188-6.926,4.257-10.034,6.159c-1.863-0.835-2.337-2.604-2.441-6 l7.447-9.774C272.642,195.893,273.187,198.478,274.721,200.495z M272.068,220.705c-6.599,0.946-12.593,1.649-17.825,2.057 c3.48-2.106,7.958-4.825,13.217-8.035C267.89,216.814,269.116,218.578,272.068,220.705z M266.196,260.593 c-2.069-3.512-4.175-7.082-6.3-10.684c0.048-0.985,0.371-1.809,1.052-2.444c1.259-1.177,3.481-1.736,5.843-1.889l9.906,9.357 c-3.052,0.09-5.595,0.795-7.534,2.188C267.915,258.017,266.945,259.198,266.196,260.593z M222.049,271.664 c-1.658-0.227-3.324-0.099-4.989,0.314c2-2.848,3.909-5.572,5.736-8.181c4.091-0.793,8.731,1.57,11.597,3.684 c-0.633,3.311-1.312,6.725-2.023,10.206C229.762,274.833,226.309,272.244,222.049,271.664z M219.211,256.916 c-1.676-1.586-3.771-2.687-6.048-3.343l8.031-5.614c0.789-0.014,1.456,0.12,1.986,0.441c0.89,0.539,1.567,1.648,2.133,3.457 c-1.504,2.162-3.065,4.4-4.679,6.71C220.225,258.001,219.766,257.442,219.211,256.916z M219.9,190.13 c2.427,0.286,5.407,0.18,8.345-1.12c2.585-1.144,4.709-3.081,6.417-5.683l2.61,13.947c-0.982,2.087-2.301,3.525-3.968,4.224 c-2.038,0.851-4.221,0.523-5.661,0.122C225.112,198.045,222.525,194.196,219.9,190.13z M258.569,203.804l-9.107,11.953l3.051-14.673 C253.764,202.6,255.571,203.82,258.569,203.804z M262.335,206.725c0.341,1.616,0.973,3.084,2.217,4.171 c-3.792,2.317-7.209,4.398-10.07,6.136L262.335,206.725z M263.825,242.774c-1.943,0.409-3.735,1.144-5.046,2.368 c-0.345,0.322-0.677,0.738-0.987,1.201c-2.035-3.447-4.079-6.908-6.165-10.436l-2.777-4.7l-0.099-1.029 c2.605,2.418,5.895,4.96,9.809,7.621L263.825,242.774z M224.828,245.682c-0.074-0.045-0.166-0.052-0.242-0.094l9.791-6.845 c-2.09,3.051-4.401,6.399-6.893,9.991C226.863,247.507,226.035,246.414,224.828,245.682z M238.793,240.731 c-0.458,3.576-1.017,7.396-1.677,11.454c-1.419-1.039-3.089-1.747-4.82-2.02C234.673,246.734,236.858,243.563,238.793,240.731z M230.163,253.241c0.451-0.071,0.884-0.071,1.145-0.048c1.73,0.139,3.821,1.114,5.187,2.711c-0.451,2.638-0.94,5.364-1.458,8.158 c-2.72-1.784-6.281-3.406-9.908-3.596C226.89,257.942,228.577,255.522,230.163,253.241z M244.275,234.703l0.254,1.358l1.738,17.989 c-1.334-0.601-2.708-0.912-3.927-0.912c-0.193,0-0.38,0.009-0.564,0.022C242.891,246.335,243.742,240.129,244.275,234.703z M245.111,213.26l-2.559-13.679c1.746,0.495,3.565,0.456,5.43-0.126L245.111,213.26z M234.505,204.441 c1.386-0.576,2.578-1.487,3.61-2.658l3.164,16.909c-3.499-3.704-7.201-8.244-11.054-13.483 C231.573,205.236,233.046,205.047,234.505,204.441z M229.863,212.611c2.731,3.495,5.387,6.635,7.945,9.347 c-2.394-0.323-4.957-0.698-7.679-1.123c-1.562-0.476-3.207-1.007-4.919-1.585c1.77-1.305,3.344-2.998,4.221-5.127 C229.634,213.628,229.743,213.119,229.863,212.611z M229.285,225.537c1.327,0.399,2.59,0.754,3.807,1.078 c-4.304,1.329-9.292,2.755-14.811,4.25c0.752-2.247,1.385-4.793,1.472-6.897C223.095,224.543,226.284,225.07,229.285,225.537z M238.877,229.649l-0.213,0.28l-18.085,12.642c0.032-2.616-0.196-5.161-1.317-7.096 C226.827,233.409,233.475,231.448,238.877,229.649z M241.215,256.521c0.237-0.078,0.464-0.165,0.761-0.19 c1.362-0.101,3.202,0.422,4.675,1.702l0.603,6.241c-2.336-0.741-4.991-0.909-7.367-0.291 C240.358,261.432,240.802,258.942,241.215,256.521z M249.932,242.407c1.567,2.652,3.115,5.273,4.644,7.864 c-1.001,0.074-2.015,0.315-2.974,0.88c-0.273,0.161-0.523,0.359-0.771,0.558L249.932,242.407z M261.428,233.951l-0.259-0.244 c3.839,1.331,8.342,2.752,13.416,4.247c-0.684,1.045-1.175,2.19-1.476,3.233C268.775,238.677,264.853,236.259,261.428,233.951z M256.858,227.331c5.505-0.491,11.731-1.267,18.514-2.273c-0.682,1.719-1.133,3.787-1.052,5.872c0.03,0.788,0.157,1.528,0.332,2.241 C267.045,230.961,260.982,228.989,256.858,227.331z M261.273,200.254c-4.927,1.306-6.127-0.614-7.674-3.224 c-0.059-0.1-0.125-0.189-0.184-0.288l3.045-14.643c2.499,4.192,6.474,7.191,13.604,6.617L261.273,200.254z M248.767,195.677 c-2.499,1.343-4.782,1.384-6.918,0.146l-2.846-15.212c4.252,1.819,8.343,1.492,13.117-1.057L248.767,195.677z M233.709,178.232 c-1.564,3.862-3.792,6.555-6.727,7.863c-3.589,1.595-7.379,0.911-9.459,0.312c-2.623-4.156-5.277-8.504-7.951-13.021 c7.132,1.015,16.163-0.295,21.264-4.602c0.348-0.293,0.634-0.61,0.932-0.921L233.709,178.232z M216.661,193.941 c3.422,5.241,6.784,10.124,10.052,14.534c0.413,1.592,0.341,3.075-0.22,4.436c-0.91,2.207-3.019,3.876-5.147,4.999 c-5.358-1.913-11.309-4.238-17.67-6.864c5.321-3.434,10.28-10.032,12.525-15.653C216.408,194.88,216.505,194.427,216.661,193.941z M203.557,216.148c-0.023-0.004-0.045-0.009-0.068-0.013c-0.002-0.006-0.005-0.012-0.007-0.017 C203.507,216.128,203.533,216.138,203.557,216.148z M216.63,223.424c0.004,1.692-0.713,5.059-2.084,8.443 c-3.465,0.919-7.105,1.861-10.911,2.822c1.179-3.606,1.953-8.523,1.239-13.414C208.958,222.046,212.881,222.763,216.63,223.424z M215.915,236.381c1.513,1.434,1.611,4.306,1.405,8.469l-8.134,5.687c-0.499-3.757-2.064-8.302-4.419-11.247 C208.638,238.303,212.364,237.332,215.915,236.381z M209.564,256.089c3.985,0.246,6.491,2.218,7.463,3.137 c0.819,0.775,1.322,1.521,1.626,2.175c-2.467,3.526-5.041,7.195-7.702,10.982c-0.8-4.349-2.163-9.183-8.907-11.037L209.564,256.089z M213.488,277.063c2.77-1.82,5.502-2.609,8.133-2.25c4.221,0.575,7.603,3.783,9.931,6.839c-0.795,3.81-1.627,7.696-2.497,11.653 c-6.067-7.482-12.938-10.585-20.538-9.177C210.234,281.689,211.873,279.359,213.488,277.063z M205.618,288.242 c11.044-4.161,18.053,2.638,22.554,9.054c-1.145,5.135-2.344,10.365-3.579,15.644c-6.787-7.261-17.532-13.116-27.303-12.888 C200.187,295.947,202.952,292.025,205.618,288.242z M232.819,298.304c7.694-4.467,15.137,0.647,18.025,3.115l1.054,10.911 c-2.709-1.582-6.266-2.565-10.272-2.708c-4.514-0.162-8.704,0.758-11.947,2.458C230.759,307.436,231.809,302.835,232.819,298.304z M250.435,297.193c-3.854-2.58-10.084-5.36-16.745-2.827c0.863-3.927,1.69-7.787,2.481-11.573c1.354-0.537,2.692-0.602,4.054-0.193 c5.631,1.698,9.646,10.594,9.686,10.684l0.187,0.421L250.435,297.193z M241.149,279.559c-1.428-0.433-2.851-0.482-4.261-0.231 c0.819-3.991,1.592-7.887,2.309-11.66c2.287-1.192,5.81-1.146,8.398,0.127l1.775,18.377 C247.366,283.452,244.56,280.59,241.149,279.559z M251.292,256.487c0.498-1.235,1.132-2.131,1.924-2.598 c0.817-0.483,1.888-0.597,3.287-0.353c1.947,3.301,3.856,6.54,5.742,9.741c-4.265-0.463-7.688-0.379-10.235,0.653L251.292,256.487z M271.016,259.703c2.059-1.477,5.206-1.899,9.264-1.385l2.931,2.769c-1.674,0.48-3.189,1.3-4.516,2.504 c-2.864,2.601-4.317,6.41-5.071,9.624c-1.775-3.02-3.591-6.103-5.41-9.193C268.74,262.115,269.654,260.681,271.016,259.703z M277.643,249.269c2.358,1.296,4.806,2.611,7.34,3.946c-0.904,0.232-1.696,0.477-2.363,0.754L277.643,249.269z M278.523,234.279 c-0.615-0.961-0.975-2.111-1.027-3.472c-0.099-2.526,0.841-5.042,1.73-6.336c4.238-0.662,8.672-1.406,13.264-2.221 c-1.893,4.801-2.404,10.923-0.327,15.731C287.258,236.693,282.699,235.457,278.523,234.279z M281.031,200.78 c-1.681-0.364-2.931-1.091-3.781-2.208c-1.49-1.958-1.793-5.312-1.058-10.036l12.053-15.819c1.626,8.331,4.067,15.34,9.792,17.53 C292.039,193.98,286.338,197.509,281.031,200.78z M272.813,185.108c-9.891,2.081-13.177-2.379-15.287-8.137l3.201-15.398 c0.318,0.299,0.644,0.567,0.968,0.877c4.232,4.052,8.977,8.584,22.668,7.498L272.813,185.108z M253.01,175.267 c-6.483,4.296-10.505,3.997-14.748,1.388l-2.558-13.672c4.972,1.481,12.361,1.734,20.201-1.637L253.01,175.267z M230.939,163.428 c-0.383,1.053-1.084,2.026-2.151,2.927c-4.478,3.778-14.379,5.22-21.373,3.355c-2.902-4.977-5.818-10.126-8.73-15.387 c9.712-0.986,22.138-5.23,27.889-14.223L230.939,163.428z M214.253,190.208c-0.067,1.108-0.385,2.465-1.001,4.007 c-2.325,5.819-8.136,12.982-13.391,15.242c-3.302-1.389-6.698-2.848-10.177-4.372c6.081-5.23,14.779-17.986,17.393-26.486 C209.486,182.61,211.881,186.489,214.253,190.208z M198.835,214.199c0.269,0.382,0.505,0.781,0.734,1.181 c-3.257-0.633-6.6-1.294-10.013-1.98c0.321-1.055,0.445-2.033,0.45-2.959C193.017,211.746,195.958,212.997,198.835,214.199z M201.303,240.164c2.586,2.107,4.882,8.357,4.917,12.445l-7.767,5.43c0.163-5.586-0.323-11.995-6.214-15.631 C195.327,241.654,198.352,240.906,201.303,240.164z M198.404,263.89c7.983,0.832,8.713,4.987,9.617,10.16 c0.114,0.653,0.27,1.286,0.399,1.932c-1.487,2.114-2.995,4.256-4.525,6.429c-1.524-5.855-4.84-12.401-10.899-14.741L198.404,263.89z M189.587,270.054c7.334,1.028,10.762,9.643,11.818,15.892c-2.301,3.265-4.643,6.586-7.011,9.941 c-0.579-8.68-3.463-17.767-9.185-22.774L189.587,270.054z M182.585,274.949c6.377,4.928,8.961,15.929,8.745,25.282 c-2.306,3.267-4.629,6.559-6.965,9.868c-3.536,5.009-7.136,10.108-10.77,15.258c-1.567-14.124-5.592-23.401-12.06-27.487 c-2.468-1.558-5.255-2.348-8.332-2.38L182.585,274.949z M188.26,312.847c2.28-3.229,4.478-6.343,6.635-9.4 c9.855-1.525,22.157,5.196,28.802,13.304c-2.253,9.535-4.618,19.202-7.015,28.764c-5.903-7.111-20.332-23.326-38.437-18.479 C181.623,322.249,184.968,317.51,188.26,312.847z M228.606,316.662c2.69-2.53,7.599-4.034,12.907-3.863 c4.711,0.169,8.732,1.642,10.789,3.711l2.357,24.395c-3.043-2.668-7.62-5.548-13.473-5.867c-6.339-0.355-12.711,2.428-19.022,8.168 C224.366,334.365,226.535,325.455,228.606,316.662z M280.832,265.943c1.461-1.326,3.206-2.011,5.263-2.132l11.491,10.855 c-4.261,0.335-8.078,2.18-10.897,5.422c-2.135,2.455-3.461,5.466-3.937,8.677c-2.174-3.709-4.385-7.477-6.633-11.302 C276.416,274.617,277.421,269.04,280.832,265.943z M300.859,266.113c-0.574,1.34-0.885,2.758-0.938,4.2l-14.685-13.872 c0.643-0.177,1.305-0.346,1.836-0.475c0.747-0.182,1.47-0.36,2.131-0.549c4.503,2.328,9.238,4.711,14.171,7.145 C302.337,263.513,301.466,264.699,300.859,266.113z M291.619,251.256c-0.034-1.334,0.319-2.878,1.046-4.236 c0.769-1.434,1.863-2.53,3.155-3.208c4.185,1.095,8.552,2.21,13.069,3.34c-3.137,3.23-4.415,7.259-4.465,10.384 c-0.001,0.074,0.015,0.134,0.015,0.207C300.022,255.55,295.73,253.383,291.619,251.256z M311.683,242.934 c-5.268-1.299-10.296-2.565-15.05-3.791c-3.779-4.388-3.011-12.524-0.307-17.583c5.16-0.941,10.502-1.964,15.978-3.053 c-0.177,0.61-0.346,1.221-0.527,1.831C309.627,227.578,307.496,235.043,311.683,242.934z M293.695,217.156 c-4.761-1.094-7.928-2.887-9.407-5.351c-1.117-1.858-1.275-4.194-0.587-7.036c5.64-3.473,11.715-7.231,18.118-11.215 c-1.025,6.846-1.053,15.613,6.652,20.806C303.4,215.358,298.466,216.293,293.695,217.156z M287.011,166.472 c-14.523,1.864-18.717-2.105-23.118-6.318c-0.767-0.733-1.573-1.47-2.415-2.191l4.004-19.257 c7.435,8.471,16.613,15.441,32.781,12.998L287.011,166.472z M256.725,157.402c-8.819,4.582-17.15,3.928-21.691,2.001l-4.151-22.187 c7.989,4.328,19.053,5.742,29.893,0.703L256.725,157.402z M213.663,139.769c4.841-1.115,8.78-3.294,11.658-6.361l0.272,1.456 c-3.822,10.969-18.268,15.712-28.584,16.422c-2.523-4.599-5.039-9.273-7.536-13.988 C196.591,140.427,206.061,141.522,213.663,139.769z M200.433,167.277l-1.565-0.577l2.844,2.802c0.985,1.701,1.968,3.379,2.95,5.043 c-0.07,0.89-0.252,1.91-0.617,3.101c-3.007,9.808-13.31,23.023-17.62,26.005c-4.666-2.066-9.461-4.236-14.327-6.475 c5.514-2.866,12.649-9.096,17.811-16.015c4.683-6.278,7.361-12.5,8.026-18.267C198.769,164.367,199.601,165.828,200.433,167.277z M171.48,202.171c5.124,2.345,10.165,4.61,15.066,6.761c0.05,0.112,0.148,0.195,0.185,0.315c0.342,1.124,0.063,2.471-0.294,3.526 c-5.528-1.12-11.232-2.303-17.048-3.529c1.152-1.512,1.916-3.428,2.086-5.496C171.519,203.207,171.52,202.68,171.48,202.171z M187.164,243.637c8.672,2.496,8.359,9.365,8.021,16.611l-0.003,0.077l-11.598,8.108c-0.524-7.78-5.197-16.49-12.509-21.001 C176.547,246.165,181.929,244.896,187.164,243.637z M147.381,299.559c4.926-1.434,9.114-1.115,12.457,0.997 c6.135,3.875,9.795,13.594,10.944,28.787c-5.807,8.231-11.692,16.583-17.578,24.954c0.533-11.2-1.354-28.017-10.219-36.458 c-3.817-3.634-8.525-5.422-14.023-5.404L147.381,299.559z M175.003,331.63c18.95-8.634,34.225,9.823,40.078,16.937 c0.239,0.291,0.431,0.519,0.639,0.77c-1.351,5.354-2.708,10.66-4.058,15.882c-4.572-3.623-13.751-8.569-24.494-11.036 c-8.02-1.843-18.912-2.678-29.349,1.838C163.576,347.837,169.328,339.676,175.003,331.63z M220.653,349.24 c6.885-7.635,13.749-11.384,20.332-11.029c6.966,0.369,12.019,5.223,14.156,7.693l1.386,14.348 c-4.306-3.289-11.725-7.645-20.698-7.155c-6.551,0.349-12.696,3.286-18.36,8.668C218.53,357.628,219.594,353.449,220.653,349.24z M257.959,325.497c6.348,7.008,16.63,10.76,25.313,13.918c1.123,0.409,2.204,0.805,3.256,1.198 c-8.821,1.869-18.233,6.79-25.385,17.839L257.959,325.497z M312.329,339.517c-2.244-3.877-4.527-7.817-6.883-11.874 c0.351,0.184,0.703,0.369,1.047,0.547c4.39,2.269,7.586,3.981,7.591,8.705C313.395,337.84,312.808,338.723,312.329,339.517z M322.868,291.99c-0.815-2.672-0.713-5.169,0.408-7.428c1.642-3.309,5.447-6.019,10.337-7.456c4.485,2.121,9.045,4.27,13.664,6.447 c3.688,1.738,7.413,3.494,11.154,5.261c-12.855,8.205-10.843,18.785-7.068,30.092L322.868,291.99z M331.846,270.993 c-8.214-3.898-16.305-7.78-24.046-11.59c-0.131-0.523-0.23-1.193-0.189-2.097c0.134-2.945,1.593-6.61,5.041-9.22 c9.54,2.362,19.674,4.779,30.1,7.2c-4.298,1.593-7.785,4.407-9.647,7.989C331.83,265.725,331.434,268.361,331.846,270.993z M313.427,213.373c-9.906-4.036-9.675-12.931-7.995-22.07c8.218-5.124,16.897-10.575,25.774-16.205 c0.585,1.681,1.122,3.47,1.659,5.38c2.518,8.964,5.586,19.762,18.458,24.76C338.391,208.157,325.586,210.924,313.427,213.373z M329.751,170.325c-15.432-0.238-19.261-8.931-22.907-17.297c-0.445-1.021-0.887-2.007-1.335-2.968l16.765-22.004 c-1.547,8.98,1.334,15.669,4.456,19.995c4.717,6.538,12.145,10.8,18.584,12.338C340.099,163.739,334.895,167.061,329.751,170.325z M261.609,133.912c-11.594,6.459-23.759,4.405-31.508-0.876l-5.706-30.497c4.902,6.952,10.818,10.715,17.708,11.121 c10.294,0.586,20.205-6.546,26.521-13.488L261.609,133.912z M172.803,115.607c-1.746,8.839-11.233,47.091-45.941,59.916 c-4.055-2.003-8.054-3.992-11.973-5.953c8.104-2.075,22.754-7.632,33.614-22.034c10.5-13.926,14.729-32.557,12.651-55.484 C164.873,99.715,168.775,107.623,172.803,115.607z M130.669,177.399c27.357-11.581,40.309-39.466,44.461-57.201 c2.977,5.851,6.014,11.72,9.088,17.542c0.239,10.292-3.307,19.249-10.586,26.667c-10.889,11.099-27.905,15.999-36.431,16.191 C135.013,179.532,132.835,178.464,130.669,177.399z M175.9,166.634c6.566-6.693,10.293-14.545,11.235-23.399 c2.519,4.71,5.057,9.371,7.601,13.951c1.421,8.572-3.807,17.295-7.373,22.075c-6.347,8.508-14.936,14.854-19.078,16.153 c-8.471-3.929-17.123-8.044-25.709-12.203C152.117,181.659,166.01,176.712,175.9,166.634z M141.295,187.938 c8.839,4.274,17.748,8.5,26.464,12.523c0.595,1.125,0.602,2.369,0.548,3.026c-0.171,2.072-1.195,3.941-2.6,4.978 c-10.66-2.263-21.664-4.665-32.694-7.119c4.321-2.439,7.577-6.349,8.282-10.562C141.46,189.794,141.425,188.852,141.295,187.938z M166.574,213.559c2.132,1.56,3.556,3.771,4.235,6.614c1.868,7.822-2.185,18.24-6.241,23.856c-9.158,2.096-18.576,4.201-28.007,6.27 c3.812-5.414,7.175-13.87,6.855-22.968c-0.212-6.041-2.161-13.942-9.223-20.799C145.131,208.959,156.028,211.33,166.574,213.559z M109.936,201.077c3.292,1.92,8.24,5.766,11.166,12.617c4.481,10.494,2.789,24.306-4.916,41.021 c-2.018,0.432-4.027,0.862-6.027,1.287c4.553-11.708,10.803-38.567-4.512-55.902C107.072,200.425,108.504,200.751,109.936,201.077z M117.443,259.331c13.715,9.877,15.078,27.993,3.844,52.586c-0.034,0.044-0.074,0.098-0.108,0.142l-13.667,9.554 c17.841-33.423,12.874-51.39,3.66-60.945C113.244,260.227,115.332,259.782,117.443,259.331z M123.515,316.242 c7.118-1.525,12.935-0.237,17.278,3.899c9.597,9.136,10.14,30.066,8.72,39.407c-3.983,5.67-7.951,11.33-11.887,16.956 c0.864-14.791,1.496-36.296-31.394-48.18L123.515,316.242z M153.746,361.816c11.137-7.336,23.807-6.582,32.71-4.536 c11.757,2.7,21.299,8.57,24.332,11.312c-1.653,6.365-3.289,12.581-4.883,18.576c-7.351-7.125-29.275-23.463-63.952-8.534 C145.86,373.052,149.796,367.438,153.746,361.816z M215.794,368.258c6.166-7.532,12.942-11.594,20.181-11.989 c9.821-0.512,17.984,5.79,20.984,8.46l2.069,21.421c-5.663-4.413-15.87-9.918-26.942-10.032c-0.119-0.002-0.237-0.003-0.355-0.003 c-7.654,0-14.343,2.6-20.003,7.673C213.064,378.736,214.424,373.549,215.794,368.258z M313.862,351.704 c2.633,4.566,5.162,8.963,7.582,13.182c-2.491-0.844-5.526-1.587-8.969-2.047C312.509,359.621,312.961,355.891,313.862,351.704z M315.585,345.147c0.24-0.786,0.426-1.521,0.698-2.337c0.576-1.909,0.866-3.568,0.957-5.049 c5.082-6.633,15.885-15.337,35.926-10.592l13.402,12.66c-11.016,1.497-33.324,5.602-40.183,24.082 C322.955,357.928,319.348,351.662,315.585,345.147z M356.336,323.606c-0.201-0.579-0.4-1.167-0.6-1.74 c-4.55-13.031-8.12-23.408,6.166-31.41c6.499,3.077,13.033,6.188,19.504,9.315c-2.665,1.266-5.509,3.395-8.084,6.191 c-2.917,3.169-10.706,13.239-7.294,26.799L356.336,323.606z M360.221,284.388c-3.638-1.718-7.28-3.435-10.914-5.147 c-4.543-2.141-9.1-4.289-13.633-6.434c-1.115-2.74-1.085-5.5,0.249-8.065c2.171-4.174,7.175-7.101,13.061-7.636l1.179-0.107 c6.705,1.539,13.495,3.073,20.293,4.59c-3.999,1.486-6.91,3.551-8.766,6.255C358.275,272.817,359.028,278.802,360.221,284.388z M394.652,195.048c-12.103-0.409-35.849-6.362-43.135-18.095c-2.794-4.498-2.761-9.493,0.042-14.866 c2.411-1.554,4.821-3.112,7.226-4.673c0.19,2.957,1.088,7.102,4.104,11.676c7.016,10.641,21.702,18.368,43.692,23.031 C402.666,193.09,398.683,194.067,394.652,195.048z M413.971,190.287c-30.814-5.332-43.331-15.302-48.352-22.832 c-3.509-5.26-3.824-9.785-3.696-12.082c9.294-6.05,18.471-12.111,27.246-18.025c-1.74,6.345-2.783,16.12,2.546,25.937 c6.139,11.312,18.879,19.028,37.775,23.097C424.501,187.649,419.309,188.956,413.971,190.287z M349.336,157.798 c-6.173-0.395-14.95-4.567-20.029-11.606c-4.978-6.897-5.633-15.361-1.896-24.477l0.356-0.867l11.831-15.529 c2.132,7.036,8.217,17.863,18.036,24.782c7.354,5.184,15.622,7.284,24.33,6.314C371.432,143.452,360.402,150.666,349.336,157.798z M321.809,120.799c-7.806,2.329-21.306,4.747-32.129-1.704c-3.077-1.833-5.724-4.279-7.935-7.322 c1.99-4.471,2.802-9.87,0.074-15.295c-1.511-3.003-3.189-5.296-4.671-7.32c-0.371-0.507-0.721-0.991-1.059-1.469l3.436-16.527 c2.798,9.182,8.875,21.074,19.723,28.345c10.005,6.706,21.914,8.138,35.435,4.395L321.809,120.799z M271.518,86.255l-1.455,6.999 c-4.829,7.188-16.289,17.992-27.771,17.232c-8.002-0.469-14.608-6.436-19.707-17.627l-6.391-34.157 c4.451,4.386,11.493,9.522,20.842,12.163c12.603,3.556,25.592,1.537,38.657-5.866C269.169,75.925,269.028,81.313,271.518,86.255z M213.796,71.81c-3.665,6.892-10.727,10.241-16.237,11.807c-12.094,3.435-27.622,1.531-37.166-4.317 c-3.02-6.312-5.887-12.384-8.556-18.099c7.382,5.566,17.107,10.057,27.634,9.869c11.227-0.166,21.729-5.4,31.295-15.458 L213.796,71.81z M156.825,83.074c4.14,26.401,0.516,47.429-10.832,62.509c-12.229,16.25-30.044,20.684-35.639,21.713 c-3.807-1.913-7.522-3.791-11.119-5.618c7.754-1.461,18.353-5.755,27.751-15.684c11.459-12.105,23.88-35.938,21.097-81.413 C150.815,70.433,153.74,76.631,156.825,83.074z M94.608,164.717c12.925,6.585,27.511,13.899,42.443,21.162 c0.959,1.25,1.388,2.707,1.109,4.38c-0.641,3.834-4.729,8.345-10.486,9.895c-20.786-4.652-41.447-9.432-59.811-13.752 c8.916-1.53,20.242-4.741,24.849-12.134C94.472,171.446,95.065,168.235,94.608,164.717z M99.525,198.696 c18.326,15.383,12.862,44.936,6.861,58.107c-6.21,1.316-12.294,2.593-18.183,3.818c3.108-4.794,5.532-11.615,5.209-19.911 c-0.443-11.435-6.378-29.218-30.934-50.65C74.003,192.782,86.542,195.713,99.525,198.696z M107.357,261.476 c13.631,12.159,11.637,34.308-5.814,64.309l-12.004,8.391c9.452-15.291,18.871-42.87-2.567-68.432 C93.376,264.416,100.224,262.985,107.357,261.476z M103.017,330.572c33.46,11.145,32.276,31.577,31.39,46.569 c-0.089,1.506-0.157,2.908-0.201,4.255c-5.753,8.234-11.401,16.352-16.877,24.265c0.206-11.006-2.633-28.664-10.112-42.616 c-5.644-10.529-13.206-17.323-22.033-20.007L103.017,330.572z M138.302,383.855c38.705-19.425,61.586,1.364,66.661,6.85 c-1.827,6.842-3.588,13.357-5.244,19.426c-2.174-2.653-5.637-5.565-10.27-8.001c-10.74-5.646-33.42-11.773-68.273,6.343 C126.73,400.451,132.462,392.213,138.302,383.855z M210.013,390.255c5.898-7.331,13.36-11.046,22.041-10.957 c12.388,0.128,23.581,7.588,27.412,11.38l1.25,12.942c-6.04-4.338-16.988-8.677-27.857-8.778 c-7.912-0.11-18.367,2.039-27.076,11.149C207.141,400.984,208.558,395.718,210.013,390.255z M264.233,390.44 c8.778-13.375,19.782-21.502,32.773-24.059c4.391-0.864,8.581-0.993,12.351-0.706c0.81,15.387,9.616,20.365,10.139,20.641 c0.237,0.126,0.492,0.185,0.742,0.185c0.569,0,1.122-0.307,1.406-0.846c0.411-0.776,0.115-1.738-0.661-2.148 c-0.108-0.057-7.488-4.202-8.406-17.468c5.045,0.732,9.073,2.129,11.407,3.276c7.607,13.291,14.131,24.815,19.709,34.789 c-12.489-10.87-25.237-16.591-38.03-16.907c-13.761-0.348-27.178,5.558-40.062,17.394L264.233,390.44z M328.541,367.679 c5.335-20.386,30.849-23.728,40.632-24.986c0.134-0.017,0.247-0.032,0.375-0.049l26.038,24.597 c-7.634,0.524-20.573,3.45-30.432,11.618c-8.567,7.098-13.301,16.665-14.216,28.452 C344.558,395.835,337.085,382.612,328.541,367.679z M385.202,296.303c-7.018-3.394-14.164-6.797-21.344-10.195 c-1.279-5.598-2.68-11.905,0.452-16.465c2.195-3.198,6.395-5.357,12.77-6.581c6.408,1.419,12.793,2.817,19.099,4.185 c-3.809,1.521-7.753,4.016-10.22,8.459C383.079,280.889,382.85,287.818,385.202,296.303z M378.846,258.523 c-3.86-3.892-7.183-11.389-6.737-20.92c0.394-8.449,4.28-24.387,25.101-38.211c10.684-2.608,21.01-5.186,30.649-7.631 c-10.256,7.56-25.201,21.169-30.182,39.06c-3.025,10.861-1.846,21.797,3.392,32.573 C393.615,261.779,386.187,260.151,378.846,258.523z M405.088,264.265c-5.868-10.794-7.367-21.745-4.355-32.578 c6.061-21.787,28.542-37.431,36.241-42.249c4.928-1.263,9.62-2.475,14.041-3.625c-8.306,7.911-21.444,22.92-25.95,40.471 c-4.182,16.292-0.3,31.297,11.513,44.69C426.184,268.789,415.626,266.541,405.088,264.265z M456.591,179.403 c-6.017,1.572-12.694,3.3-19.87,5.136c-21.648-3.419-35.86-11.065-42.212-22.77c-6.051-11.146-3.014-22.304-1.033-27.333 c13.955-9.471,26.713-18.476,37.053-26.337C424.552,123.793,418.803,153.278,456.591,179.403z M370.607,114.148 c8.717,4.675,23.298,7.394,45.943-1.62c-8.262,5.961-17.533,12.39-27.402,19.058c-10.812,3.513-20.789,2.186-29.684-4.084 c-10.761-7.584-16.483-19.912-17.402-25.418l10.252-13.456C354.137,97.621,359.607,108.249,370.607,114.148z M323.879,84.958 c7.562,3.737,15.422,4.498,23.441,2.359l-9.294,12.198c-14.349,5.034-26.808,4.191-37.009-2.647 c-13.054-8.749-18.729-24.625-19.966-33.044l0.346-1.662c2.718-3.746,8.388-12.031,9.552-17.358 C297.358,58.892,308.446,77.339,323.879,84.958z M242.749,46.559c13.188,2.556,26.567-2.02,39.847-13.586l-5.748,27.646 c-13.232,8.294-26.328,10.753-38.95,7.188c-11.83-3.341-19.794-11.014-22.833-15.133l-5.812-31.062 C216.214,31.911,227.707,43.647,242.749,46.559z M203.183,15.087l6.853,36.628c-9.382,10.538-19.669,16.017-30.612,16.178 c-12.392,0.301-23.689-6.573-30.804-13.608c-4.172-9.013-7.747-16.891-10.557-23.154C151.097,35.599,182.306,42.389,203.183,15.087z M116.865,115.076c15.401-19.856,22.091-45.017,20.014-74.89c2.167,4.797,4.632,10.204,7.347,16.086 c4.887,49.931-7.842,75.172-19.547,87.54c-10.955,11.571-23.496,14.991-30.511,15.289c-8.678-4.427-16.527-8.481-23.125-11.913 C81.235,144.103,101.32,135.121,116.865,115.076z M68.074,160.378c1.197-2.09,2.117-5.055,1.24-8.693 c6.252,3.257,13.585,7.05,21.66,11.178c1.032,3.733,0.771,6.951-0.959,9.726c-5.481,8.795-23.116,10.961-30.795,11.776 c-11.74-2.777-22.29-5.304-30.997-7.404C44.665,175.381,62.683,169.787,68.074,160.378z M21.144,180.164 c9.127,2.215,20.969,5.067,34.487,8.275c27.735,22.511,34.159,40.895,34.606,52.394c0.363,9.359-3.045,16.599-6.723,20.762 c-10.578,2.19-20.409,4.191-29.021,5.918C60.215,251.817,62.65,213.835,21.144,180.164z M83.321,306.134 c-1.251-14.127-9.962-25.662-25.892-34.356c6.945-1.398,15.833-3.202,25.979-5.297c25.9,29.285,7.892,61.764-1.574,73.081 l-14.018,9.799C76.222,338.185,84.738,322.149,83.321,306.134z M98.575,394.882c-5.598-15.087-19.228-26.132-40.501-32.893 l23.659-16.539c9.189,1.798,16.827,8.174,22.683,19.097c8.739,16.303,10.739,38.141,9.319,46.315 c-5.728,8.299-11.237,16.334-16.413,23.957C101.352,422.715,103.53,408.231,98.575,394.882z M171.33,424.63 c-14.871-3.812-40.471-1.767-79.657,27.09c7.602-11.372,16.237-24.031,25.487-37.435c36.717-21.082,60.086-14.984,70.811-9.342 c6.032,3.171,9.444,6.922,10.662,9.164c-2.565,9.361-4.834,17.506-6.643,23.938C188.453,433.195,181.805,427.318,171.33,424.63z M236.441,415.028c-12.991-0.655-25.966,6.026-38.63,19.907c1.688-6.035,3.674-13.195,5.867-21.216 c8.628-13.032,20.533-15.763,29.151-15.7c12.846,0.119,24.549,6.312,28.32,10.088l1.94,20.085 C257.541,422.309,248.249,415.651,236.441,415.028z M299.464,411.554c-13.02,1.635-23.564,7.618-31.482,17.697l-1.997-20.667 c12.802-12.374,26.091-18.539,39.597-18.208c20.354,0.502,35.995,15.228,43.224,22.918c2.426,4.381,4.645,8.421,6.66,12.126 C343.884,418.617,321.165,408.835,299.464,411.554z M377.873,392.359c-10.089,7.346-15.937,18.133-17.542,32.048 c-1.963-3.621-4.082-7.491-6.354-11.606c-0.279-13.355,4.119-23.966,13.204-31.493c11.295-9.361,26.37-11.113,31.688-10.963 l12.762,12.056C402.64,382.27,389.061,384.214,377.873,392.359z M416.895,349.686c-4.052,8.959-4.208,19.237-0.578,30.58 l-14.88-14.057c-10.141-23.882-12.76-40.027-7.732-47.961c3.233-5.104,9.177-5.676,13.24-5.831 c11.097,5.664,21.56,11.284,30.831,16.743C432.208,331.894,422.099,338.179,416.895,349.686z M408.59,287.185 c-3.477,5.27-4.29,11.798-2.479,19.435c-5.532-2.794-11.214-5.604-17.007-8.424c-2.971-8.934-3.121-15.993-0.369-20.949 c3.113-5.602,9.411-7.605,13.799-8.626c9.67,2.085,19.075,4.084,27.979,5.958C422.273,276.378,413.344,279.979,408.59,287.185z" fill="#EDEDED"/></g></svg>