<?xml version="1.0" encoding="ISO-8859-1" standalone="no"?><!-- Generator: Adobe Illustrator 16.0.0, SVG Export Plug-In . SVG Version: 6.00 Build 0)  --><svg xmlns="http://www.w3.org/2000/svg" xmlns:xlink="http://www.w3.org/1999/xlink" fill="#000000" height="486.499px" id="Layer_1" style="enable-background:new 0 0 486.488 486.499" version="1.1" viewBox="0 0 486.488 486.499" width="486.488px" x="0px" xml:space="preserve" y="0px">
<g id="change1">
	<path d="M485.878,340.741c-0.267-0.951-0.828-1.794-1.808-2.205l-9.126-3.778   c-33.068-17.843-53.348-51.883-53.348-91.507c0-43.341,24.072-80.237,62.837-96.292c1.273-0.534,2.054-1.773,2.054-3.084   c0.007-0.428-0.082-0.862-0.246-1.284c-0.083-0.178-0.288-0.222-0.384-0.38c-0.007-0.01,0-0.021,0-0.031   c-0.705-1.705-2.67-2.516-4.368-1.808l-9.435,3.913c-9.475,2.868-19.143,4.333-28.871,4.333c-34.144,0-67.725-18.509-87.628-48.298   c-19.416-29.056-23.004-63.936-9.845-95.696c0.171-0.417,0.26-0.852,0.246-1.283c0-0.302-0.164-0.558-0.246-0.846   c-0.068-0.223-0.082-0.407-0.186-0.609c-0.349-0.695-0.855-1.304-1.622-1.626c-1.726-0.719-3.663,0.106-4.368,1.808   c-16.055,38.754-52.95,62.826-96.288,62.826c-43.342,0-80.237-24.072-96.292-62.826c-0.702-1.702-2.653-2.51-4.368-1.808   c-1.284,0.53-2.061,1.773-2.061,3.081c0,0.431,0.079,0.866,0.253,1.283c13.163,31.765,9.575,66.647-9.842,95.696   c-19.906,29.789-53.484,48.298-87.631,48.298c-9.308,0-18.557-1.393-27.629-4.022l-10.067-4.166   c-1.023-0.425-2.041-0.171-2.917,0.355c-1.051,0.219-1.999,0.743-2.44,1.804C0.079,143.012,0,143.447,0,143.875   c0,1.311,0.777,2.55,2.061,3.084c38.757,16.055,62.83,52.95,62.83,96.292c0,41.116-21.836,76.211-57.158,93.438l-4.652,1.917   c-0.397,0.164-0.551,0.562-0.842,0.849c-0.065,0.027-0.113,0.062-0.178,0.082C0.777,340.07,0,341.316,0,342.617   c0,0.438,0.079,0.862,0.253,1.287c0.702,1.705,2.663,2.513,4.368,1.808c12.546-5.189,25.564-7.832,38.686-7.832   c34.146,0,67.725,18.513,87.631,48.301c19.414,29.057,22.998,63.939,9.842,95.693c-0.174,0.417-0.253,0.855-0.253,1.28   c0,1.314,0.777,2.554,2.061,3.088c1.705,0.712,3.667-0.11,4.368-1.808c16.055-38.751,52.95-62.83,96.292-62.83   c43.338,0,80.233,24.079,96.288,62.83c0.534,1.287,1.78,2.054,3.088,2.054c0.425,0,0.862-0.075,1.28-0.246   c0.219-0.089,0.273-0.329,0.452-0.452c0.431-0.268,0.712-0.562,0.985-0.986c0.179-0.287,0.288-0.541,0.37-0.876   c0.082-0.273,0.328-0.466,0.328-0.773c0-0.404-0.205-0.719-0.328-1.075c-0.027-0.068,0.027-0.137,0-0.205l-0.254-0.603   c-12.864-31.604-9.194-66.219,10.092-95.091c19.91-29.788,53.491-48.301,87.635-48.301c13.125,0,26.133,2.643,38.683,7.832   c1.704,0.712,3.663-0.103,4.375-1.808c0.164-0.425,0.253-0.849,0.246-1.287C486.488,341.946,486.262,341.295,485.878,340.741z    M414.916,243.25c0,31.689,12.159,60.136,33.164,80.388l-39.778-16.473c-22.086-13.049-35.457-36.676-35.457-63.915   c0.006-30.884,17.149-57.171,44.755-68.608c0.589-0.243,1.026-0.657,1.369-1.133l32.165-13.323   C428.3,180.572,414.916,210.093,414.916,243.25z M270.126,300.032l-21.505-51.749l52.731,21.83   c-10.167,1.828-19.643,7.709-25.64,16.678C272.94,290.94,271.113,295.431,270.126,300.032z M210.778,286.791   c-5.898-8.832-15.175-14.665-25.15-16.589l51.766-21.453l-21.111,50.982C215.28,295.225,213.489,290.844,210.778,286.791z    M216.104,187.473l20.139,48.453l-48.322-20.005c9.092-2.366,17.41-8.055,22.856-16.209   C213.349,195.867,215.074,191.728,216.104,187.473z M275.713,199.711c5.531,8.277,14.028,13.987,23.291,16.277l-49.267,20.416   l20.505-49.517C271.25,191.351,273.03,195.688,275.713,199.711z M243.093,234.984l-21.224-51.064   c6.097,4.043,13.412,6.357,21.378,6.357c7.702,0,14.829-2.126,20.813-5.918L243.093,234.984z M234.836,242.577l-50.041,20.73   c3.505-5.819,5.477-12.673,5.477-20.057c0-8.219-2.485-15.723-6.778-21.933L234.836,242.577z M243.104,252.425l20.546,49.441   c-5.888-3.629-12.871-5.642-20.402-5.642c-7.647,0-14.741,2.081-20.693,5.833L243.104,252.425z M252.298,242.573l50.417-20.888   c-4.121,6.138-6.497,13.518-6.497,21.566c0,7.24,1.924,13.95,5.292,19.701L252.298,242.573z M314.053,209.751   c-2.136,0.486-4.3,0.784-6.477,0.784c-10.235,0-20.32-5.573-26.304-14.539c-5.786-8.647-6.86-19.009-3.013-28.471l7.579-18.308   c0.951,8.876,4.032,17.561,9.311,25.455c9.564,14.306,25.018,23.709,41.271,25.811L314.053,209.751z M272.18,164.722   c-0.007,0.024-0.041,0.024-0.041,0.048c-4.812,11.611-15.884,18.824-28.892,18.824c-13.012,0-24.083-7.213-28.892-18.824   c-0.147-0.359-0.521-0.49-0.763-0.76l-7.47-17.972c9.992,8.387,22.908,13.176,37.125,13.176c13.905,0,26.55-4.601,36.45-12.646   L272.18,164.722z M209.073,170.559c2.52,8.606,1.325,17.695-3.851,25.438c-5.991,8.965-16.075,14.539-26.311,14.539   c-1.77,0-3.53-0.212-5.275-0.531l-23.145-9.585c16.1-2.198,31.381-11.563,40.85-25.746c5.097-7.627,8.178-16,9.235-24.558   L209.073,170.559z M163.192,212.911c0.359,0.62,0.863,1.154,1.578,1.448c11.608,4.81,18.821,15.88,18.821,28.892   c0,11.146-5.327,20.844-14.148,26.424l-22.237,9.216c7.641-9.777,12.005-22.114,12.005-35.64c0-14.439-4.922-27.55-13.556-37.601   L163.192,212.911z M166.047,278.315c0.431,0,0.853,0.171,1.277,0c3.766-1.562,7.665-2.349,11.588-2.349   c10.235,0,20.32,5.573,26.311,14.535c5.819,8.709,6.898,19.156,2.958,28.666c-0.038,0.089-0.028,0.171-0.052,0.253l-7.469,18.041   c-0.924-8.935-4.012-17.685-9.322-25.633c-9.972-14.919-26.266-24.545-43.334-26.037L166.047,278.315z M214.657,321.119   c4.95-11.228,15.815-18.212,28.591-18.212c12.002,0,22.285,6.189,27.591,16.254l8.531,20.512   c-9.859-7.887-22.375-12.385-36.122-12.385c-13.851,0-26.455,4.56-36.338,12.55L214.657,321.119z M278.629,320.482   c0-0.021,0.014-0.021,0.014-0.034c0-0.691-0.212-1.328-0.561-1.862c-3.663-9.353-2.52-19.554,3.19-28.084   c5.983-8.969,16.068-14.535,26.304-14.535c3.93,0,7.825,0.787,11.584,2.349c0.664,0.273,1.335,0.15,1.985,0l17.855,7.395   c-17.239,1.362-33.794,11.057-43.852,26.111c-5.374,8.038-8.455,16.911-9.331,25.955L278.629,320.482z M316.052,268.976   c-8.202-5.676-13.159-15.011-13.159-25.726c0-13.011,7.217-24.082,18.828-28.892c0.568-0.233,0.986-0.65,1.342-1.106l17.5-7.25   c-8.455,10.01-13.282,22.974-13.282,37.248c0,13.32,4.231,25.493,11.652,35.201L316.052,268.976z M356.57,192.132   c-4.437,1.308-8.941,2.201-13.501,2.201c-16.493,0-32.727-8.955-42.359-23.371c-9.305-13.936-11.07-30.631-4.882-45.875   l10.037-24.223c0.343,14.775,4.875,29.388,13.625,42.465c14.802,22.148,39.531,36.118,64.849,37.296L356.57,192.132z    M289.803,122.158c0,0.017-0.027,0.021-0.027,0.038c-7.75,18.711-25.578,30.336-46.528,30.336   c-20.954,0-38.778-11.625-46.532-30.336c-0.167-0.414-0.571-0.572-0.866-0.87l-9.897-23.815   c14.676,14.48,34.873,22.823,57.295,22.823c21.99,0,41.817-8.034,56.421-21.998L289.803,122.158z M192.642,131.021   c3.618,13.552,1.253,27.793-6.857,39.942c-9.633,14.416-25.866,23.371-42.366,23.371c-3.807,0-7.583-0.616-11.317-1.527   l-29.498-12.214c25.175-1.318,49.688-15.24,64.405-37.262c8.503-12.734,13.032-26.92,13.587-41.294L192.642,131.021z    M120.617,195.285c0.356,0.613,0.859,1.144,1.568,1.441c18.715,7.747,30.34,25.579,30.34,46.525   c0,18.674-9.284,34.818-24.555,43.608l-28.905,11.975c13.491-14.521,21.265-34.006,21.265-55.583   c0-22.662-8.544-43.023-23.312-57.739L120.617,195.285z M123.479,295.952c0.432,0,0.846,0.178,1.267,0   c6.062-2.506,12.344-3.779,18.681-3.779c16.493,0,32.726,8.955,42.355,23.366c9.376,14.028,11.112,30.878,4.758,46.207   c-0.041,0.096-0.031,0.191-0.058,0.288l-9.849,23.784c-0.308-14.843-4.854-29.515-13.631-42.653   c-15.281-22.867-41.021-37.107-67.314-37.354L123.479,295.952z M197.058,363.635c7.907-18.308,25.499-29.666,46.189-29.666   c20.211,0,37.423,10.887,45.569,28.454l10.619,25.53c-14.583-13.83-34.321-21.785-56.188-21.785   c-21.929,0-41.712,7.996-56.302,21.881L197.058,363.635z M296.177,362.704c-0.062-0.561-0.178-1.108-0.473-1.547   c-6.065-15.172-4.251-31.768,4.998-45.618c9.64-14.411,25.866-23.366,42.366-23.366c6.326,0,12.611,1.273,18.677,3.779   c0.664,0.273,1.342,0.15,1.992,0l24.188,10.016c-26.571-0.021-52.937,14.008-68.443,37.197   c-8.798,13.186-13.351,27.913-13.632,42.804L296.177,362.704z M356.857,285.867c-14.281-8.982-22.895-24.627-22.895-42.616   c0-20.946,11.626-38.778,30.337-46.525c0.582-0.243,1.007-0.661,1.362-1.126l23.367-9.681   c-14.508,14.686-22.86,34.89-22.867,57.332c0,21.344,7.62,40.624,20.834,55.097L356.857,285.867z M349.998,104.032   c21.128,31.624,56.839,51.27,93.187,51.27c0.924,0,1.842-0.175,2.759-0.198l-38.888,16.113c-6.422,1.849-12.974,2.834-19.566,2.834   c-24.326,0-48.254-13.193-62.44-34.431c-13.802-20.646-16.369-45.416-7.079-67.992l13.364-32.284   C330.471,61.789,336.743,84.194,349.998,104.032z M243.248,71.583c32.534,0,61.611-12.851,81.952-34.896l-13.323,32.182   c-0.007,0.01-0.021,0.014-0.027,0.023c-11.434,27.608-37.725,44.759-68.602,44.759c-30.885,0-57.175-17.15-68.608-44.759   c-0.192-0.469-0.644-0.674-0.996-0.996l-13.58-32.671C180.452,58.14,210.021,71.583,243.248,71.583z M43.307,155.301   c36.352,0,72.059-19.646,93.187-51.266c12.964-19.396,19.201-41.24,18.67-63.179l16.127,38.795   c5.747,20.307,2.334,41.74-9.842,59.968C147.26,160.857,123.329,174.05,99,174.05c-6.127,0-12.214-0.887-18.208-2.492   l-39.641-16.411C41.87,155.161,42.582,155.301,43.307,155.301z M71.573,243.25c0-33.387-13.569-63.069-36.683-83.468l32.435,13.429   c0.356,0.616,0.862,1.14,1.564,1.431c27.604,11.437,44.751,37.724,44.758,68.608c0,28.643-14.877,53.173-39.042,65.723   l-36.728,15.213C59.225,303.907,71.573,275.22,71.573,243.25z M136.491,382.463c-21.125-31.617-56.832-51.267-93.184-51.267   c-1.979,0-3.94,0.315-5.912,0.425l32.809-13.598c0.421,0,0.832,0.179,1.246,0c8.935-3.697,18.208-5.572,27.55-5.572   c24.329,0,48.261,13.186,62.446,34.431c13.83,20.696,16.391,45.542,7.018,68.17c-0.044,0.096-0.03,0.205-0.065,0.314   l-13.244,31.987C156.065,424.842,149.79,402.373,136.491,382.463z M243.248,414.915c-32.449,0-61.464,12.776-81.798,34.712   l13.576-32.794c11.605-27.126,37.642-43.982,68.222-43.982c30.48,0,56.421,16.754,68.081,43.729l13.775,33.116   C304.77,427.718,275.727,414.915,243.248,414.915z M349.998,382.463c-13.289,19.882-19.561,42.331-18.664,64.814l-13.282-31.938   c-0.096-0.301-0.096-0.63-0.267-0.89c-9.085-22.463-6.456-47.049,7.25-67.567c14.2-21.245,38.121-34.431,62.454-34.431   c9.338,0,18.615,1.875,27.557,5.572c0.678,0.288,1.362,0.164,2.02,0l32.986,13.666c-2.287-0.15-4.573-0.493-6.867-0.493   C406.836,331.197,371.125,350.846,349.998,382.463z" style="fill:#ffffff"/>
</g>
</svg>