<?xml version="1.0" encoding="UTF-8" standalone="no"?><svg xmlns="http://www.w3.org/2000/svg" xmlns:xlink="http://www.w3.org/1999/xlink" fill="#000000" height="623" preserveAspectRatio="xMidYMid meet" version="1" viewBox="-26.3 0.0 505.8 623.0" width="505.8" zoomAndPan="magnify"><g fill="#ffffff"><g id="change1_2"><path d="M292.355,390.367c-1.381-36.401-23.748-32.433-32.889-64.793c-3.755-13.277,8.869-42.904,9.685-63.955 c0.911-23.66-5.18-42.816-42.588-42.816c-37.4,0-43.492,19.156-42.581,42.816c0.816,21.052,13.432,50.678,9.685,63.955 c-9.141,32.36-31.507,28.392-32.889,64.793c-1.675,44.124,37.099,95.014,65.785,129.821 C255.255,485.382,294.03,434.491,292.355,390.367z M177.229,376.943c3.85-0.434,6.76,2.697,5.643,7.554 c-5.827,29.707,10.86,70.223,32.117,94.654C176.957,444.881,170.374,388.949,177.229,376.943z"/></g><g id="change1_3"><path d="M201.652,324.288c0,0-57.95,43.774-78.99,62.947c-21.04,19.172-40.421,30.692-23.358,97.734 c18.675,73.372,64.534,138.038,64.534,138.038C80.751,542.349,52.095,418.266,60.065,392.259 c32.573,9.601,135.358-86.655,135.358-86.655S202.038,318.133,201.652,324.288z"/></g><g id="change1_4"><path d="M251.479,324.288c0,0,57.95,43.774,78.99,62.947c21.04,19.172,40.421,30.692,23.358,97.734 c-18.675,73.372-64.534,138.038-64.534,138.038c83.088-80.657,111.744-204.74,103.774-230.748 c-32.573,9.601-135.358-86.655-135.358-86.655S251.094,318.133,251.479,324.288z"/></g><g id="change1_5"><path d="M197.112,301.42l-1.679,11.333c-34.343-1.068-106.388,14.195-140.883,44.112 c-58.307-50.98-80.897-212.164-11.906-302.372C4.79,125.469,4.588,250.467,61.876,314.738 c11.462,12.858,91.582-28.39,135.846-12.821L197.112,301.42z"/></g><g id="change1_1"><path d="M255.409,301.916c0.215-0.076,0.436-0.141,0.652-0.214l-0.042-0.282L255.409,301.916z"/><path d="M410.488,54.493c40.756,74.521,34.65,207.467-19.232,260.245c-12.246,11.995-90.809-27.99-135.194-13.036 l1.637,11.051c34.343-1.068,106.388,14.195,140.883,44.112C456.889,305.885,479.479,144.701,410.488,54.493z"/></g><g id="change1_6"><path d="M261.594,300.795c19.534-21.011,51.359-44.822,115.924-28.795c43.043-54.262,36.175-177.211-40.296-241.47 c43.198,49.488,68.667,159.069,29.611,204.227c-14.653,16.943-63.039,9.082-91.582,37.854c0,0,17.154-29.688-3.511-71.128 c47.479,19.232,62.559-2.783,73.692,8.97C394.345,138.019,315.705,60.139,226.566,0c52.66,44.265,98.751,88.836,113.598,134.594 c16.67,51.374-24.905,87.069-82.847,47.426c-1.679,24.269,19.003,34.42,11.829,79.6 C255.486,280.929,260.376,297.537,261.594,300.795z"/></g><g id="change1_7"><path d="M191.537,300.795C172.003,279.784,140.178,255.973,75.613,272C32.57,217.737,39.439,94.789,115.909,30.529 C72.712,80.017,47.242,189.599,86.298,234.756c14.653,16.943,63.039,9.082,91.582,37.854c0,0-17.154-29.688,3.511-71.128 c-47.479,19.232-62.559-2.783-73.692,8.97C58.787,138.019,137.426,60.139,226.566,0c-52.66,44.265-98.751,88.836-113.598,134.594 c-16.67,51.374,24.905,87.069,82.847,47.426c1.679,24.269-19.003,34.42-11.829,79.6 C197.646,280.929,192.755,297.537,191.537,300.795z"/></g></g></svg>